<svg height="512" viewBox="0 0 64 64" width="512" xmlns="http://www.w3.org/2000/svg"><path d="m56 42-17-5a18.217 18.217 0 0 1 -5-3 11.115 11.115 0 0 1 -4-8.54v-9.46s-4 1-5 4h-12c-.67-2.011-3.137-3.123-4.691-3.638a1 1 0 0 0 -1.309.953v32.685h54c0-3.594-.906-7.031-5-8z" fill="#66342e"/><path d="m56.03 50.242-.867-3.467-8.479-2.827.632-1.9 9 3a.994.994 0 0 1 .654.706l1.138 4.484z" fill="#f4f4e6"/><path d="m13 20h12a0 0 0 0 1 0 0v12a6 6 0 0 1 -6 6 6 6 0 0 1 -6-6v-12a0 0 0 0 1 0 0z" fill="#995f5b"/><path d="m24 47h-14v-6h2v4h12z" fill="#f4f4e6"/><path d="m26 45h2v2h-2z" fill="#f4f4e6"/><path d="m22 27h-2v-2h-2v-2h4z" fill="#ceac9a"/><path d="m59 57h-21l-4-2h-10l-3 2h-12a2 2 0 0 1 -2-2v-5h54v5a2 2 0 0 1 -2 2z" fill="#d3843d"/><g fill="#ad6327"><path d="m11 53h2v4h-2z"/><path d="m16 53h2v4h-2z"/><path d="m41 53h2v4h-2z"/><path d="m47 53h2v4h-2z"/><path d="m53 53h2v4h-2z"/></g><path d="m8 18h-2a3 3 0 0 1 -3-3v-6a3 3 0 0 1 6 0v8a1 1 0 0 1 -1 1zm-2-10a1 1 0 0 0 -1 1v6a1 1 0 0 0 1 1h1v-7a1 1 0 0 0 -1-1z" fill="#f9bb4b"/></svg>