<svg height="512" viewBox="0 0 64 64" width="512" xmlns="http://www.w3.org/2000/svg"><g id="Filled_outline" data-name="Filled outline"><path d="m59 57h-21l-4-2h-10l-3 2h-12a2 2 0 0 1 -2-2v-5h54v5a2 2 0 0 1 -2 2z" fill="#d3843d"/><path d="m56 42-17-5a18.217 18.217 0 0 1 -5-3 11.613 11.613 0 0 1 -4-9v-9s-4 1-5 4h-12c-1-3-6-4-6-4v34h54c0-3.594-.906-7.031-5-8z" fill="#66342e"/><path d="m56.03 50.242-.867-3.467-8.479-2.827.632-1.9 9 3a.994.994 0 0 1 .654.706l1 4z" fill="#f4f4e6"/><path d="m13 20h12a0 0 0 0 1 0 0v12a6 6 0 0 1 -6 6 6 6 0 0 1 -6-6v-12a0 0 0 0 1 0 0z" fill="#995f5b"/><path d="m24 47h-14v-6h2v4h12z" fill="#f4f4e6"/><path d="m26 45h2v2h-2z" fill="#f4f4e6"/><path d="m22 27h-2v-2h-2v-2h4z" fill="#ceac9a"/><g fill="#ad6327"><path d="m11 53h2v4h-2z"/><path d="m16 53h2v4h-2z"/><path d="m41 53h2v4h-2z"/><path d="m47 53h2v4h-2z"/><path d="m53 53h2v4h-2z"/></g><path d="m56.257 41.033-16.97-4.991a17.269 17.269 0 0 1 -4.646-2.811 10.6 10.6 0 0 1 -3.641-8.231v-9a1 1 0 0 0 -1.242-.97c-.173.043-3.968 1.024-5.425 3.97h-10.679c-1.207-2.269-4.206-3.367-5.654-3.779v-7.221a3 3 0 0 0 -6 0v6a3 3 0 0 0 3 3h1v38a3 3 0 0 0 3 3h12a1.006 1.006 0 0 0 .555-.168l2.745-1.832h9.461l3.789 1.9a1 1 0 0 0 .45.1h21a3 3 0 0 0 3-3v-5c0-1.879 0-7.59-5.743-8.967zm-42.257-20.033h10v11a5 5 0 0 1 -10 0zm-10-7v-6a1 1 0 0 1 2 0v7h-1a1 1 0 0 1 -1-1zm56 41a1 1 0 0 1 -1 1h-4v-3h-2v3h-4v-3h-2v3h-4v-3h-2v3h-2.764l-3.789-1.9a1 1 0 0 0 -.447-.1h-10a1.006 1.006 0 0 0 -.555.168l-2.745 1.832h-2.7v-3h-2v3h-3v-3h-2v3h-2a1 1 0 0 1 -1-1v-4h52zm-2.22-6-.81-3.242a.994.994 0 0 0 -.654-.706l-9-3-.632 1.9 8.479 2.827.557 2.221h-47.72v-31.69c1.46.486 3.433 1.444 4 2.9v11.79a7 7 0 0 0 14 0v-11.8a5.531 5.531 0 0 1 3-2.767v7.567a12.6 12.6 0 0 0 4.36 9.769 19.266 19.266 0 0 0 5.358 3.19l17 5a.442.442 0 0 0 .052.014c2.681.634 4 2.509 4.2 6.027z"/><path d="m12 41h-2v6h14v-2h-12z"/><path d="m26 45h2v2h-2z"/><path d="m20 27h2v-4h-4v2h2z"/></g></svg>