<svg height="512" viewBox="0 0 64 64" width="512" xmlns="http://www.w3.org/2000/svg"><path d="m61 43h-25l-6-2-11 4-16-5 4-20 13-8 7 1v8l.83.75 1.49 1.35 1.65 1.51 1.49 1.35 2.18 1.98 1.48 1.36 1.88 1.7 3.2.72c3.37.76 8.53 1.9 10.8 2.28a12.123 12.123 0 0 1 6.75 3.01 8.133 8.133 0 0 1 2.25 5.99z" fill="#e1462b"/><path d="m41.2 31.72-2.2 3.28-7.5-.5-9.5-9.5v-7h5v3l.83.75 1.49 1.35 1.65 1.51 1.49 1.35 2.18 1.98 1.48 1.36 1.88 1.7z" fill="#b23626"/><path d="m57 53h-22l-5-2-5 2h-20a2 2 0 0 1 -2-2v-7l15.028 3.035 11.981-3.035 5.116 1h25.875v4a4 4 0 0 1 -4 4z" fill="#f4f4e6"/><path d="m3 47 7 2 3-2 6 2 11-4 6 2h25v-4h-25l-6-2-11 4-16-5z" fill="#394d5c"/><g fill="#d3d2b6"><path d="m38 50h2v3h-2z"/><path d="m43 50h2v3h-2z"/><path d="m48 50h2v3h-2z"/><path d="m53 50h2v3h-2z"/></g><path d="m20 12-7 4.308-6 3.692-1.469 7.345 14.469-9.345h7v-4.692-.308z" fill="#394d5c"/><path d="m29.32 23.1-2.61 2.61-1.42-1.42 2.54-2.54z" fill="#dd3e46"/><path d="m32.46 25.96-2.75 2.75-1.42-1.42 2.68-2.68z" fill="#dd3e46"/><path d="m36.12 29.3-2.41 2.41-1.42-1.42 2.35-2.35z" fill="#dd3e46"/><path d="m57 40h-2c0-.2 0-.8-1.179-1.016l-11-2 .358-1.966 11 2a3.034 3.034 0 0 1 2.821 2.982z" fill="#b23626"/><path d="m11 30 4 4 4-4 3 3-7 7-7-7z" fill="#f4f4e6"/><path d="m14 25h2v2h-2z" fill="#b23626"/><path d="m23 37h2v2h-2z" fill="#b23626"/></svg>