<svg height="512" viewBox="0 0 64 64" width="512" xmlns="http://www.w3.org/2000/svg"><g id="Filled_outline" data-name="Filled outline"><path d="m3 40 16 5 11-4 6 2h25c0-4.971-3-8-9-9-3.531-.588-14-3-14-3l-11-10v-8l-7-1-13 8z" fill="#e1462b"/><path d="m39 35 2-3 .184-.277c-1.861-.418-3.184-.723-3.184-.723l-11-10v-3h-5v7l9.5 9.5z" fill="#b23626"/><path d="m57 53h-22l-5-2-5 2h-20a2 2 0 0 1 -2-2v-4l7 2 3-2 6 2 6-2 5-2 6 2h25v2a4 4 0 0 1 -4 4z" fill="#f4f4e6"/><path d="m3 47 7 2 3-2 6 2 11-4 6 2h25v-4h-25l-6-2-11 4-16-5z" fill="#394d5c"/><g fill="#d3d2b6"><path d="m38 50h2v3h-2z"/><path d="m43 50h2v3h-2z"/><path d="m48 50h2v3h-2z"/><path d="m53 50h2v3h-2z"/></g><path d="m20 12-7 4.308-6 3.692-1.469 7.345 14.469-9.345h7v-4.692-.308z" fill="#394d5c"/><path d="m25.379 22.5h4.243v2h-4.243z" fill="#dd3e46" transform="matrix(.707 -.707 .707 .707 -8.562 26.328)"/><path d="m28.379 25.5h4.243v2h-4.243z" fill="#dd3e46" transform="matrix(.707 -.707 .707 .707 -9.805 29.328)"/><path d="m32.379 28.5h4.243v2h-4.243z" fill="#dd3e46" transform="matrix(.707 -.707 .707 .707 -10.755 33.036)"/><path d="m57 40h-2c0-.2 0-.8-1.179-1.016l-11-2 .358-1.966 11 2a3.034 3.034 0 0 1 2.821 2.982z" fill="#b23626"/><path d="m11 30 4 4 4-4 3 3-7 7-7-7z" fill="#f4f4e6"/><path d="m14 25h2v2h-2z" fill="#b23626"/><path d="m23 37h2v2h-2z" fill="#b23626"/><path d="m52.164 33.014c-3.155-.527-12.062-2.558-13.685-2.93l-10.479-9.526v-7.558a1 1 0 0 0 -.858-.99l-7-1a.986.986 0 0 0 -.666.138l-13 8a1 1 0 0 0 -.456.656l-4 20a1.675 1.675 0 0 0 -.02.196v11a3 3 0 0 0 3 3h20a1 1 0 0 0 .371-.071l4.629-1.852 4.629 1.852a1 1 0 0 0 .371.071h22a5.006 5.006 0 0 0 5-5v-6c0-3.808-1.706-8.632-9.836-9.986zm-14.389-1.039c.1.023.775.178 1.771.4l-1.057 1.585-6.548-.437-8.941-8.937v-5.586h3v2a1 1 0 0 0 .327.74l.8.723-1.83 1.83 1.414 1.414 1.9-1.9 1.661 1.51-1.972 1.973 1.414 1.414 2.04-2.04 2.185 1.987-1.639 1.639 1.414 1.414 1.7-1.704 1.913 1.739a1.009 1.009 0 0 0 .448.236zm-17.558-18.934 5.783.826v3.133h-6a1.007 1.007 0 0 0 -.543.16l-12.481 8.061.92-4.6zm39.783 32.959h-23.838l-5.846-1.948a.991.991 0 0 0 -.687.019l-4.945 1.981-5.684 1.894-5.684-1.894a.993.993 0 0 0 -.871.116l-2.615 1.743-5.83-1.666v-4.885l14.7 4.594a.989.989 0 0 0 .64-.015l10.673-3.88 5.669 1.889a1 1 0 0 0 .318.052h24zm0 3a3 3 0 0 1 -3 3h-2v-2h-2v2h-3v-2h-2v2h-3v-2h-2v2h-3v-2h-2v2h-2.808l-4.821-1.929a1 1 0 0 0 -.742 0l-4.821 1.929h-19.808a1 1 0 0 1 -1-1v-2.674l5.726 1.636a1.009 1.009 0 0 0 .829-.13l2.592-1.732 5.537 1.844a.991.991 0 0 0 .632 0l6.055-2.019 4.66-1.865 5.653 1.884a1 1 0 0 0 .316.056h24zm-23.838-7-5.846-1.948a.978.978 0 0 0 -.658.009l-10.682 3.883-14.819-4.631 2.272-11.358 13.871-8.955h.7v6a1 1 0 0 0 .293.707l9.5 9.5a1 1 0 0 0 .641.291l7.5.5.066.002a1 1 0 0 0 .832-.445l1.8-2.7c3.367.754 8.031 1.775 10.2 2.136 5.071.846 7.736 3.144 8.116 7.014z"/><path d="m54.179 37.017-11-2-.358 1.966 11 2c1.179.217 1.179.817 1.179 1.017h2a3.034 3.034 0 0 0 -2.821-2.983z"/><path d="m22.707 32.293-3-3a1 1 0 0 0 -1.414 0l-3.293 3.293-3.293-3.293a1 1 0 0 0 -1.414 0l-3 3a1 1 0 0 0 0 1.414l7 7a1 1 0 0 0 1.414 0l7-7a1 1 0 0 0 0-1.414zm-7.707 6.293-5.586-5.586 1.586-1.586 3.293 3.293a1 1 0 0 0 1.414 0l3.293-3.293 1.586 1.586z"/><path d="m14 25h2v2h-2z"/><path d="m23 37h2v2h-2z"/></g></svg>