<svg height="512" viewBox="0 0 64 64" width="512" xmlns="http://www.w3.org/2000/svg"><path d="m48.682 15.574c-.8-2.081-4.885-3.229-8.8-3.862 3.118-.841 6.218-2.142 6.892-4.075a3.113 3.113 0 0 0 -1.067-3.344 4.719 4.719 0 0 0 -4.05-1.471c-4.689.607-9.04 7.85-9.521 8.674a1.8 1.8 0 0 0 -.031.951c.207.412 5.094 10.153 9.114 15.178l1.562-1.25a74.228 74.228 0 0 1 -5.87-9.174c2 1.576 4.4 2.981 6.678 3.095.1 0 .207.008.308.008a5.216 5.216 0 0 0 3.81-1.6c1.3-1.297 1.248-2.418.975-3.13zm-6.769-10.768a2.674 2.674 0 0 1 2.38.9c.509.51.708.938.592 1.274-.547 1.577-5.6 3-9.844 3.714 1.678-2.371 4.442-5.574 6.872-5.888zm4.38 12.487a3.241 3.241 0 0 1 -2.6 1c-2.73-.135-6.108-2.944-8.262-5.118 5.46.506 10.849 1.709 11.387 3.111.113.307-.281.763-.525 1.007z" fill="#7d8d9c"/><path d="m7.746 32.111a38.489 38.489 0 0 1 -.186-11.111c.15-1.34.33-2.68.53-4 .21-1.37.44-2.71.67-4 .25-1.41.5-2.75.71-4a37.875 37.875 0 0 0 .74-6h21.79s.27 2.58.67 6c.14 1.25.3 2.61.48 4 .16 1.33.33 2.69.5 4 .2 1.43.39 2.79.58 4 .18 1.19.36 2.23.54 3.03.08.38.16.71.23.97.09.3.18.62.28.96.37 1.19.83 2.58 1.38 4.07.23.62.48 1.25.74 1.9.4.99.84 2 1.31 3.02a43.861 43.861 0 0 0 3.54 6.29c2.71 3.93 6.06 6.87 9.96 6.84 10-.08 4 12.92 4 12.92h-17c-.98 0-3.09-1.79-4-3-.76-1.02-2.32-3.83-4.04-6.75-.64-1.1-1.31-2.21-1.96-3.25s-1.29-2-1.91-2.88a37.989 37.989 0 0 0 -7.3-8.12z" fill="#394d5c"/><path d="m14 7h6v8h-6z" fill="#f9bb4b"/><path d="m33.15 13h-13.15v-4h12.67c.14 1.25.3 2.61.48 4z" fill="#e1462b"/><path d="m14 10h3v2h-3z" fill="#f4f4e6"/><path d="m14 15h6v8h-6z" fill="#ffd782"/><g fill="#e1462b"><path d="m34.23 21h-14.23v-4h13.65c.2 1.43.39 2.79.58 4z"/><path d="m14 9v4h-5.24c.25-1.41.5-2.75.71-4z"/><path d="m14 17v4h-6.44c.15-1.34.33-2.68.53-4z"/></g><path d="m14 18h3v2h-3z" fill="#f4f4e6"/><path d="m20 37-2 24h-5s-1.85-17.23-4.79-27a18.625 18.625 0 0 1 -.46-1.89 21.071 21.071 0 0 1 3.5.71c.84.25 1.65.53 2.42.84a33.1 33.1 0 0 1 6.33 3.34z" fill="#ffd782"/><path d="m16 48h-2a44.92 44.92 0 0 0 -2.75-15.18c.84.25 1.65.53 2.42.84a46.791 46.791 0 0 1 2.33 14.34z" fill="#f4f4e6"/><path d="m42.246 57.3a6.667 6.667 0 0 1 -2.693-.407c-2.395-1.2-5.777-7.22-6.43-8.416l1.754-.958c1.4 2.554 4.146 6.873 5.57 7.584.636.32 3.312.207 5.41-.095l.286 1.98a29.706 29.706 0 0 1 -3.897.312z" fill="#f4f4e6"/><path d="m35.28 25.96-4.84 1.21-.84-1.85 5.17-1.29c.08.38.16.71.23.97.09.3.18.62.28.96z" fill="#7d8d9c"/><path d="m37.4 31.93-5.76 3.45-.78-1.86 5.8-3.49c.23.62.48 1.25.74 1.9z" fill="#7d8d9c"/><path d="m10 25h2v2h-2z" fill="#f4f4e6"/><path d="m13 28h2v2h-2z" fill="#f4f4e6"/><circle cx="29" cy="27" fill="#e1462b" r="2"/><circle cx="30" cy="35" fill="#e1462b" r="2"/><path d="m42.25 41.24-11.08 10.01c-.64-1.1-1.31-2.21-1.96-3.25s-1.29-2-1.91-2.88l11.41-10.17a43.861 43.861 0 0 0 3.54 6.29z" fill="#e1462b"/><path d="m35.586 40h2.828v2h-2.828z" fill="#af2f1e" transform="matrix(.707 -.707 .707 .707 -18.154 38.172)"/><path d="m31.586 44h2.828v2h-2.828z" fill="#af2f1e" transform="matrix(.707 -.707 .707 .707 -22.154 36.515)"/></svg>