<svg height="512" viewBox="0 0 64 64" width="512" xmlns="http://www.w3.org/2000/svg"><g id="Filled_outline" data-name="Filled outline"><path d="m56.215 61h-17c-.99 0-3.1-1.789-4-3-1.041-1.4-3.627-6.2-6-10-4.867-7.787-9.215-11-9.215-11l-2 24h-5s-1.855-17.232-4.785-27c-3-10 2-24.92 2-31h21.785s1.9 18.159 3 22c2 7 8.095 23.153 17.215 23.08 10-.08 4 12.92 4 12.92z" fill="#394d5c"/><path d="m38.709 34.944-11.39 10.191c.614.878 1.248 1.828 1.9 2.865s1.311 2.149 1.956 3.247l11.1-9.986a43.7 43.7 0 0 1 -3.566-6.317z" fill="#e1462b"/><path d="m35.586 40h2.828v2h-2.828z" fill="#af2f1e" transform="matrix(.707 -.707 .707 .707 -18.154 38.172)"/><path d="m31.586 44h2.828v2h-2.828z" fill="#af2f1e" transform="matrix(.707 -.707 .707 .707 -22.154 36.515)"/><path d="m14 7h6v8h-6z" fill="#f9bb4b"/><path d="m32.666 9h-12.666v4h13.143c-.171-1.389-.333-2.751-.477-4z" fill="#e1462b"/><path d="m14 10h3v2h-3z" fill="#f4f4e6"/><path d="m14 15h6v8h-6z" fill="#ffd782"/><g fill="#e1462b"><path d="m33.655 17h-13.655v4h14.23c-.19-1.211-.384-2.574-.575-4z"/><path d="m8.764 13h5.236v-4h-4.519c-.219 1.251-.468 2.6-.717 4z"/><path d="m7.575 21h6.425v-4h-5.9c-.206 1.314-.382 2.655-.525 4z"/></g><path d="m14 18h3v2h-3z" fill="#f4f4e6"/><path d="m7.753 32.11c.126.646.278 1.278.462 1.89 2.93 9.768 4.785 27 4.785 27h5l2-24s-5.878-4.187-12.247-4.89z" fill="#ffd782"/><path d="m16 49h-2a44.123 44.123 0 0 0 -2.919-15.606l1.838-.788a45.442 45.442 0 0 1 3.081 16.394z" fill="#f4f4e6"/><path d="m42.246 58.3a6.667 6.667 0 0 1 -2.693-.407c-2.395-1.2-5.777-7.22-6.43-8.416l1.754-.958c1.4 2.554 4.146 6.873 5.57 7.584.636.32 3.312.207 5.41-.095l.286 1.98a29.706 29.706 0 0 1 -3.897.312z" fill="#f4f4e6"/><circle cx="29" cy="27" fill="#e1462b" r="2"/><circle cx="30" cy="35" fill="#e1462b" r="2"/><path d="m30.938 24.5h4.123v1.999h-4.123z" fill="#7d8d9c" transform="matrix(.97 -.242 .242 .97 -5.195 8.756)"/><path d="m31.585 31.5h5.831v2h-5.831z" fill="#7d8d9c" transform="matrix(.857 -.515 .515 .857 -11.806 22.389)"/><path d="m10 25h2v2h-2z" fill="#f4f4e6"/><path d="m13 28h2v2h-2z" fill="#f4f4e6"/><path d="m35.586 40h2.828v2h-2.828z" transform="matrix(.707 -.707 .707 .707 -18.154 38.172)"/><path d="m31.586 44h2.828v2h-2.828z" transform="matrix(.707 -.707 .707 .707 -22.154 36.515)"/><path d="m46.774 7.637a3.113 3.113 0 0 0 -1.067-3.344 4.719 4.719 0 0 0 -4.05-1.471c-3.18.412-6.2 3.872-7.968 6.316-.405-3.489-.687-6.173-.7-6.242a1 1 0 0 0 -.989-.896h-21.785a1 1 0 0 0 -1 1 54.456 54.456 0 0 1 -1.115 8.033c-1.311 7.244-2.942 16.26-.844 23.254 2.87 9.567 4.73 26.649 4.749 26.82a1 1 0 0 0 .995.893h5a1 1 0 0 0 1-.917l1.836-22.031a48.549 48.549 0 0 1 7.535 9.478c1.091 1.745 2.235 3.719 3.244 5.46 1.234 2.129 2.209 3.812 2.8 4.608.746 1 3.188 3.4 4.8 3.4h17a1 1 0 0 0 .908-.581c.144-.312 3.5-7.688.862-11.767-1.1-1.707-3.011-2.572-5.678-2.572h-.155c-9.527 0-15.536-20.063-16.19-22.354a70.721 70.721 0 0 1 -1.248-7.351 80.071 80.071 0 0 0 6.505 10.25l1.562-1.25a74.228 74.228 0 0 1 -5.87-9.174c2 1.576 4.4 2.981 6.678 3.095.1 0 .207.008.308.008a5.216 5.216 0 0 0 3.81-1.6c1.3-1.3 1.248-2.421.975-3.133-.8-2.081-4.885-3.229-8.8-3.862 3.118-.836 6.218-2.137 6.892-4.07zm-36.456 2.363h2.682v2h-3.041c.037-.2.074-.41.11-.61.087-.478.167-.932.249-1.39zm10.682 0h10.774c.075.635.153 1.292.234 1.961 0 .013-.005.026-.005.039h-11.003zm-2 4h-4v-2h2v-2h-2v-2h4zm-6 0v2h-3.735c.11-.674.223-1.343.338-2zm0 4v2h-4.311q.121-1 .268-2zm2 2h2v-2h-2v-2h4v6h-4zm6-2h11.781c.095.69.19 1.358.286 2h-12.067zm0-2v-2h11.258c.083.667.169 1.337.255 2zm10.1-12c.093.866.248 2.289.443 4h-10.543v-1a1 1 0 0 0 -1-1h-6a1 1 0 0 0 -1 1v1h-2.338c.247-1.493.442-2.855.518-4zm-14.02 56h-3.18c-.425-3.693-2.146-17.7-4.722-26.287-.038-.125-.065-.257-.1-.384a21.966 21.966 0 0 1 2.2.551 44.735 44.735 0 0 1 2.722 15.12h2a46.811 46.811 0 0 0 -2.295-14.244 33.524 33.524 0 0 1 5.25 2.748zm3.52-23.8-.016-.008a31.527 31.527 0 0 0 -11.977-4.97 36.977 36.977 0 0 1 -.131-9.222h4.524v1a1 1 0 0 0 1 1h6a1 1 0 0 0 1-1v-1h12.378c.145.873.285 1.643.419 2.271l-2.636.658a2.993 2.993 0 1 0 .839 2.071c0-.073-.016-.142-.022-.214l2.334-.584c.325 1.068.82 2.595 1.48 4.357l-3.754 2.252a2.991 2.991 0 1 0 .962 2.189 3.063 3.063 0 0 0 -.041-.409l3.571-2.143c.3.728.617 1.48.962 2.243l-10.017 8.963a37.19 37.19 0 0 0 -6.875-7.454zm9.4-9.2a1 1 0 1 1 -1-1 1 1 0 0 1 1 1zm1 8a1 1 0 1 1 -1-1 1 1 0 0 1 1 1zm-2.363 10.3 9.747-8.721a43.974 43.974 0 0 0 2.569 4.52l-9.544 8.59c-.449-.754-.9-1.5-1.347-2.217-.482-.772-.957-1.489-1.425-2.172zm23.515 3.78h.071c2.052 0 3.351.526 4.082 1.655 1.54 2.383.156 7.049-.747 9.265h-16.335a8.27 8.27 0 0 1 -3.206-2.6c-.525-.7-1.521-2.423-2.675-4.415-.289-.5-.591-1.017-.9-1.542l1.184-1.066c1.2 2.088 3.908 6.507 5.924 7.516a6.667 6.667 0 0 0 2.693.407 29.706 29.706 0 0 0 3.9-.312l-.286-1.98c-2.1.3-4.774.415-5.41.095-1.336-.668-3.839-4.513-5.3-7.095l6.956-6.26c2.712 3.62 6.068 6.333 10.049 6.332zm-5.338-32.789c.117.3-.277.758-.521 1a3.241 3.241 0 0 1 -2.6 1c-2.73-.135-6.108-2.944-8.262-5.118 5.456.513 10.845 1.716 11.383 3.118zm-1.929-9.31c-.547 1.577-5.6 3-9.844 3.714 1.678-2.372 4.442-5.575 6.872-5.889a2.674 2.674 0 0 1 2.38.9c.507.511.707.939.592 1.275z"/><path d="m10 25h2v2h-2z"/><path d="m13 28h2v2h-2z"/></g></svg>