<svg height="512" viewBox="0 0 64 64" width="512" xmlns="http://www.w3.org/2000/svg"><path d="m54 46-13-4-13-13v-26h-6a4 4 0 0 0 -4 4v6h-10v41h51c0-3.594-.906-7.031-5-8z" fill="#55b56a"/><path d="m54 46-13-4-2 5c-10 0-13 3.573-13 7h33c0-3.594-.906-7.031-5-8z" fill="#3a8749"/><path d="m54.03 54.243-.862-3.449-9.455-2.836.574-1.916 10 3a1 1 0 0 1 .683.715l1.137 4.486z" fill="#f4f4e6"/><path d="m6 7h12v6h-12z" fill="#3a8749"/><path d="m25 8h3v2h-3z" fill="#3a8749"/><path d="m25 16h3v2h-3z" fill="#3a8749"/><path d="m25 24h3v2h-3z" fill="#3a8749"/><path d="m26.586 30h2.828v2h-2.828z" fill="#3a8749" transform="matrix(.707 -.707 .707 .707 -13.719 28.879)"/><path d="m32.586 36h2.828v2h-2.828z" fill="#3a8749" transform="matrix(.707 -.707 .707 .707 -16.205 34.879)"/><circle cx="17" cy="45" fill="#c8d952" r="5"/><path d="m8 17h4v8h-4z" fill="#3a8749"/><path d="m13 35h-2v-6a1 1 0 0 1 1-1h3v-12h2v13a1 1 0 0 1 -1 1h-3z" fill="#f4f4e6"/><path d="m11 37h2v2h-2z" fill="#f4f4e6"/><circle cx="24" cy="9" fill="#286632" r="2"/><circle cx="24" cy="17" fill="#286632" r="2"/><circle cx="24" cy="25" fill="#286632" r="2"/><circle cx="26" cy="33" fill="#286632" r="2"/><circle cx="32" cy="39" fill="#286632" r="2"/><path d="m59 61h-23l-4-2h-6l-3 2h-15v-7h51z" fill="#394d5c"/><g fill="#7d8d9c"><path d="m11 58h2v3h-2z"/><path d="m15 58h2v3h-2z"/><path d="m19 58h2v3h-2z"/><path d="m38 58h2v3h-2z"/><path d="m42 58h2v3h-2z"/><path d="m46 58h2v3h-2z"/><path d="m50 58h2v3h-2z"/><path d="m54 58h2v3h-2z"/></g></svg>