<svg height="512" viewBox="0 0 64 64" width="512" xmlns="http://www.w3.org/2000/svg"><g id="Filled_outline" data-name="Filled outline"><path d="m54 46-13-4-13-13v-26h-6a4 4 0 0 0 -4 4v6h-10v41h51c0-3.594-.906-7.031-5-8z" fill="#55b56a"/><path d="m59 61h-23l-4-2h-6l-3 2h-15v-7h51z" fill="#394d5c"/><g fill="#7d8d9c"><path d="m11 58h2v3h-2z"/><path d="m15 58h2v3h-2z"/><path d="m19 58h2v3h-2z"/><path d="m38 58h2v3h-2z"/><path d="m42 58h2v3h-2z"/><path d="m46 58h2v3h-2z"/><path d="m50 58h2v3h-2z"/><path d="m54 58h2v3h-2z"/></g><path d="m54 46-13-4-2 5c-10 0-13 3.573-13 7h33c0-3.594-.906-7.031-5-8z" fill="#3a8749"/><path d="m54.03 54.243-.862-3.449-9.455-2.836.574-1.916 10 3a1 1 0 0 1 .683.715l1 4z" fill="#f4f4e6"/><path d="m6 7h12v6h-12z" fill="#3a8749"/><path d="m26 8h2v2h-2z" fill="#3a8749"/><path d="m26 16h2v2h-2z" fill="#3a8749"/><path d="m26 24h2v2h-2z" fill="#3a8749"/><path d="m26.586 30h2.828v2h-2.828z" fill="#3a8749" transform="matrix(.707 -.707 .707 .707 -13.719 28.879)"/><path d="m32.586 36h2.828v2h-2.828z" fill="#3a8749" transform="matrix(.707 -.707 .707 .707 -16.205 34.879)"/><circle cx="17" cy="45" fill="#c8d952" r="5"/><path d="m8 17h4v8h-4z" fill="#3a8749"/><path d="m13 35h-2v-6a1 1 0 0 1 1-1h3v-12h2v13a1 1 0 0 1 -1 1h-3z" fill="#f4f4e6"/><path d="m11 37h2v2h-2z" fill="#f4f4e6"/><circle cx="24" cy="9" fill="#286632" r="2"/><circle cx="24" cy="17" fill="#286632" r="2"/><circle cx="24" cy="25" fill="#286632" r="2"/><circle cx="26" cy="33" fill="#286632" r="2"/><circle cx="32" cy="39" fill="#286632" r="2"/><path d="m28 2h-6a5.009 5.009 0 0 0 -4.9 4h-11.1a1 1 0 0 0 -1 1v6a1 1 0 0 0 1 1h1v47a1 1 0 0 0 1 1h15a1.006 1.006 0 0 0 .555-.168l2.745-1.832h5.461l3.789 1.9a1 1 0 0 0 .45.1h23a1 1 0 0 0 1-1v-7c0-1.878 0-7.586-5.736-8.965l-12.733-3.918-12.531-12.531v-25.586a1 1 0 0 0 -1-1zm-1 31a1 1 0 1 1 -1-1 1 1 0 0 1 1 1zm-20-25h10v4h-10zm2 10h2v6h-2zm4 8v-10h-4v-2h9a1 1 0 0 0 1-1v-6a3 3 0 0 1 3-3h5v4h-.184a3 3 0 1 0 0 2h.184v6h-.184a3 3 0 1 0 0 2h.184v6h-.184a3 3 0 1 0 0 2h.184v3a1 1 0 0 0 .293.707l.293.293-.3.3a2.951 2.951 0 0 0 -1.286-.3 3 3 0 1 0 3 3 2.951 2.951 0 0 0 -.3-1.285l.3-.3 4.586 4.585-.3.3a2.951 2.951 0 0 0 -1.286-.3 3 3 0 1 0 3 3 2.951 2.951 0 0 0 -.3-1.285l.3-.3 4.826 4.827-1.505 3.764c-10.521.172-12.833 4.369-13.243 6.994h-16.078v-27zm12-17a1 1 0 1 1 -1-1 1 1 0 0 1 1 1zm0 8a1 1 0 1 1 -1-1 1 1 0 0 1 1 1zm0 8a1 1 0 1 1 -1-1 1 1 0 0 1 1 1zm8 14a1 1 0 1 1 -1-1 1 1 0 0 1 1 1zm25 21h-2v-2h-2v2h-2v-2h-2v2h-2v-2h-2v2h-2v-2h-2v2h-2v-2h-2v2h-1.764l-3.789-1.9a1 1 0 0 0 -.447-.1h-6a1.006 1.006 0 0 0 -.555.168l-2.745 1.832h-1.7v-2h-2v2h-2v-2h-2v2h-2v-2h-2v2h-2v-5h49zm-4.23-13.027c2.682.635 4 2.509 4.2 6.027h-2.189l-.811-3.243a1 1 0 0 0 -.683-.715l-10-3-.574 1.916 9.455 2.836.551 2.206h-26.6c.719-3.19 4.95-5 11.879-5a1 1 0 0 0 .929-.628l1.658-4.145s12.163 3.741 12.185 3.746z"/><path d="m11 45a6 6 0 1 0 6-6 6.006 6.006 0 0 0 -6 6zm10 0a4 4 0 1 1 -4-4 4 4 0 0 1 4 4z"/><path d="m13 30h3a1 1 0 0 0 1-1v-13h-2v12h-3a1 1 0 0 0 -1 1v6h2z"/><path d="m11 37h2v2h-2z"/></g></svg>