<svg height="512" viewBox="0 0 64 64" width="512" xmlns="http://www.w3.org/2000/svg"><g id="Filled_outline" data-name="Filled outline"><path d="m61 49h-58v-10h20l15 2h23z" fill="#394d5c"/><path d="m5 39h18l15 2h23v-5c0-2.209-2.125-3.667-4-4l-20-3-10-12a14.908 14.908 0 0 1 -11 5 11.785 11.785 0 0 1 -10-5s-3 6-3 12a24.266 24.266 0 0 0 2 10z" fill="#b11e48"/><path d="m23.394 21h7.211v2h-7.211z" fill="#84183c" transform="matrix(.832 -.555 .555 .832 -7.669 18.672)"/><path d="m26.298 24h6.403v2h-6.403z" fill="#84183c" transform="matrix(.781 -.624 .624 .781 -9.153 23.892)"/><path d="m29.298 27h6.403v2h-6.403z" fill="#84183c" transform="matrix(.781 -.624 .624 .781 -10.369 26.422)"/><path d="m3 29a24.266 24.266 0 0 0 2 10h7v-4a6 6 0 0 0 -6-6z" fill="#ce285f"/><g fill="#5a6470"><path d="m7 43h2v6h-2z"/><path d="m11 43h2v6h-2z"/><path d="m15 43h2v6h-2z"/><path d="m19 43h2v6h-2z"/><path d="m23 43h2v6h-2z"/><path d="m27 43h2v6h-2z"/><path d="m31 44h2v5h-2z"/><path d="m35 45h2v4h-2z"/><path d="m39 45h2v4h-2z"/><path d="m43 45h2v4h-2z"/><path d="m47 45h2v4h-2z"/><path d="m51 45h2v4h-2z"/><path d="m55 45h2v4h-2z"/></g><path d="m7 24h2v2h-2z" fill="#ce285f"/><path d="m57 32-20-3-10 9v1.533l11 1.467h23v-5c0-2.209-2.125-3.667-4-4z" fill="#ce285f"/><path d="m11 26h2v2h-2z" fill="#ce285f"/><path d="m54 37c-7.01 0-17.726-1.934-18.179-2.017l.358-1.966c.109.019 10.993 1.983 17.821 1.983 2.555 0 4.271-.543 5.248-1.658l1.5 1.316c-1.374 1.576-3.583 2.342-6.748 2.342z" fill="#84183c"/><path d="m38 32h2v3h-2z" fill="#b11e48"/><path d="m42 30h2v3h-2z" fill="#b11e48"/><path d="m46 33h2v3h-2z" fill="#b11e48"/><path d="m50 31h2v3h-2z" fill="#b11e48"/><path d="m16 22a14.908 14.908 0 0 0 11-5h-21a11.785 11.785 0 0 0 10 5z" fill="#84183c"/><path d="m7 24h2v2h-2z"/><path d="m11 26h2v2h-2z"/><path d="m57.148 31.011-19.624-2.944-4.065-4.878c2.179 1.152 4.284 2.013 5.716 2.013a2.028 2.028 0 0 0 1.207-.322 1.846 1.846 0 0 0 .588-2.122c-.512-2.047-2.48-3.043-4.624-3.508 1.744-.856 2.226-1.724 2.314-2.307.242-1.61-1.606-2.534-2.213-2.838a4.254 4.254 0 0 0 -4.005-.166c-1.713.88-2.615 2.916-3.058 4.36l-1.616-1.94a1 1 0 0 0 -.768-.359h-21.039a1 1 0 0 0 -.856.552 31.758 31.758 0 0 0 -3.105 12.448 26.892 26.892 0 0 0 1.511 9h-.511a1 1 0 0 0 -1 1v10a1 1 0 0 0 1 1h58a1 1 0 0 0 1-1v-13c0-2.71-2.427-4.559-4.852-4.989zm-18.118-7.769a19.091 19.091 0 0 1 -5.519-2.329c2.427.129 5.108.687 5.519 2.329zm-5.674-7.523a1.79 1.79 0 0 1 .834-.2 3.088 3.088 0 0 1 1.363.375 4.349 4.349 0 0 1 1.128.745c-.263.589-2.618 1.484-5.326 2.08a5.263 5.263 0 0 1 2.001-3zm-8.87 2.281a13.723 13.723 0 0 1 -8.486 3 11.124 11.124 0 0 1 -7.858-3zm-18.24.921a13.022 13.022 0 0 0 9.754 4.079 15.84 15.84 0 0 0 10.956-4.491l1.244 1.491-4.753 3.169 1.11 1.664 4.931-3.287 1.093 1.311-4.2 3.363 1.25 1.562 4.234-3.388 1.42 1.7-3.9 3.123 1.25 1.562 3.934-3.148 1.046 1.269-9.284 8.356a1 1 0 0 0 -.331.744v.391l-2.868-.382a.976.976 0 0 0 -.132-.009h-10v-3a7.008 7.008 0 0 0 -7-7h-1.959a29.865 29.865 0 0 1 2.205-9.079zm-.246 11.079a5.006 5.006 0 0 1 5 5v3h-5.348a24.418 24.418 0 0 1 -1.621-8zm54 18h-3v-3h-2v3h-2v-3h-2v3h-2v-3h-2v3h-2v-3h-2v3h-2v-3h-2v3h-2v-3h-2v3h-2v-4h-2v4h-2v-5h-2v5h-2v-5h-2v5h-2v-5h-2v5h-2v-5h-2v5h-2v-5h-2v5h-2v-5h-2v5h-3v-8h18.934l14.934 1.991a.976.976 0 0 0 .132.009h22zm0-8h-21.934l-10.066-1.342v-.213l9.318-8.386 4.682.7v2.241h2v-1.939l6 .9v2.039h2v-1.739l4.825.723a4.667 4.667 0 0 1 1.913.827 7.639 7.639 0 0 1 -4.738 1.189c-1.807 0-3.9-.138-6-.341v-1.659h-2v1.448c-2.2-.25-4.3-.547-6-.8v-1.648h-2v1.327c-1.112-.183-1.794-.306-1.821-.31l-.358 1.966c.453.083 11.169 2.017 18.179 2.017a9.515 9.515 0 0 0 5.924-1.584 2.3 2.3 0 0 1 .076.584z"/></g></svg>