<svg height="512" viewBox="0 0 64 64" width="512" xmlns="http://www.w3.org/2000/svg"><path d="m61 49h-58v-10h20l15 2h23z" fill="#394d5c"/><path d="m61 36v5h-23l-11-1.47-4-.53h-18a24.266 24.266 0 0 1 -2-10c0-6 3-12 3-12a11.785 11.785 0 0 0 10 5 14.908 14.908 0 0 0 11-5l4.43 5.32 1.26 1.51 1.37 1.64 1.28 1.54 1.66 1.99 5 .75 2 .3 6 .9 2 .3 5 .75a5.506 5.506 0 0 1 2.8 1.39 3.768 3.768 0 0 1 1.05 1.64 3.079 3.079 0 0 1 .15.97z" fill="#b11e48"/><path d="m32.69 23.83-4.95 3.95-1.22-1.53 4.91-3.93z" fill="#84183c"/><path d="m35.34 27.01-4.72 3.77-1.24-1.56 4.68-3.75z" fill="#84183c"/><path d="m12 35v4h-7a24.266 24.266 0 0 1 -2-10h3a6 6 0 0 1 6 6z" fill="#ce285f"/><path d="m40.97 22.758c-.512-2.047-2.48-3.043-4.624-3.508 1.744-.856 2.226-1.724 2.314-2.307.242-1.61-1.606-2.534-2.213-2.838a4.254 4.254 0 0 0 -4.005-.166c-2.235 1.148-3.092 4.261-3.342 5.461l-5.652 3.768 1.11 1.664 5.463-3.642c3.2 2 6.963 4.012 9.157 4.012a2.028 2.028 0 0 0 1.207-.322 1.846 1.846 0 0 0 .585-2.122zm-7.614-7.039a1.79 1.79 0 0 1 .834-.2 3.088 3.088 0 0 1 1.363.375 4.349 4.349 0 0 1 1.128.745c-.263.589-2.618 1.484-5.326 2.08a5.263 5.263 0 0 1 2.001-3zm.155 5.2c2.427.126 5.108.682 5.519 2.326a19.091 19.091 0 0 1 -5.519-2.329z" fill="#84183c"/><g fill="#5a6470"><path d="m7 43h2v6h-2z"/><path d="m11 43h2v6h-2z"/><path d="m15 43h2v6h-2z"/><path d="m19 43h2v6h-2z"/><path d="m23 43h2v6h-2z"/><path d="m27 43h2v6h-2z"/><path d="m31 44h2v5h-2z"/><path d="m35 45h2v4h-2z"/><path d="m39 45h2v4h-2z"/><path d="m43 45h2v4h-2z"/><path d="m47 45h2v4h-2z"/><path d="m51 45h2v4h-2z"/><path d="m55 45h2v4h-2z"/></g><path d="m7 24h2v2h-2z" fill="#ce285f"/><path d="m61 36v5h-23l-11-1.47v-1.53l10-9 5 .75 2 .3 6 .9 2 .3 5 .75a5.506 5.506 0 0 1 2.8 1.39 3.768 3.768 0 0 1 1.05 1.64 3.079 3.079 0 0 1 .15.97z" fill="#ce285f"/><path d="m11 26h2v2h-2z" fill="#ce285f"/><path d="m38 32h2v3h-2z" fill="#b11e48"/><path d="m44 30.05v2.95h-2v-3.25z" fill="#b11e48"/><path d="m46 33h2v3h-2z" fill="#b11e48"/><path d="m52 31.25v2.75h-2v-3.05z" fill="#b11e48"/><path d="m16 22a14.908 14.908 0 0 0 11-5h-21a11.785 11.785 0 0 0 10 5z" fill="#84183c"/><path d="m60.85 35.03c-1.47 1.31-3.97 1.97-6.85 1.97-7.01 0-17.73-1.93-18.18-2.02l.36-1.96c.11.02 10.99 1.98 17.82 1.98 2.34 0 4.68-.64 5.8-1.61a3.768 3.768 0 0 1 1.05 1.64z" fill="#84183c"/></svg>