<svg height="512" viewBox="0 0 64 64" width="512" xmlns="http://www.w3.org/2000/svg"><g id="Filled_outline" data-name="Filled outline"><path d="m32 39-16-10h-13v16h12v-10l16 10h30v-6z" fill="#394d5c"/><path d="m56 28-12-2-10-7-9.969 9.769-6.031-3.769h-15v4h13l16 10h29v-7c0-2.038-1.417-3.458-5-4z" fill="#d3843d"/><path d="m3 41h12v4h-12z" fill="#7d8d9c"/><path d="m10 38h-4v-6h2v4h2z" fill="#5a6470"/><g fill="#ffd782"><path d="m36 34h2v2h-2z"/><path d="m40 34h2v2h-2z"/><path d="m44 34h2v2h-2z"/><path d="m48 34h2v2h-2z"/><path d="m52 34h2v2h-2z"/><path d="m56 34h2v2h-2z"/><path d="m25 20.566h2.001v18.868h-2.001z" transform="matrix(.53 -.848 .848 .53 -13.22 36.148)"/></g><path d="m28.462 31.538 9.621-9.621-4.083-2.917-9.846 9.846z" fill="#66342e"/><path d="m56.157 27.012-11.769-1.961-9.815-6.87a1 1 0 0 0 -1.273.105l-9.406 9.214-5.364-3.348a1 1 0 0 0 -.53-.152h-15a1 1 0 0 0 -1 1v20a1 1 0 0 0 1 1h12a1 1 0 0 0 1-1v-8.2l14.47 9.044a1 1 0 0 0 .53.156h30a1 1 0 0 0 1-1v-13c0-2.722-1.966-4.4-5.843-4.988zm-22.051-6.712 2.462 1.723-8.25 8.251-2.68-1.675zm-30.106 5.7h13.713l15.757 9.848 1.06-1.7-4.472-2.8 8.173-8.174 5.2 3.636a.98.98 0 0 0 .409.167l12 2h.015c4.145.639 4.145 2.371 4.145 3.023v6h-27.713l-15.757-9.848a1 1 0 0 0 -.53-.152h-12zm10 18h-10v-2h10zm46 0h-28.713l-15.757-9.848a1 1 0 0 0 -1.53.848v5h-10v-10h11.713l15.757 9.848a1 1 0 0 0 .53.152h28z"/><path d="m8 32h-2v6h4v-2h-2z"/><path d="m36 34h2v2h-2z"/><path d="m40 34h2v2h-2z"/><path d="m44 34h2v2h-2z"/><path d="m48 34h2v2h-2z"/><path d="m52 34h2v2h-2z"/><path d="m56 34h2v2h-2z"/></g></svg>