<svg height="512" viewBox="0 0 64 64" width="512" xmlns="http://www.w3.org/2000/svg"><path d="m32 39-16-10h-13v16h12v-10l16 10h30v-6z" fill="#394d5c"/><path d="m61 32v7h-29l-16-10h-13v-4h15l5.52 3.45.51.32 9.97-9.77 4.12 2.88 5.88 4.12 12 2c3.58.54 5 1.96 5 4z" fill="#d3843d"/><path d="m3 41h12v4h-12z" fill="#7d8d9c"/><path d="m10 38h-4v-6h2v4h2z" fill="#5a6470"/><g fill="#ffd782"><path d="m36 34h2v2h-2z"/><path d="m40 34h2v2h-2z"/><path d="m44 34h2v2h-2z"/><path d="m48 34h2v2h-2z"/><path d="m52 34h2v2h-2z"/><path d="m56 34h2v2h-2z"/></g><path d="m38.12 21.88-9.66 9.66-5.51-2.54.57-.55.51.32 9.97-9.77z" fill="#66342e"/><path d="m25 20.566h2.001v18.868h-2.001z" fill="#ffd782" transform="matrix(.53 -.848 .848 .53 -13.22 36.148)"/></svg>