<svg height="512" viewBox="0 0 64 64" width="512" xmlns="http://www.w3.org/2000/svg"><path d="m59 51v6h-23l-10-4h-20v-6l2-5v-33a33.008 33.008 0 0 1 11-2 33.008 33.008 0 0 1 11 2v26l11.14 13 .86 1 .98.12z" fill="#995f5b"/><path d="m26 35-7 4-7-4v-23a25 25 0 0 1 14 0z" fill="#ceac9a"/><path d="m59 57v4h-26l-10-4-2 4h-13l-2-8h20l10 4z" fill="#66342e"/><path d="m15 56v2h-7.75l-.5-2z" fill="#301a12"/><path d="m17 56h2v2h-2z" fill="#301a12"/><path d="m11 50h-2v-2a1 1 0 0 1 .071-.371l1.929-4.821v-3.808h2v4a1 1 0 0 1 -.071.371l-1.929 4.821z" fill="#ceac9a"/><path d="m19 19v6l-1 .57-6 3.43v-6l6-3.43z" fill="#7a423d"/><path d="m26 23v6l-6-3.43-1-.57v-6l1 .57z" fill="#66342e"/><path d="m19 33v6l-1-.57-6-3.43v-6l6 3.43z" fill="#7a423d"/><path d="m26 29v6l-6 3.43-1 .57v-6l1-.57z" fill="#66342e"/><g fill="#ceac9a"><circle cx="18" cy="46" r="3"/><path d="m42.98 49.12a.964.964 0 0 1 -.43.71l-6 4-1.1-1.66 3.25-2.17h-6.7v-2h9.14l.86 1z"/><path d="m26 38h2v2h-2z"/><path d="m24 42h2v2h-2z"/></g><path d="m22 16-3 3-3-3v-13h6z" fill="#66342e"/><path d="m20 19.57v18.86l-1 .57-1-.57v-18.86l1-.57z" fill="#301a12"/></svg>