<svg height="512" viewBox="0 0 64 64" width="512" xmlns="http://www.w3.org/2000/svg"><g id="Filled_outline" data-name="Filled outline"><path d="m42 49-12-14v-26a33.008 33.008 0 0 0 -11-2 33.008 33.008 0 0 0 -11 2v33l-2 5v6h20l10 4h23v-6z" fill="#995f5b"/><path d="m26 35-7 4-7-4v-23a25 25 0 0 1 14 0z" fill="#ceac9a"/><path d="m36 57-10-4h-20l2 8h13l2-4 10 4h26v-4z" fill="#66342e"/><path d="m7 56h8v2h-8z" fill="#301a12"/><path d="m17 56h2v2h-2z" fill="#301a12"/><path d="m11 50h-2v-2a1 1 0 0 1 .071-.371l1.929-4.821v-3.808h2v4a1 1 0 0 1 -.071.371l-1.929 4.821z" fill="#ceac9a"/><path d="m19 25-7 4v-6l7-4z" fill="#7a423d"/><path d="m19 25 7 4v-6l-7-4z" fill="#66342e"/><path d="m19 33-7-4v6l7 4z" fill="#7a423d"/><path d="m19 33 7-4v6l-7 4z" fill="#66342e"/><g fill="#ceac9a"><circle cx="18" cy="46" r="3"/><path d="m36.555 53.832-1.11-1.664 3.255-2.168h-6.7v-2h10a1 1 0 0 1 .555 1.832z"/><path d="m26 38h2v2h-2z"/><path d="m24 42h2v2h-2z"/></g><path d="m22 16-3 3-3-3v-13h6z" fill="#66342e"/><path d="m18 19h2v20h-2z" fill="#301a12"/><path d="m17 56h2v2h-2z"/><path d="m11 42.808-1.929 4.821a1 1 0 0 0 -.071.371v2h2v-1.808l1.929-4.821a1 1 0 0 0 .071-.371v-4h-2z"/><path d="m22 2h-6a1 1 0 0 0 -1 1v3.27a33.165 33.165 0 0 0 -7.372 1.8 1 1 0 0 0 -.628.93v32.808l-1.929 4.821a1 1 0 0 0 -.071.371v6a1.838 1.838 0 0 0 .03.242l2 8a1 1 0 0 0 .97.758h13a1 1 0 0 0 .895-.553l1.588-3.176 9.145 3.658a1.012 1.012 0 0 0 .372.071h26a1 1 0 0 0 1-1v-10a1 1 0 0 0 -.883-.993l-16.612-1.954-11.505-13.423v-25.63a1 1 0 0 0 -.628-.929 33.165 33.165 0 0 0 -7.372-1.801v-3.27a1 1 0 0 0 -1-1zm-6.707 14.707 2.074 2.074-4.367 2.496v-8.523c.465-.121 1.157-.278 2-.419v3.665a1 1 0 0 0 .293.707zm2.707 7.713-5 2.856v-3.7l5-2.856zm0 2.3v4.554l-3.985-2.274zm2 0 3.985 2.28-3.985 2.277zm5 .553-5-2.853v-3.7l5 2.856zm-12 3.45 5 2.857v3.7l-5-2.86zm7 2.857 5-2.857v3.7l-5 2.857zm5-12.3-4.367-2.5 2.074-2.074a1 1 0 0 0 .293-.706v-3.665c.843.141 1.535.3 2 .419zm-8-17.28h4v11.586l-2 2-2-2zm41 56h-24.808l-9.82-3.929a1 1 0 0 0 -1.267.482l-1.723 3.447h-11.601l-.5-2h6.719v-2h-7.219l-.5-2h18.527l9.82 3.929a1.012 1.012 0 0 0 .372.071h22zm-29-50.3v25.3a.994.994 0 0 0 .241.65l10.585 12.35h-7.826v2h6.7l-3.252 2.168 1.11 1.664 5.694-3.8 15.748 1.858v4.11h-21.808l-9.82-3.929a1.012 1.012 0 0 0 -.372-.071h-19v-4.808l1.929-4.821a1 1 0 0 0 .071-.371v-32.3a33.2 33.2 0 0 1 6-1.41v2.017a21.781 21.781 0 0 0 -3.316.745 1 1 0 0 0 -.684.948v23a1 1 0 0 0 .5.868l7 4a1 1 0 0 0 .992 0l7-4a1 1 0 0 0 .508-.868v-23a1 1 0 0 0 -.684-.948 21.781 21.781 0 0 0 -3.316-.745v-2.017a33.4 33.4 0 0 1 6 1.41z"/><path d="m18 42a4 4 0 1 0 4 4 4 4 0 0 0 -4-4zm0 6a2 2 0 1 1 2-2 2 2 0 0 1 -2 2z"/><path d="m26 38h2v2h-2z"/><path d="m24 42h2v2h-2z"/></g></svg>