<svg height="512" viewBox="0 0 64 64" width="512" xmlns="http://www.w3.org/2000/svg"><path d="m61 33v8h-25l-12-2h-19a29.922 29.922 0 0 1 -1.99-8.79 1.477 1.477 0 0 1 -.01-.21c0-3 2-7 2-7l25 2v-6l5.07 3.51 1.67 1.16 1.28.89 1.68 1.16 3.3 2.28 14 2c2.03.23 4 .96 4 3z" fill="#ceac9a"/><path d="m16.751 31.246-8.011-.947-.74 3.701 8 1z" fill="#f4f4e6"/><path d="m36 41-12-2h-21v6h16l3-2 13 2h26v-4z" fill="#d3843d"/><path d="m11.5 21.977h2v11.045h-2z" transform="matrix(.091 -.996 .996 .091 -16.019 37.459)"/><path d="m24 23.475h2v10.05h-2z" transform="matrix(.1 -.995 .995 .1 -5.846 50.54)"/><path d="m43 28-6 5h-7l-26.99-2.79a1.477 1.477 0 0 1 -.01-.21c0-3 2-7 2-7l25 2v-6l5.07 3.51 1.67 1.16 1.28.89 1.68 1.16z" fill="#66342e"/><path d="m36.74 23.67-3.03 3.04-1.42-1.42 2.78-2.78z" fill="#ceac9a"/><path d="m39.7 25.72-3.99 3.99-1.42-1.42 3.73-3.73z" fill="#ceac9a"/><g fill="#995f5b"><path d="m45 33h2v2h-2z"/><path d="m49 33h2v2h-2z"/><path d="m53 33h2v2h-2z"/><path d="m57 33h4v2h-4z"/><path d="m43 35h-1a1 1 0 0 1 -.243-.03l-4-1 .486-1.94 3.88.97h.877z"/></g><path d="m6 42h2v3h-2z" fill="#66342e"/><path d="m10 42h2v3h-2z" fill="#66342e"/><path d="m14 42h2v3h-2z" fill="#66342e"/></svg>