<svg height="512" viewBox="0 0 64 64" width="512" xmlns="http://www.w3.org/2000/svg"><g id="Filled_outline" data-name="Filled outline"><path d="m43 28-13-9v6l-25-2s-2 4-2 7a29.557 29.557 0 0 0 2 9h19l12 2h25v-8c0-2.038-1.974-2.775-4-3z" fill="#ceac9a"/><path d="m36 41-12-2h-21v6h16l3-2 13 2h26v-4z" fill="#d3843d"/><path d="m11.5 21.977h2v11.045h-2z" transform="matrix(.091 -.996 .996 .091 -16.019 37.459)"/><path d="m24 23.475h2v10.05h-2z" transform="matrix(.1 -.995 .995 .1 -5.846 50.54)"/><path d="m30 25-25-2s-2 4-2 7c0 .068 0 .139.006.208l26.994 2.792h7l6-5-13-9z" fill="#66342e"/><path d="m16.676 31.622-8.034-.831-.642 3.209 8 1z" fill="#f4f4e6"/><path d="m32.379 23.5h4.243v2h-4.243z" fill="#ceac9a" transform="matrix(.707 -.707 .707 .707 -7.219 31.571)"/><path d="m34.172 26h5.657v2h-5.657z" fill="#ceac9a" transform="matrix(.707 -.707 .707 .707 -8.255 34.071)"/><g fill="#995f5b"><path d="m45 33h2v2h-2z"/><path d="m49 33h2v2h-2z"/><path d="m53 33h2v2h-2z"/><path d="m57 33h4v2h-4z"/><path d="m43 35h-2a1 1 0 0 1 -.243-.03l-4-1 .486-1.94 3.88.97h1.877z"/></g><path d="m6 42h2v3h-2z" fill="#66342e"/><path d="m10 42h2v3h-2z" fill="#66342e"/><path d="m14 42h2v3h-2z" fill="#66342e"/><path d="m11.5 21.977h2v11.045h-2z" transform="matrix(.091 -.996 .996 .091 -16.019 37.459)"/><path d="m24 23.475h2v10.05h-2z" transform="matrix(.1 -.995 .995 .1 -5.846 50.54)"/><path d="m57.142 29.01-13.767-1.967-12.806-8.865a1 1 0 0 0 -1.569.822v4.917l-23.92-1.917a1 1 0 0 0 -.975.55c-.085.175-2.105 4.25-2.105 7.45a27.383 27.383 0 0 0 1.574 8h-.574a1 1 0 0 0 -1 1v6a1 1 0 0 0 1 1h16a1.006 1.006 0 0 0 .555-.168l2.676-1.785 12.617 1.941a.964.964 0 0 0 .152.012h26a1 1 0 0 0 1-1v-12c0-1.289-.635-3.521-4.858-3.99zm-51.529-4.958 24.307 1.948a1 1 0 0 0 1.08-1v-4.091l3.355 2.322-2.062 2.062 1.414 1.414 2.319-2.319 1.283.889-3.016 3.016 1.414 1.414 3.273-3.273 2.37 1.64-4.712 3.926h-6.586l-26.011-2.691a19.123 19.123 0 0 1 1.572-5.257zm3.831 7.827 6.036.624-.278 1.39-6.011-.752zm-5.369-.556 3.371.349-.426 2.128a1 1 0 0 0 .856 1.188l8 1a.875.875 0 0 0 .124.012 1 1 0 0 0 .979-.8l.5-2.486 12.421 1.281c.034 0 .069.005.1.005h6.876l3.881.97a1 1 0 0 0 .243.03h2v-2h-1.877l-1.97-.493 4.147-3.454 13.59 1.941c3.11.345 3.11 1.595 3.11 2.006h-3v2h3v5h-23.917l-11.918-1.986a.919.919 0 0 0 -.165-.014h-18.306a30.513 30.513 0 0 1 -1.619-6.677zm55.925 12.677h-24.923l-12.925-1.988a1 1 0 0 0 -.707.156l-2.745 1.832h-2.7v-2h-2v2h-2v-2h-2v2h-2v-2h-2v2h-2v-4h19.917l11.918 1.986a.919.919 0 0 0 .165.014h24z"/><path d="m45 33h2v2h-2z"/><path d="m49 33h2v2h-2z"/><path d="m53 33h2v2h-2z"/></g></svg>