<svg height="512" viewBox="0 0 64 64" width="512" xmlns="http://www.w3.org/2000/svg"><path d="m10 57h14v4h-14z" fill="#7d8d9c"/><path d="m54 61h-22l-8-4h-14v-4h15l8 4h21z" fill="#394d5c"/><path d="m27 45h-17v4h16l8 4h5v-4h-4z" fill="#394d5c"/><path d="m39 49h4v8h-4z" fill="#7d8d9c"/><path d="m48 49h2a2 2 0 0 1 2 2v6a0 0 0 0 1 0 0h-4a0 0 0 0 1 0 0v-8a0 0 0 0 1 0 0z" fill="#7d8d9c"/><path d="m43 49h5v4h-5z" fill="#394d5c"/><path d="m10 37h16v4h-16z" fill="#394d5c"/><path d="m15 49h6v4h-6z" fill="#7d8d9c"/><path d="m15 41h6v4h-6z" fill="#7d8d9c"/><path d="m10 29h16v4h-16z" fill="#394d5c"/><path d="m15 33h6v4h-6z" fill="#7d8d9c"/><path d="m10 21h16v4h-16z" fill="#394d5c"/><path d="m15 25h6v4h-6z" fill="#7d8d9c"/><path d="m10 13h16v4h-16z" fill="#394d5c"/><path d="m15 17h6v4h-6z" fill="#7d8d9c"/><path d="m10 3h16v6h-16z" fill="#394d5c"/><path d="m15 9h6v4h-6z" fill="#7d8d9c"/><circle cx="18" cy="15" fill="#cfdfe8" r="2"/><circle cx="18" cy="23" fill="#cfdfe8" r="2"/><circle cx="18" cy="31" fill="#cfdfe8" r="2"/><circle cx="18" cy="39" fill="#cfdfe8" r="2"/><circle cx="18" cy="47" fill="#cfdfe8" r="2"/><g fill="#7d8d9c"><path d="m21 3h2v3h-2z"/><path d="m17 3h2v3h-2z"/><path d="m13 3h2v3h-2z"/><path d="m24 9h2v36h-2z"/><path d="m10 9h2v44h-2z"/></g></svg>