<svg height="512" viewBox="0 0 64 64" width="512" xmlns="http://www.w3.org/2000/svg"><g id="Filled_outline" data-name="Filled outline"><path d="m10 57h14v4h-14z" fill="#7d8d9c"/><path d="m54 61h-22l-8-4h-14v-4h15l8 4h21z" fill="#394d5c"/><path d="m27 45h-17v4h16l8 4h5v-4h-4z" fill="#394d5c"/><path d="m39 49h4v8h-4z" fill="#7d8d9c"/><path d="m48 49h2a2 2 0 0 1 2 2v6a0 0 0 0 1 0 0h-4a0 0 0 0 1 0 0v-8a0 0 0 0 1 0 0z" fill="#7d8d9c"/><path d="m43 49h5v4h-5z" fill="#394d5c"/><path d="m10 37h16v4h-16z" fill="#394d5c"/><path d="m15 49h6v4h-6z" fill="#7d8d9c"/><path d="m15 41h6v4h-6z" fill="#7d8d9c"/><path d="m10 29h16v4h-16z" fill="#394d5c"/><path d="m15 33h6v4h-6z" fill="#7d8d9c"/><path d="m10 21h16v4h-16z" fill="#394d5c"/><path d="m15 25h6v4h-6z" fill="#7d8d9c"/><path d="m10 13h16v4h-16z" fill="#394d5c"/><path d="m15 17h6v4h-6z" fill="#7d8d9c"/><path d="m10 3h16v6h-16z" fill="#394d5c"/><path d="m15 9h6v4h-6z" fill="#7d8d9c"/><circle cx="18" cy="15" fill="#cfdfe8" r="2"/><circle cx="18" cy="23" fill="#cfdfe8" r="2"/><circle cx="18" cy="31" fill="#cfdfe8" r="2"/><circle cx="18" cy="39" fill="#cfdfe8" r="2"/><circle cx="18" cy="47" fill="#cfdfe8" r="2"/><g fill="#7d8d9c"><path d="m21 3h2v3h-2z"/><path d="m17 3h2v3h-2z"/><path d="m13 3h2v3h-2z"/><path d="m25 9h2v36h-2z"/><path d="m9 9h2v44h-2z"/></g><path d="m27 3a1 1 0 0 0 -1-1h-16a1 1 0 0 0 -1 1v58a1 1 0 0 0 1 1h14a1 1 0 0 0 1-1v-2.382l6.553 3.282a1 1 0 0 0 .447.1h22a1 1 0 0 0 1-1v-4a1 1 0 0 0 -1-1h-1v-5a3 3 0 0 0 -3-3h-14.764l-7.789-3.9a1 1 0 0 0 -.447-.1zm-8 44a1 1 0 1 1 -1-1 1 1 0 0 1 1 1zm6.764 3 7.789 3.9a1 1 0 0 0 .447.1h4v2h-4.764l-7.789-3.9a1 1 0 0 0 -.447-.1h-3v-2zm-5.764 2h-4v-2h4zm-9 0v-2h3v2zm14-42v2h-3v-2zm-6 29a1 1 0 1 1 -1-1 1 1 0 0 1 1 1zm-8 9v-2h4.184a2.809 2.809 0 0 0 0 2zm0-4v-2h3v2zm0-4v-2h4.184a2.809 2.809 0 0 0 0 2zm0-26h4.184a2.809 2.809 0 0 0 0 2h-4.184zm14 0v2h-4.184a2.809 2.809 0 0 0 0-2zm-8 17a1 1 0 1 1 1 1 1 1 0 0 1 -1-1zm0-8a1 1 0 1 1 1 1 1 1 0 0 1 -1-1zm-1-5h4v2h-4zm0 8h4v2h-4zm4.816 6a2.809 2.809 0 0 0 0-2h4.184v2zm1.184-4v-2h3v2zm3-4h-4.184a2.809 2.809 0 0 0 0-2h4.184zm-3-4v-2h3v2zm-3-5a1 1 0 1 1 -1-1 1 1 0 0 1 1 1zm-5 3v2h-3v-2zm-3 4h4.184a2.809 2.809 0 0 0 0 2h-4.184zm3 4v2h-3v-2zm-3 4h4.184a2.809 2.809 0 0 0 0 2h-4.184zm3 4v2h-3v-2zm2 2v-2h4v2zm6-2h3v2h-3zm-2-22h-4v-2h4zm-6 0h-3v-2h3zm6 32h-4v-2h4zm.816-4a2.809 2.809 0 0 0 0-2h4.184v2zm-9.816-36h2v2h2v-2h2v2h2v-2h2v2h2v-2h2v4h-14zm12 56h-12v-2h12zm30 0h-20.764l-7.789-3.9c-.008 0-.019 0-.027-.006a.99.99 0 0 0 -.42-.094h-13v-2h13.764l7.789 3.9a1 1 0 0 0 .447.1h20zm-9-6h3v2h-3zm7-3v5h-2v-6h1a1 1 0 0 1 1 1zm-4 1h-3v-2h3zm-5 4h-2v-6h2zm-7.447-6.1a1 1 0 0 0 .447.1h3v2h-3.764l-7.789-3.9a1 1 0 0 0 -.447-.1h-5.184a2.809 2.809 0 0 0 0-2h5.948zm-12.553-5.9v-2h3v2z"/></g></svg>