<svg height="512" viewBox="0 0 64 64" width="512" xmlns="http://www.w3.org/2000/svg"><path d="m15 42c-.16-.54.79-1.83 1.67-3.15a15.058 15.058 0 0 0 1.02-1.75 2.8 2.8 0 0 0 .31-1.1 72.241 72.241 0 0 0 -.39-7.66c-.09-.91-.2-1.78-.33-2.62-1.15-7.99-3.3-13.22-3.3-22.72h22.02v42s3.72 10 10.01 10c7.99 0 3.99 6 .99 6h-13s-3.36-4.38-5-7c-3.36-5.37-7-7-7-7z" fill="#e1462b"/><path d="m15 42c2.021 6.737 3 19 3 19h4v-14z" fill="#394d5c"/><circle cx="20" cy="9" fill="#fcf05a" r="2"/><path d="m25 6h2v2h-2z" fill="#b53524"/><path d="m29 6h2v2h-2z" fill="#b53524"/><g fill="#f9a69b"><path d="m28.26 31.04-.55 1.92a38.954 38.954 0 0 1 -10.1-4.62c-.09-.91-.2-1.78-.33-2.62a37.6 37.6 0 0 0 10.98 5.32z"/><path d="m26.43 43.11-.9 1.78a60.445 60.445 0 0 1 -8.86-6.04 15.058 15.058 0 0 0 1.02-1.75 61.118 61.118 0 0 0 8.74 6.01z"/><path d="m36 42.3v2.48a91.776 91.776 0 0 1 -8.73-7.07l1.42-1.42a79.559 79.559 0 0 0 7.31 6.01z"/></g><path d="m30 46h2v2h-2z" fill="#fcf05a"/><path d="m33 50h2v2h-2z" fill="#fcf05a"/><path d="m33 6h3v2h-3z" fill="#b53524"/></svg>