<svg height="512" viewBox="0 0 64 64" width="512" xmlns="http://www.w3.org/2000/svg"><g id="Filled_outline" data-name="Filled outline"><path d="m47 61h-13s-3.363-4.381-5-7c-3.357-5.371-7-7-7-7v14h-4s-.979-12.263-3-19c-.292-.974 3-4.338 3-6 0-15-4.018-20-4.018-33h22.018v42s3.719 10 10.01 10c7.99 0 3.99 6 .99 6z" fill="#e1462b"/><path d="m15 42c2.021 6.737 3 19 3 19h4v-14z" fill="#394d5c"/><circle cx="20" cy="9" fill="#fcf05a" r="2"/><path d="m25 6h2v2h-2z" fill="#b53524"/><path d="m29 6h2v2h-2z" fill="#b53524"/><path d="m30 46h2v2h-2z" fill="#fcf05a"/><path d="m33 50h2v2h-2z" fill="#fcf05a"/><path d="m33 6h3v2h-3z" fill="#b53524"/><path d="m50.181 54.877a8.158 8.158 0 0 0 -4.171-.877c-5.11 0-8.51-7.952-9.01-9.189v-41.811a1 1 0 0 0 -1-1h-22.019a1 1 0 0 0 -1 1 67.669 67.669 0 0 0 1.919 15.449 76.078 76.078 0 0 1 2.1 17.551 9.248 9.248 0 0 1 -1.537 2.845c-1.022 1.519-1.7 2.522-1.421 3.443 1.968 6.555 2.951 18.67 2.958 18.792a1 1 0 0 0 1 .92h4a1 1 0 0 0 1-1v-12.2a20.486 20.486 0 0 1 5.152 5.733c1.643 2.629 4.916 6.9 5.055 7.079a1 1 0 0 0 .793.388h13a5.172 5.172 0 0 0 4.7-4.57 2.934 2.934 0 0 0 -1.519-2.553zm-31.263 5.123a134.211 134.211 0 0 0 -2.261-15.588l4.343 3.103v12.485zm28.082 0h-12.505c-.854-1.127-3.336-4.432-4.647-6.53-3.213-5.14-6.694-7.019-7.335-7.332l-6.4-4.569a18.7 18.7 0 0 1 1.005-1.608c.347-.516.7-1.039 1-1.553a64.182 64.182 0 0 0 9.416 6.492l.895-1.79a66.062 66.062 0 0 1 -9.484-6.61 2.538 2.538 0 0 0 .055-.5 73.55 73.55 0 0 0 -.381-7.645 39.312 39.312 0 0 0 10.088 4.606l.549-1.922a37.466 37.466 0 0 1 -10.956-5.309c-.4-2.8-.921-5.272-1.435-7.7a67.466 67.466 0 0 1 -1.876-14.03h20.011v2h-2v2h2v35.036a89.049 89.049 0 0 1 -8.312-6.743l-1.414 1.414a103.672 103.672 0 0 0 9.9 7.933c.698 1.73 4.487 10.36 10.836 10.36a6.145 6.145 0 0 1 3.134.587.928.928 0 0 1 .556.843 3.194 3.194 0 0 1 -2.7 2.57z"/><path d="m20 6a3 3 0 1 0 3 3 3 3 0 0 0 -3-3zm0 4a1 1 0 1 1 1-1 1 1 0 0 1 -1 1z"/><path d="m25 6h2v2h-2z"/><path d="m29 6h2v2h-2z"/><path d="m30 46h2v2h-2z"/><path d="m33 50h2v2h-2z"/></g></svg>