<svg height="512" viewBox="0 0 64 64" width="512" xmlns="http://www.w3.org/2000/svg"><g id="Filled_outline" data-name="Filled outline"><path d="m58 56h-23s-5-4-10-15c-2.733-6.013-5.57-9.2-7-10 0 0-1.093.28-2 3-2 6-2 22-2 22h-4a131.469 131.469 0 0 0 -5-26c-4-13 0-18 5-22h6s17 24 25 33c2.9 3.263 8 5 16 7 7.822 1.955 1 8 1 8z" fill="#2d75bb"/><path d="m23.252 31.625a30.793 30.793 0 0 0 -12.588-8.683l.672-1.884a32.82 32.82 0 0 1 13.412 9.242z" fill="#f4f4e6"/><path d="m8 22h-2a12.711 12.711 0 0 1 5.485-10.857 1 1 0 0 1 .515-.143h3v2h-2.7a10.847 10.847 0 0 0 -4.3 9z" fill="#f4f4e6"/><path d="m18 31s-6.842-5.121-14.2-5.894a40.8 40.8 0 0 0 1.2 4.894 131.469 131.469 0 0 1 5 26h4s0-16 2-22c.907-2.72 2-3 2-3z" fill="#87cee9"/><path d="m60.668 52h-29.268a24.681 24.681 0 0 0 3.6 4h23a9.5 9.5 0 0 0 2.668-4z" fill="#87cee9"/><path d="m9.588 52c.305 2.5.412 4 .412 4h4s0-1.612.064-4z" fill="#32b1cc"/><path d="m25 31.657h2v3.606h-2z" fill="#f4f4e6" transform="matrix(.832 -.555 .555 .832 -14.194 20.042)"/><path d="m10.664 22.942a30.793 30.793 0 0 1 12.588 8.683l1.5-1.33a32.82 32.82 0 0 0 -13.412-9.237z"/><path d="m8 22a10.847 10.847 0 0 1 4.3-9h2.7v-2h-3a1 1 0 0 0 -.515.143 12.711 12.711 0 0 0 -5.485 10.857z"/><path d="m9 56.071a1 1 0 0 0 1 .929h4a1 1 0 0 0 1-1c0-.158.023-15.906 1.949-21.684a6.265 6.265 0 0 1 1.059-2.1c1.365 1.1 3.771 4.113 6.082 9.2 5.041 11.09 10.074 15.2 10.285 15.367a1 1 0 0 0 .625.217h23a1 1 0 0 0 .663-.251c.382-.339 3.711-3.391 2.992-6.326-.4-1.619-1.881-2.76-4.412-3.393-7.959-1.99-12.785-3.646-15.5-6.695-7.868-8.855-24.757-32.673-24.927-32.913a1 1 0 0 0 -.816-.422h-6a1 1 0 0 0 -.625.219c-4.826 3.861-9.616 9.147-5.331 23.075a131.5 131.5 0 0 1 4.956 25.777zm1.917-1.071c-.045-.488-.116-1.176-.209-2h2.33c-.017.8-.027 1.493-.032 2zm2.173-4h-2.626a132.539 132.539 0 0 0 -4.508-21.294c-.374-1.215-.655-2.334-.89-3.407a32.834 32.834 0 0 1 11.294 4.789 8.431 8.431 0 0 0 -1.309 2.6c-1.329 3.983-1.796 12.043-1.961 17.312zm44.51 4h-22.224a22.8 22.8 0 0 1 -1.891-2h25.691a10.4 10.4 0 0 1 -1.576 2zm-47.247-46h5.131c2.316 3.254 17.408 24.384 24.768 32.665 3.056 3.436 8.158 5.218 16.5 7.305 1.206.3 2.7.881 2.955 1.926.008.033 0 .07.008.1h-27.815a57.468 57.468 0 0 1 -5.99-10.41c-2.8-6.15-5.679-9.43-7.342-10.409-.457-.34-6.768-4.934-13.89-5.957-1.278-8.457 1.993-12.226 5.675-15.22z"/><path d="m25 31.657h2v3.606h-2z" transform="matrix(.832 -.555 .555 .832 -14.194 20.042)"/></g></svg>