<svg height="512" viewBox="0 0 64 64" width="512" xmlns="http://www.w3.org/2000/svg"><path d="m60.67 52a9.5 9.5 0 0 1 -2.67 4h-23a23.708 23.708 0 0 1 -3.6-4 57.372 57.372 0 0 1 -6.4-11 30.781 30.781 0 0 0 -5.68-8.93 6.151 6.151 0 0 0 -1.32-1.07s-1.09.28-2 3c-1.37 4.1-1.8 12.85-1.94 18-.06 2.39-.06 4-.06 4h-4s-.1-1.49-.41-4a131.24 131.24 0 0 0 -4.59-22 40.519 40.519 0 0 1 -1.11-4.4 26.95 26.95 0 0 1 -.49-3.8c-.38-7.19 2.82-10.78 6.6-13.8h6s17 24 25 33c2.9 3.26 8 5 16 7 3.37.84 4.02 2.45 3.67 4z" fill="#2d75bb"/><path d="m18 31s-1.09.28-2 3c-1.37 4.1-1.8 12.85-1.94 18-.06 2.39-.06 4-.06 4h-4s-.1-1.49-.41-4a131.24 131.24 0 0 0 -4.59-22 40.519 40.519 0 0 1 -1.11-4.4 26.95 26.95 0 0 1 -.49-3.8z" fill="#87cee9"/><path d="m23.252 31.625a30.793 30.793 0 0 0 -12.588-8.683l.672-1.884a32.82 32.82 0 0 1 13.412 9.242z" fill="#f4f4e6"/><path d="m8 22h-2a12.711 12.711 0 0 1 5.485-10.857 1 1 0 0 1 .515-.143h3v2h-2.7a10.847 10.847 0 0 0 -4.3 9z" fill="#f4f4e6"/><path d="m60.67 52a9.5 9.5 0 0 1 -2.67 4h-23a23.708 23.708 0 0 1 -3.6-4z" fill="#87cee9"/><path d="m14.06 52c-.06 2.39-.06 4-.06 4h-4s-.1-1.49-.41-4z" fill="#32b1cc"/><path d="m25 31.657h2v3.606h-2z" fill="#f4f4e6" transform="matrix(.832 -.555 .555 .832 -14.194 20.042)"/></svg>