<svg height="512" viewBox="0 0 64 64" width="512" xmlns="http://www.w3.org/2000/svg"><g id="Filled_outline" data-name="Filled outline"><path d="m55 41s-17-2-21-4-7-5-7-10v-14h-22v14l-2 6v16h58c0-3.594-1.344-7.031-6-8z" fill="#dd3e46"/><path d="m3 49h58v8h-58z" fill="#d8d8ca"/><path d="m41 49h20v8h-20z" fill="#b7b6a7"/><g fill="#5a6470"><path d="m3 52h27v2h-27z"/><path d="m32 52h9v2h-9z"/><path d="m48 52h2v2h-2z"/><path d="m44 52h2v2h-2z"/><path d="m52 52h2v2h-2z"/><path d="m56 52h2v2h-2z"/></g><circle cx="14" cy="26" fill="#f4f4e6" r="5"/><path d="m55 41s-4.25-.5-9-1.25v9.25h15c0-3.594-1.344-7.031-6-8z" fill="#f4f4e6"/><path d="m5 16h8v2h-8z" fill="#9e2d38"/><path d="m15 16h2v2h-2z" fill="#9e2d38"/><path d="m12 46h-5a1 1 0 0 1 -1-1v-7h2v6h4z" fill="#9e2d38"/><circle cx="17" cy="43" fill="#9e2d38" r="2"/><circle cx="23" cy="43" fill="#9e2d38" r="2"/><path d="m25 13v-6s-8 2-8 6z" fill="#ba3643"/><path d="m48 52h2v2h-2z"/><path d="m44 52h2v2h-2z"/><path d="m52 52h2v2h-2z"/><path d="m56 52h2v2h-2z"/><path d="m14 32a6 6 0 1 0 -6-6 6.006 6.006 0 0 0 6 6zm0-10a4 4 0 1 1 -4 4 4 4 0 0 1 4-4z"/><path d="m55.2 40.021a.874.874 0 0 0 -.087-.014c-5.82-.685-17.63-2.382-20.67-3.9-4.394-2.201-6.443-5.094-6.443-9.107v-14a1 1 0 0 0 -1-1h-1v-5a1 1 0 0 0 -1.242-.97c-.829.207-7.6 2.023-8.619 5.97h-11.139a1 1 0 0 0 -1 1v13.838l-1.948 5.846a1 1 0 0 0 -.052.316v24a1 1 0 0 0 1 1h58a1 1 0 0 0 1-1v-8c0-4.949-2.351-8.054-6.8-8.979zm-31.2-31.678v3.657h-5.74c.877-1.687 3.78-2.993 5.74-3.657zm-20 24.819 1.948-5.846a1 1 0 0 0 .052-.316v-9h7v-2h-7v-2h20v2h-4v2h4v2h-4v2h4v2h-4v2h4v1c0 .34.016.672.041 1h-4.041v2h4.372a10.372 10.372 0 0 0 .465 1.388l-4.208 1.683.742 1.858 4.418-1.767a11.063 11.063 0 0 0 1.119 1.407l-3.508 2.631 1.2 1.6 3.817-2.863a17.011 17.011 0 0 0 1.931 1.3l-3.055 3.055 1.414 1.414 3.521-3.52a22.273 22.273 0 0 0 2.328.729l-1.485 3.712 1.858.744 1.592-3.982c.73.162 1.5.319 2.287.472l-.788 3.939 1.96.392.8-3.97c.74.131 1.486.256 2.225.377v7.401h-41.005zm0 20.838h26v-2h-26v-2h36v2h-8v2h8v2h-36zm56 2h-18v-6h18zm-13-8v-7.082c3.96.605 7.324 1.009 7.838 1.07 3.172.674 4.854 2.645 5.124 6.012z"/><path d="m15 16h2v2h-2z"/><path d="m8 38h-2v7a1 1 0 0 0 1 1h5v-2h-4z"/><path d="m17 40a3 3 0 1 0 3 3 3 3 0 0 0 -3-3zm0 4a1 1 0 1 1 1-1 1 1 0 0 1 -1 1z"/><path d="m23 40a3 3 0 1 0 3 3 3 3 0 0 0 -3-3zm0 4a1 1 0 1 1 1-1 1 1 0 0 1 -1 1z"/></g></svg>