<svg height="512" viewBox="0 0 64 64" width="512" xmlns="http://www.w3.org/2000/svg"><path d="m61 49h-58v-16l2-6v-14h22v14c0 .34.01.68.04 1a9.581 9.581 0 0 0 .38 2 5.491 5.491 0 0 0 .36 1.01v.01a8.625 8.625 0 0 0 .98 1.76 8.331 8.331 0 0 0 .97 1.18 11.689 11.689 0 0 0 1.52 1.36 14.311 14.311 0 0 0 1.83 1.18c.3.18.61.34.92.5a7.8 7.8 0 0 0 1.01.41c.55.2 1.19.39 1.92.58.61.15 1.27.31 1.97.46.67.15 1.38.3 2.11.43.64.13 1.3.25 1.96.36 1.01.18 2.03.35 3.03.51 4.75.75 9 1.25 9 1.25a7.019 7.019 0 0 1 4.75 3.02 9.213 9.213 0 0 1 1.25 4.98z" fill="#dd3e46"/><path d="m3 49h58v8h-58z" fill="#d8d8ca"/><path d="m41 49h20v8h-20z" fill="#b7b6a7"/><path d="m3 52h27v2h-27z" fill="#5a6470"/><path d="m32 52h9v2h-9z" fill="#5a6470"/><path d="m48 52h2v2h-2z" fill="#5a6470"/><path d="m44 52h2v2h-2z" fill="#5a6470"/><path d="m52 52h2v2h-2z" fill="#5a6470"/><path d="m56 52h2v2h-2z" fill="#5a6470"/><g fill="#f4f4e6"><circle cx="14" cy="26" r="5"/><path d="m22 16h5v2h-5z"/><path d="m22 20h5v2h-5z"/><path d="m22 24h5v2h-5z"/><path d="m27.42 30h-5.42v-2h5.04a9.581 9.581 0 0 0 .38 2z"/><path d="m28.76 32.78-5.39 2.15-.74-1.86 5.15-2.05a8.625 8.625 0 0 0 .98 1.76z"/><path d="m31.25 35.32-4.65 3.48-1.2-1.6 4.33-3.24a11.689 11.689 0 0 0 1.52 1.36z"/><path d="m35.01 37.41-4.3 4.3-1.42-1.42 3.79-3.79c.3.18.61.34.92.5a7.8 7.8 0 0 0 1.01.41z"/><path d="m38.9 38.45-1.97 4.92-1.86-.74 1.86-4.64c.61.15 1.27.31 1.97.46z"/><path d="m42.97 39.24-.99 4.96-1.96-.4.99-4.92c.64.13 1.3.25 1.96.36z"/><path d="m61 49h-15v-9.25c4.75.75 9 1.25 9 1.25a7.019 7.019 0 0 1 4.75 3.02 9.213 9.213 0 0 1 1.25 4.98z"/></g><path d="m5 16h8v2h-8z" fill="#9e2d38"/><path d="m15 16h2v2h-2z" fill="#9e2d38"/><path d="m12 46h-5a1 1 0 0 1 -1-1v-7h2v6h4z" fill="#9e2d38"/><circle cx="17" cy="43" fill="#9e2d38" r="2"/><circle cx="23" cy="43" fill="#9e2d38" r="2"/><path d="m25 13v-6s-8 2-8 6z" fill="#ba3643"/></svg>