<svg height="512" viewBox="0 0 64 64" width="512" xmlns="http://www.w3.org/2000/svg"><g id="Filled_outline" data-name="Filled outline"><path d="m58.363 46h-24.219s-6 0-9-4c-3.842-5.122-9-9-10.166-2l-1.007 6h-3.825s-1.25-5.813-4-9c-3.871-4.487-4-15 0-19h6s21.132 15.323 27 17c7 2 9.927 2 18 4 7.893 1.955 1.217 7 1.217 7z" fill="#7d8d9c"/><path d="m35.83 38.948c-5.761-1.92-22.73-14.182-25.156-15.948h-2.154c-.264.4-1.075 2.019-.383 6.858l-1.981.284c-1.022-7.158.923-8.726 1.543-9.037a1 1 0 0 1 .447-.105h2.854a1 1 0 0 1 .59.192c.19.14 19.089 13.931 24.873 15.86z" fill="#f4f4e6"/><path d="m45.265 36.508-7.119 9.492h14l-1.4-8.423c-1.966-.388-3.672-.693-5.481-1.069z" fill="#cfdfe8"/><circle cx="49" cy="34" fill="#f98c96" r="3"/><path d="m8.921 42a30.367 30.367 0 0 1 1.225 4h3.827l.671-4z" fill="#cfdfe8"/><path d="m7 32h2v2h-2z" fill="#f4f4e6"/><path d="m11.59 21.192a1 1 0 0 0 -.59-.192h-2.854a1 1 0 0 0 -.447.105c-.62.311-2.565 1.879-1.543 9.037l1.981-.284c-.692-4.839.119-6.458.383-6.858h2.154c2.428 1.766 19.4 14.028 25.156 15.948l.633-1.9c-5.784-1.925-24.683-15.716-24.873-15.856z"/><path d="m61.938 41.424c-.325-1.585-1.856-2.727-4.551-3.395-2.139-.53-3.93-.921-5.523-1.246a4 4 0 1 0 -6.564-1.289c-1.744-.365-3.578-.8-5.875-1.456-5.638-1.609-26.482-16.695-26.692-16.848a1 1 0 0 0 -.587-.19h-6a1 1 0 0 0 -.707.293c-4.331 4.331-4.358 15.367-.049 20.36 2.547 2.952 3.767 8.5 3.779 8.558a1 1 0 0 0 .977.789h3.827a1 1 0 0 0 .986-.835l1.007-6c.165-.99.589-2.688 1.568-2.928 1.408-.33 4.148 1.811 6.813 5.364 3.262 4.35 9.532 4.4 9.8 4.4h24.216a1 1 0 0 0 .6-.2c.364-.276 3.515-2.744 2.975-5.377zm-12.068-3 1.096 6.576h-10.82l5.539-7.385c.872.176 3.644.705 4.185.81zm-.87-6.424a2 2 0 1 1 -2 2 2 2 0 0 1 2-2zm-38.067 13c-.13-.5-.327-1.2-.593-2h3.122l-.335 2zm15.013-3.6c-1.8-2.4-5.122-6.2-8.106-6.2a3.242 3.242 0 0 0 -.779.092c-1.6.39-2.63 1.918-3.068 4.542l-.193 1.166h-4.2a17.4 17.4 0 0 0 -2.7-4.653c-3.5-4.063-3.62-13.547-.319-17.347h5.242c2.57 1.855 21.37 15.339 27.049 16.962 1.755.5 3.262.877 4.659 1.193l-5.884 7.845h-3.5c-.056 0-5.547-.059-8.201-3.6zm32.066 3.6h-5.019l-1.026-6.155c1.443.3 3.039.655 4.939 1.126 1.828.453 2.919 1.111 3.073 1.853.207 1-1.107 2.447-1.967 3.176z"/><path d="m7 32h2v2h-2z"/></g></svg>