<svg height="512" viewBox="0 0 64 64" width="512" xmlns="http://www.w3.org/2000/svg"><path d="m58.36 46h-24.22s-5.99 0-8.99-4c-3.85-5.12-9-9-10.17-2l-.34 2-.67 4h-3.82a29.285 29.285 0 0 0 -1.23-4 17.5 17.5 0 0 0 -2.77-5c-3.87-4.49-4-15 0-19h6s21.13 15.32 27 17c2.39.68 4.3 1.13 6.11 1.51s3.51.68 5.47 1.07c1.82.35 3.86.79 6.42 1.42 7.89 1.96 1.21 7 1.21 7z" fill="#7d8d9c"/><path d="m35.83 38.948c-5.761-1.92-22.73-14.182-25.156-15.948h-2.154c-.264.4-1.075 2.019-.383 6.858l-1.981.284c-1.022-7.158.923-8.726 1.543-9.037a1 1 0 0 1 .447-.105h2.854a1 1 0 0 1 .59.192c.19.14 19.089 13.931 24.873 15.86z" fill="#f4f4e6"/><path d="m52.15 46h-14l7.11-9.49c1.81.37 3.51.68 5.47 1.07z" fill="#cfdfe8"/><circle cx="48" cy="35" fill="#f98c96" r="3"/><path d="m14.64 42-.67 4h-3.82a29.285 29.285 0 0 0 -1.23-4z" fill="#cfdfe8"/><path d="m7 32h2v2h-2z" fill="#f4f4e6"/></svg>