<svg height="512" viewBox="0 0 64 64" width="512" xmlns="http://www.w3.org/2000/svg"><path d="m2.758 26c2.152 13.757 4.242 31 4.242 31h9l2-24z" fill="#ad6327"/><path d="m6.5 53c.317 2.492.5 4 .5 4h9l.333-4z" fill="#66342e"/><path d="m9 48h2v2h-2z" fill="#f4f4e6"/><path d="m7.5 26.882h1.999v19.235h-1.999z" fill="#f4f4e6" transform="matrix(.988 -.156 .156 .988 -5.589 1.772)"/><path d="m44 57h14s8-17-3-17a14.215 14.215 0 0 1 -10-3.745z" fill="#7d8d9c"/><path d="m45 36.25v20.75h-4a4.765 4.765 0 0 1 -4-2c-1.37-1.84-3.88-5-7-10-6.4-10.25-12-12-12-12l-15.24-7c-.77-9.28 4.24-11.51 4.24-19h23s.42 1.2 1.04 2.96c.2.58.42 1.22.66 1.9.67 1.9 1.46 4.11 2.19 6.12.24.66.47 1.29.69 1.88.14.4.29.78.42 1.14.38 1.02.95 2.41 1.7 3.99.28.58.58 1.19.91 1.81a37.01 37.01 0 0 0 3.25 5.1q.585.8 1.26 1.56a23.731 23.731 0 0 0 2.88 2.79z" fill="#394d5c"/><path d="m8 24h-2v-4a1 1 0 0 1 .071-.371l4-10 1.858.742-3.929 9.821z" fill="#f4f4e6"/><path d="m31.7 11.86-4.46 1.11-1.06-1.8 4.86-1.21c.2.58.42 1.22.66 1.9z" fill="#7d8d9c"/><path d="m34.58 19.86-4.01 1.34-1.02-1.77 4.34-1.45c.24.66.47 1.29.69 1.88z" fill="#7d8d9c"/><path d="m37.61 26.8-4.16 2.77-.84-1.84 4.09-2.74c.28.58.58 1.19.91 1.81z" fill="#7d8d9c"/><path d="m42.12 33.46-3.57 2.37-1.1-1.66 3.41-2.27q.585.8 1.26 1.56z" fill="#7d8d9c"/><path d="m56.9 49.447-1.79-.894c1.025-2.048.807-2.8.666-3.028-.214-.338-.843-.525-1.776-.525a9.732 9.732 0 0 1 -6.707-2.293l1.408-1.42a7.8 7.8 0 0 0 5.299 1.713c1.7 0 2.868.5 3.473 1.474.71 1.149.52 2.775-.573 4.973z" fill="#f4f4e6"/><path d="m14 10h2v2h-2z" fill="#fcf05a"/><path d="m18 10h2v2h-2z" fill="#fcf05a"/><g fill="#ad6327"><circle cx="27" cy="12" r="2"/><circle cx="29" cy="21" r="2"/><circle cx="32" cy="29" r="2"/><circle cx="37" cy="36" r="2"/></g></svg>