<svg height="512" viewBox="0 0 64 64" width="512" xmlns="http://www.w3.org/2000/svg"><g id="Filled_outline" data-name="Filled outline"><path d="m58 57h-17a4.748 4.748 0 0 1 -4-2c-1.37-1.839-3.877-5-7-10-6.4-10.246-12-12-12-12l-2 24h-9s-1.848-15.239-4-29c-1.72-11 4-13 4-21h23s3.147 9.082 5 14c1.874 4.974 8 19 20 19 11 0 3 17 3 17z" fill="#7d8d9c"/><path d="m35 21c-1.853-4.918-5-14-5-14h-23c0 8-5.72 10-4 21 2.152 13.761 4 29 4 29h9l2-24s5.6 1.754 12 12c3.123 5 5.63 8.161 7 10a4.748 4.748 0 0 0 4 2h4v-20.745c-5.57-4.518-8.743-11.92-10-15.255z" fill="#394d5c"/><path d="m3 28c2.152 13.761 4 29 4 29h9l2-24a49.5 49.5 0 0 0 -15.22-6.809c.052.578.12 1.175.22 1.809z" fill="#ad6327"/><g fill="#7d8d9c"><path d="m26.938 10.5h4.123v1.999h-4.123z" transform="matrix(.97 -.242 .242 .97 -1.922 7.37)"/><path d="m30.919 18.5h3.162v1.999h-3.162z" transform="matrix(.949 -.317 .317 .949 -4.501 11.29)"/><path d="m33.697 26h3.606v2h-3.606z" transform="matrix(.832 -.555 .555 .832 -9.015 24.226)"/><path d="m37.697 33h3.606v2h-3.606z" transform="matrix(.832 -.555 .555 .832 -12.226 27.621)"/></g><path d="m6.5 53c.317 2.492.5 4 .5 4h9l.333-4z" fill="#66342e"/><path d="m8 24h-2v-4a1 1 0 0 1 .071-.371l4-10 1.858.742-3.929 9.821z" fill="#f4f4e6"/><path d="m9 48h2v2h-2z" fill="#f4f4e6"/><path d="m7.5 26.882h1.999v19.235h-1.999z" fill="#f4f4e6" transform="matrix(.988 -.156 .156 .988 -5.589 1.772)"/><path d="m56.9 49.447-1.79-.894c1.025-2.048.807-2.8.666-3.028-.214-.338-.843-.525-1.776-.525a9.732 9.732 0 0 1 -6.707-2.293l1.408-1.42a7.8 7.8 0 0 0 5.299 1.713c1.7 0 2.868.5 3.473 1.474.71 1.149.52 2.775-.573 4.973z" fill="#f4f4e6"/><path d="m14 10h2v2h-2z" fill="#fcf05a"/><path d="m18 10h2v2h-2z" fill="#fcf05a"/><circle cx="26" cy="13" fill="#ad6327" r="2"/><circle cx="29" cy="21" fill="#ad6327" r="2"/><circle cx="32" cy="29" fill="#ad6327" r="2"/><circle cx="37" cy="36" fill="#ad6327" r="2"/><path d="m6.007 57.12a1 1 0 0 0 .993.88h9a1 1 0 0 0 1-.917l1.88-22.558c1.908 1.087 5.9 4 10.276 11.005 2.68 4.288 4.9 7.22 6.363 9.159l.683.909a5.712 5.712 0 0 0 4.798 2.402h17a1 1 0 0 0 .905-.574c.2-.436 4.985-10.728 1.8-15.741-1.128-1.785-3.048-2.685-5.705-2.685-10.965 0-16.985-12.835-19.064-18.353-1.828-4.847-4.959-13.883-4.991-13.974a1 1 0 0 0 -.945-.673h-23a1 1 0 0 0 -1 1 17.473 17.473 0 0 1 -1.989 7.662 21.123 21.123 0 0 0 -2 13.492c2.126 13.586 3.978 28.814 3.996 28.966zm1.878-1.12c-.06-.484-.146-1.171-.251-2h7.613l-.167 2zm7.528-4h-8.033c-.721-5.623-3.419-24.359-3.434-24.464.768.219 1.512.458 2.239.709l2.828 17.911 1.974-.312-2.653-16.804a50.328 50.328 0 0 1 8.621 4.46zm43.606-9.245c2.016 3.177-.319 10.157-1.665 13.245h-11.354v-17.794a16.051 16.051 0 0 0 9 2.794c1.954 0 3.269.574 4.019 1.755zm-53.179-27.283a20.275 20.275 0 0 0 2.131-7.472h21.318c.176.506.445 1.278.77 2.205l-2.115.529a2.974 2.974 0 0 0 -1.944-.734 3.079 3.079 0 1 0 2.954 2.542l1.771-.443c.678 1.924 1.474 4.163 2.214 6.2l-1.8.6a3 3 0 1 0 .861 2.101c0-.093-.019-.18-.027-.271l1.654-.551c.151.41.3.807.437 1.175.435 1.153 1.035 2.608 1.806 4.2l-1.858 1.237a3.2 3.2 0 1 0 .944 1.775l1.832-1.222a39.05 39.05 0 0 0 3.25 5.1l-1.5 1a2.96 2.96 0 0 0 -1.538-.443 3.041 3.041 0 1 0 2.814 1.993l1.486-.993a25.436 25.436 0 0 0 2.7 2.687v19.313h-3a3.752 3.752 0 0 1 -3.2-1.6l-.692-.919c-1.445-1.911-3.63-4.8-6.262-9.013-6.015-9.623-11.386-11.992-12.382-12.364a50.463 50.463 0 0 0 -14.746-6.7 18.876 18.876 0 0 1 2.122-9.932zm21.16-2.472a1 1 0 1 1 -1-1 1 1 0 0 1 1 1zm3 8a1 1 0 1 1 -1-1 1 1 0 0 1 1 1zm3 8a1 1 0 1 1 -1-1 1 1 0 0 1 1 1zm5 7a1 1 0 1 1 -1-1 1 1 0 0 1 1 1z"/><path d="m8 20.192 3.929-9.821-1.858-.742-4 10a1 1 0 0 0 -.071.371v4h2z"/><path d="m9 48h2v2h-2z"/><path d="m54 45c.933 0 1.562.187 1.771.525.141.229.359.98-.666 3.028l1.79.894c1.1-2.2 1.288-3.824.578-4.973-.605-.974-1.773-1.474-3.473-1.474a7.8 7.8 0 0 1 -5.3-1.713l-1.408 1.42a9.732 9.732 0 0 0 6.708 2.293z"/><path d="m14 10h2v2h-2z"/><path d="m18 10h2v2h-2z"/></g></svg>