<svg height="512" viewBox="0 0 64 64" width="512" xmlns="http://www.w3.org/2000/svg"><g id="Filled_outline" data-name="Filled outline"><path d="m61 42s-11 3-19 3h-4v-2l-3 2h-3v-2l-4 2h-3v-2l-4 2h-3v-2l-4 2h-3v-2l-4 2h-2a2 2 0 0 1 -2-2v-4h39c8 0 19-3 19-3z" fill="#d3843d"/><path d="m57 28s-5.563-.438-9-1c-9.5-1.554-19-8-19-8a8.717 8.717 0 0 0 3.062 7.153l-27.062-2.153-2 8c-.352 1.937.608 3.608 2 5l2 2h35c8 0 19-3 19-3v-4c0-2.1-1.031-3.781-4-4z" fill="#195c85"/><path d="m14.5 17.457h2v23.087h-2z" fill="#f9bb4b" transform="matrix(.087 -.996 .996 .087 -14.734 41.929)"/><path d="m8.168 36.555-2-3a1 1 0 0 1 -.148-.755l1-5 1.96.392-.918 4.598 1.77 2.655z" fill="#f4f4e6"/><path d="m32.531 25.341h2v3.471h-2z" fill="#f4f4e6" transform="matrix(.532 -.847 .847 .532 -7.239 41.049)"/><path d="m37 28.382h2v2.236h-2z" fill="#f4f4e6" transform="matrix(.447 -.894 .894 .447 -5.38 50.295)"/><path d="m52 31h9v2h-9z" fill="#f9bb4b"/><path d="m48 31h2v2h-2z" fill="#f9bb4b"/><g fill="#f4f4e6"><path d="m12 32h2v2h-2z"/><path d="m17 34h2v2h-2z"/><path d="m42 42h2v3h-2z"/><path d="m47 42h2v3h-2z"/><path d="m54 40h2v3h-2z"/></g><path d="m57.075 27c-.16-.013-5.59-.446-8.914-.99-9.163-1.5-18.507-7.778-18.6-7.841a1 1 0 0 0 -1.561.831 10.617 10.617 0 0 0 1.645 5.957l-24.566-1.957a1 1 0 0 0 -1.049.755l-2.013 8.066c-.37 2.027.4 4.007 2.276 5.886l.293.293h-1.586a1 1 0 0 0 -1 1v4a3 3 0 0 0 3 3h2a1 1 0 0 0 .447-.1l2.553-1.282v.382a1 1 0 0 0 1 1h3a1 1 0 0 0 .447-.1l2.553-1.282v.382a1 1 0 0 0 1 1h3a1 1 0 0 0 .447-.1l2.553-1.282v.382a1 1 0 0 0 1 1h3a1 1 0 0 0 .447-.1l2.553-1.282v.382a1 1 0 0 0 1 1h3a1.006 1.006 0 0 0 .555-.168l1.445-.964v.132a1 1 0 0 0 1 1h4c8.041 0 18.809-2.911 19.263-3.035a1 1 0 0 0 .737-.965v-10c0-2.944-1.795-4.766-4.925-5zm-51.368 9.293c-1.407-1.407-1.971-2.753-1.737-4.051l.793-3.172 1.969.171-.712 3.559a1 1 0 0 0 .148.751l2 3 1.664-1.11-1.77-2.651.675-3.374 18.176 1.584.174-2-21.833-1.9.511-2.041 25.972 2.071 2.731 1.717 1.064-1.694-2.863-1.8a7.22 7.22 0 0 1 -2.506-4.433c3.2 1.939 10.379 5.873 17.676 7.067 3.438.563 8.853.992 9.083 1.01h.005c1.711.127 2.647.762 2.952 2h-7.879v2h8v2.228c-2.58.66-11.4 2.775-18 2.775h-34.586zm50.293 5.871v-2.164h-2v2.576c-1.551.3-3.256.6-5 .852v-1.428h-2v1.684c-1.013.114-2.019.2-3 .253v-1.937h-2v2h-3v-1a1 1 0 0 0 -1.555-.832l-2.745 1.832h-1.7v-1a1 1 0 0 0 -1.447-.9l-3.789 1.9h-1.764v-1a1 1 0 0 0 -1.447-.9l-3.789 1.9h-1.764v-1a1 1 0 0 0 -1.447-.9l-3.789 1.9h-1.764v-1a1 1 0 0 0 -1.447-.9l-3.789 1.9h-1.764a1 1 0 0 1 -1-1v-3h38c6.53 0 14.857-1.92 18-2.708v3.936c-.808.205-2.228.554-4 .936z"/><path d="m37 28.382h2v2.236h-2z" transform="matrix(.447 -.894 .894 .447 -5.38 50.295)"/><path d="m48 31h2v2h-2z"/><path d="m12 32h2v2h-2z"/><path d="m17 34h2v2h-2z"/></g></svg>