<svg height="512" viewBox="0 0 64 64" width="512" xmlns="http://www.w3.org/2000/svg"><path d="m61 36v6s-.75.2-2 .51c-.57.13-1.24.29-2 .46-.9.2-1.91.42-3 .63-.64.12-1.31.25-2 .37-.97.17-1.98.33-3 .47-.66.09-1.33.18-2 .25-1.01.11-2.02.2-3 .26-.68.03-1.35.05-2 .05h-4v-2l-3 2h-3v-2l-4 2h-3v-2l-4 2h-3v-2l-4 2h-3v-2l-4 2h-2a2.006 2.006 0 0 1 -2-2v-4h39c8 0 19-3 19-3z" fill="#d3843d"/><path d="m61 32v4s-11 3-19 3h-35l-2-2c-1.39-1.39-2.35-3.06-2-5l.75-3.02.5-1.97.75-3.01 27.06 2.15a8.715 8.715 0 0 1 -3.06-7.15s9.5 6.45 19 8c3.44.56 9 1 9 1 2.48.18 3.61 1.39 3.91 3a5.391 5.391 0 0 1 .09 1z" fill="#195c85"/><path d="m8.168 36.555-2-3a1 1 0 0 1 -.148-.755l1-5 1.96.392-.918 4.598 1.77 2.655z" fill="#f4f4e6"/><path d="m32.531 25.341h2v3.471h-2z" fill="#f4f4e6" transform="matrix(.532 -.847 .847 .532 -7.239 41.049)"/><path d="m37 28.382h2v2.236h-2z" fill="#f4f4e6" transform="matrix(.447 -.894 .894 .447 -5.38 50.295)"/><path d="m61 32v1h-9v-2h8.91a5.391 5.391 0 0 1 .09 1z" fill="#f9bb4b"/><path d="m48 31h2v2h-2z" fill="#f9bb4b"/><g fill="#f4f4e6"><path d="m12 32h2v2h-2z"/><path d="m17 34h2v2h-2z"/><path d="m44 42v2.95c-.68.03-1.35.05-2 .05v-3z"/><path d="m49 42v2.44c-.66.09-1.33.18-2 .25v-2.69z"/><path d="m54 41v2.6c-.64.12-1.31.25-2 .37v-2.97z"/><path d="m59 40v2.51c-.57.13-1.24.29-2 .46v-2.97z"/></g><path d="m27.09 29-.18 2-23.16-2.02.5-1.97z" fill="#f9bb4b"/></svg>