<svg height="512" viewBox="0 0 64 64" width="512" xmlns="http://www.w3.org/2000/svg"><path d="m6 19h12l25 9 12 1a6 6 0 0 1 6 6v3h-18l-26-4h-12l-2-7z" fill="#5f79ba"/><path d="m17 34h-14l2 10h10l2-6 23 4v2h21v-6h-18z" fill="#f9bb4b"/><path d="m20 27 8-8 7 2-9 9z" fill="#476093"/><path d="m7.9 27.447-1.79-.894 2-4a1 1 0 0 1 .89-.553h6v2h-5.382z" fill="#86a5e2"/><path d="m58 38h-2v-3a1 1 0 0 0 -1-1h-6v-2h6a3 3 0 0 1 3 3z" fill="#86a5e2"/><g fill="#ad6327"><path d="m7 37h2v2h-2z"/><path d="m11 39h2v2h-2z"/><path d="m44 41h2v3h-2z"/><path d="m49 41h2v3h-2z"/><path d="m54 41h2v3h-2z"/></g></svg>