<svg height="512" viewBox="0 0 64 64" width="512" xmlns="http://www.w3.org/2000/svg"><g id="Filled_outline" data-name="Filled outline"><path d="m6 19h12l25 9 12 1a6 6 0 0 1 6 6v3h-18l-26-4h-12l-2-7z" fill="#5f79ba"/><path d="m17 34h-14l2 10h10l2-6 23 4v2h21v-6h-18z" fill="#f9bb4b"/><path d="m20 27 8-8 7 2-9 9z" fill="#476093"/><path d="m7.9 27.447-1.79-.894 2-4a1 1 0 0 1 .89-.553h6v2h-5.382z" fill="#86a5e2"/><path d="m58 38h-2v-3a1 1 0 0 0 -1-1h-6v-2h6a3 3 0 0 1 3 3z" fill="#86a5e2"/><g fill="#ad6327"><path d="m7 37h2v2h-2z"/><path d="m11 39h2v2h-2z"/><path d="m44 41h2v3h-2z"/><path d="m49 41h2v3h-2z"/><path d="m54 41h2v3h-2z"/></g><path d="m55.089 28h-.006l-11.869-.989-9.423-3.392 1.916-1.916a1 1 0 0 0 -.432-1.669l-7-2a1.006 1.006 0 0 0 -.982.255l-2.2 2.2-6.754-2.429a1 1 0 0 0 -.339-.06h-12a1 1 0 0 0 -.937.648l-3 8a.994.994 0 0 0 -.024.626l1.635 5.726h-.674a1 1 0 0 0 -.98 1.2l2 10a1 1 0 0 0 .98.8h10a1 1 0 0 0 .949-.684l1.728-5.183 21.323 3.708v1.159a1 1 0 0 0 1 1h21a1 1 0 0 0 1-1v-9a6.985 6.985 0 0 0 -6.911-7zm-26.8-7.881 4.8 1.371-7.289 7.293-4.114-2.057zm31.711 22.881h-4v-2h-2v2h-3v-2h-2v2h-3v-2h-2v2h-3v-1a1 1 0 0 0 -.829-.985l-23-4a1 1 0 0 0 -1.12.669l-1.772 5.316h-8.459l-1.6-8h12.7l25.925 3.988a.964.964 0 0 0 .155.012h17zm0-6h-2v-2a3 3 0 0 0 -3-3h-6v2h6a1 1 0 0 1 1 1v2h-12.923l-25.925-3.988a.964.964 0 0 0 -.152-.012h-11.246l-1.7-5.958 2.639-7.042h11.132l5.7 2.057-4.236 4.236a1 1 0 0 0 .26 1.6l6 3a1 1 0 0 0 1.154-.188l5.522-5.521 10.436 3.756a.947.947 0 0 0 .256.056l12.083 1.004a5.006 5.006 0 0 1 5 5z"/><path d="m8.105 22.553-2 4 1.79.894 1.723-3.447h5.382v-2h-6a1 1 0 0 0 -.895.553z"/><path d="m7 37h2v2h-2z"/><path d="m11 39h2v2h-2z"/></g></svg>