<svg height="512" viewBox="0 0 64 64" width="512" xmlns="http://www.w3.org/2000/svg"><path d="m36 57-18-4h-12v8h15l3-2 9 2h26v-4z" fill="#f9bb4b"/><path d="m42 47-10-10v-34h-26v50h12l18 4h23v-3c0-1.856-.813-3.031-4-4z" fill="#d3843d"/><path d="m6 56h9v2h-9z" fill="#d3843d"/><path d="m17 56h2v2h-2z" fill="#d3843d"/><path d="m32 19-13 6-13-6v-8h26z" fill="#ad6327"/><path d="m9 11 5-5 5 5z" fill="#c1743a"/><path d="m19 11 5-5 5 5z" fill="#c1743a"/><path d="m11 3 8 8 8-8z" fill="#7f4117"/><path d="m6 3h5l3 3-5 5h-3z" fill="#9b531e"/><path d="m24 6 3-3h5v8h-3z" fill="#9b531e"/><path d="m18 3h2v3h-2z" fill="#66342e"/><path d="m27 3h2v3h-2z" fill="#66342e"/><path d="m9 3h2v3h-2z" fill="#66342e"/><path d="m18 16h2v10h-2z" fill="#66342e"/><path d="m14 14h2v10h-2z" fill="#66342e"/><path d="m10 16h2v6h-2z" fill="#66342e"/><path d="m22 14h2v10h-2z" fill="#66342e"/><path d="m26 16h2v6h-2z" fill="#66342e"/><path d="m32 33-13 6-13-6v-14l13 6 13-6z" fill="#9b531e"/><path d="m18 28h2v12h-2z" fill="#66342e"/><path d="m14 26h2v12h-2z" fill="#66342e"/><path d="m10 28h2v8h-2z" fill="#66342e"/><path d="m22 26h2v12h-2z" fill="#66342e"/><path d="m26 29h2v7h-2z" fill="#66342e"/><path d="m32 33v10l-4 1.85-2 .92-2 .92-2 .93-2 .92-1 .46-1-.46-2-.92-2-.93-2-.92-2-.92-4-1.85v-10l13 6z" fill="#ad6327"/><g fill="#66342e"><path d="m20 42v6.54l-1 .46-1-.46v-6.54z"/><path d="m16 40v7.62l-2-.93v-6.69z"/><path d="m12 38v7.77l-2-.92v-6.85z"/><path d="m24 40v6.69l-2 .93v-7.62z"/><path d="m28 38v6.85l-2 .92v-7.77z"/><path d="m47.783 52.976-9-2a1 1 0 0 1 -.49-.269l-5-5 1.414-1.414 4.793 4.794 8.716 1.937z"/><path d="m29 49h2v2h-2z"/><path d="m33 51h2v2h-2z"/><path d="m9 48h2v2h-2z"/></g></svg>