<svg height="512" viewBox="0 0 64 64" width="512" xmlns="http://www.w3.org/2000/svg"><g id="Filled_outline" data-name="Filled outline"><path d="m36 57-18-4h-12v8h15l3-2 9 2h26v-4z" fill="#f9bb4b"/><path d="m42 47-10-10v-34h-26v50h12l18 4h23v-3c0-1.856-.813-3.031-4-4z" fill="#d3843d"/><path d="m5 56h10v2h-10z" fill="#d3843d"/><path d="m17 56h2v2h-2z" fill="#d3843d"/><path d="m32 19-13 6-13-6v-8h26z" fill="#ad6327"/><path d="m9 11 5-5 5 5z" fill="#c1743a"/><path d="m19 11 5-5 5 5z" fill="#c1743a"/><path d="m11 3 8 8 8-8z" fill="#7f4117"/><path d="m6 3h5l3 3-5 5h-3z" fill="#9b531e"/><path d="m24 6 3-3h5v8h-3z" fill="#9b531e"/><path d="m18 3h2v3h-2z" fill="#66342e"/><path d="m27 3h2v3h-2z" fill="#66342e"/><path d="m9 3h2v3h-2z" fill="#66342e"/><path d="m18 16h2v9h-2z" fill="#66342e"/><path d="m14 14h2v9h-2z" fill="#66342e"/><path d="m10 16h2v5h-2z" fill="#66342e"/><path d="m22 14h2v9h-2z" fill="#66342e"/><path d="m26 16h2v5h-2z" fill="#66342e"/><path d="m32 33-13 6-13-6v-14l13 6 13-6z" fill="#9b531e"/><path d="m18 28h2v11h-2z" fill="#66342e"/><path d="m14 26h2v11h-2z" fill="#66342e"/><path d="m10 28h2v7h-2z" fill="#66342e"/><path d="m22 26h2v11h-2z" fill="#66342e"/><path d="m26 29h2v6h-2z" fill="#66342e"/><path d="m32 43-13 6-13-6v-10l13 6 13-6z" fill="#ad6327"/><g fill="#66342e"><path d="m18 42h2v7h-2z"/><path d="m14 40h2v7h-2z"/><path d="m10 38h2v7h-2z"/><path d="m22 40h2v7h-2z"/><path d="m26 38h2v7h-2z"/><path d="m47.783 52.976-9-2a1 1 0 0 1 -.49-.269l-5-5 1.414-1.414 4.793 4.794 8.716 1.937z"/><path d="m29 49h2v2h-2z"/><path d="m33 51h2v2h-2z"/><path d="m9 48h2v2h-2z"/></g><path d="m17 56h2v2h-2z"/><path d="m33 3a1 1 0 0 0 -1-1h-26a1 1 0 0 0 -1 1v58a1 1 0 0 0 1 1h15a1.006 1.006 0 0 0 .555-.168l2.645-1.763 8.584 1.907a.988.988 0 0 0 .216.024h26a1 1 0 0 0 1-1v-7c0-2.5-1.364-3.94-4.775-4.975l-12.725-2.935-9.5-9.5zm-7 35v6.668l-2 .923v-5.591h-2v6.514l-2 .923v-5.437h-2v5.437l-2-.923v-6.514h-2v5.591l-2-.923v-6.668h-2v5.745l-3-1.385v-7.8l11.581 5.345a1 1 0 0 0 .838 0l11.581-5.342v7.8l-3 1.385v-5.748zm-9.414-28h-5.172l2.586-2.586zm7.414-2.586 2.586 2.586h-5.172zm7 4.586v6.36l-3 1.385v-3.745h-2v4.668l-2 .923v-7.591h-2v8.514l-2 .923v-7.437h-2v7.437l-2-.923v-8.514h-2v7.591l-2-.923v-4.668h-2v3.745l-3-1.385v-6.36zm-24 8.563 11.581 5.345a1 1 0 0 0 .838 0l11.581-5.345v11.8l-3 1.385v-4.748h-2v5.668l-2 .923v-9.591h-2v10.514l-2 .923v-9.437h-2v9.437l-2-.923v-10.514h-2v9.591l-2-.923v-6.668h-2v5.745l-3-1.385zm24-10.563h-1.586l-4-4 1.586-1.586v1.586h2v-2h2zm-13-6v2h2v-2h4.586l-5.586 5.586-5.586-5.586zm-9 0v2h2v-1.586l1.586 1.586-4 4h-1.586v-6zm49 56h-24.891l-8.892-1.976a1 1 0 0 0 -.772.144l-2.745 1.832h-13.7v-2h8v-2h-8v-2h10.891l17.892 3.976a.988.988 0 0 0 .217.024h22zm-16.707-12.293a1.009 1.009 0 0 0 .482.268l12.934 2.982c3.049.926 3.291 1.885 3.291 3.043v2h-21.891l-17.892-3.976a.988.988 0 0 0 -.217-.024h-11v-7.437l11.581 5.345a1 1 0 0 0 .838 0l13-6a1 1 0 0 0 .581-.908v-3.586z"/><path d="m38.783 50.976 9 2 .434-1.952-8.717-1.937-4.794-4.794-1.414 1.414 5 5a1 1 0 0 0 .491.269z"/><path d="m29 49h2v2h-2z"/><path d="m33 51h2v2h-2z"/><path d="m9 48h2v2h-2z"/></g></svg>