<svg height="512" viewBox="0 0 64 64" width="512" xmlns="http://www.w3.org/2000/svg"><path d="m61 40v2h-25l-12-4h-19l-2-4 2-8 25 3-1-5 6.5-6.5 5.29 5.71 3.84 4.16 3.37 3.63 8 3c3.38 1.06 5 3.46 5 6z" fill="#ad6327"/><path d="m3 42h20v4h-20z" fill="#ad6327"/><path d="m44.63 27.37-2.63 2.63-4-4 2.79-2.79z" fill="#d3843d"/><path d="m35.879 25.464h4.243v7.071h-4.243z" fill="#9c2d20" transform="matrix(.707 -.707 .707 .707 -9.376 35.364)"/><path d="m32.172 30.172h5.657v5.657h-5.657z" fill="#d3843d" transform="matrix(.707 -.707 .707 .707 -13.083 34.414)"/><path d="m56 34-8-3-4 5v6h17v-2c0-2.536-1.625-4.938-5-6z" fill="#d3843d"/><g fill="#f4f4e6"><path d="m8.105 38.447-2-4a1 1 0 0 1 -.075-.689l1-4 1.94.484-.91 3.642 2.164 4.327z"/><path d="m58 42h-2v-2.646a.994.994 0 0 0 -.629-.928l-4.671-1.472.6-1.908 4.742 1.5a3.007 3.007 0 0 1 1.958 2.808z"/><path d="m12 30h2v2h-2z"/><path d="m16 33h2v2h-2z"/></g><path d="m61 46h-26l-12-4h-20v-4h21l12 4h25z" fill="#894b1d"/></svg>