<svg height="512" viewBox="0 0 64 64" width="512" xmlns="http://www.w3.org/2000/svg"><g id="Filled_outline" data-name="Filled outline"><path d="m48 31-12.5-13.5-6.5 6.5 1 5-25-3-2 8 2 4h19l12 4h25v-2c0-2.536-1.625-4.938-5-6z" fill="#ad6327"/><path d="m3 42h20v4h-20z" fill="#ad6327"/><path d="m61 46h-26l-12-4h-20v-4h21l12 4h25z" fill="#894b1d"/><path d="m44.635 27.365-3.847-4.153-2.788 2.788 4 4z" fill="#d3843d"/><path d="m35.879 25.464h4.243v7.071h-4.243z" fill="#9c2d20" transform="matrix(.707 -.707 .707 .707 -9.376 35.364)"/><path d="m32.172 30.172h5.657v5.657h-5.657z" fill="#d3843d" transform="matrix(.707 -.707 .707 .707 -13.083 34.414)"/><path d="m56 34-8-3-4 5v6h17v-2c0-2.536-1.625-4.938-5-6z" fill="#d3843d"/><g fill="#f4f4e6"><path d="m8.105 38.447-2-4a1 1 0 0 1 -.075-.689l1-4 1.94.484-.91 3.642 1.84 3.669z"/><path d="m58 42h-2v-2.646a.994.994 0 0 0 -.629-.928l-4.671-1.472.6-1.908 4.742 1.5a3.007 3.007 0 0 1 1.958 2.808z"/><path d="m12 30h2v2h-2z"/><path d="m16 33h2v2h-2z"/></g><path d="m56.351 33.063-7.778-2.917-12.339-13.326a1.006 1.006 0 0 0 -.715-.32 1.1 1.1 0 0 0 -.726.293l-6.5 6.5a1 1 0 0 0 -.273.9l.729 3.647-23.63-2.833a1.01 1.01 0 0 0 -1.089.751l-2 8a1 1 0 0 0 .075.689l1.277 2.553h-.382a1 1 0 0 0 -1 1v8a1 1 0 0 0 1 1h20a1 1 0 0 0 1-1v-2.613l10.684 3.561a1 1 0 0 0 .316.052h26a1 1 0 0 0 1-1v-6c0-3.23-2.131-5.83-5.649-6.937zm-14.351-4.477-2.586-2.586 1.347-1.346 2.486 2.685zm-4.414 4.414-2.586 2.586-2.586-2.586 2.586-2.586zm-2.172-5 1.586-1.586 3.586 3.586-1.586 1.586zm-31.354 5.884 1.7-6.786 24.125 2.895a1 1 0 0 0 1.1-1.189l-.895-4.475 5.387-5.387 3.923 4.243-1.4 1.4-.293-.293a1 1 0 0 0 -1.414 0l-3 3a1 1 0 0 0 0 1.414l.293.293-3.293 3.293a1 1 0 0 0 0 1.414l4 4a1 1 0 0 0 1.414 0l8.9-8.9 2.074 2.241-3.462 4.327a1 1 0 0 0 -.219.626v5h-6.838l-11.846-3.948a1 1 0 0 0 -.316-.052h-14.382l-1.558-3.116.91-3.642-1.94-.484-1 4a1 1 0 0 0 .075.689l1.277 2.553h-1.764zm17.94 11.116h-18v-2h18zm38 0h-24.838l-11.846-3.948a1 1 0 0 0 -.316-.052h-19v-2h19.838l11.846 3.948a1 1 0 0 0 .316.052h24zm0-4h-2v-1.646a3.007 3.007 0 0 0 -1.957-2.811l-4.742-1.5-.6 1.908 4.672 1.472a.994.994 0 0 1 .629.928v1.649h-11.002v-4.649l3.328-4.16 7.372 2.763c2.693.846 4.3 2.734 4.3 5.046z"/><path d="m12 30h2v2h-2z"/><path d="m16 33h2v2h-2z"/></g></svg>