<svg height="512" viewBox="0 0 64 64" width="512" xmlns="http://www.w3.org/2000/svg"><path d="m56 33-12-2-13-10c-.8-.625-1.284-.716-2 0l-5 5a1.415 1.415 0 0 0 0 2l3 3-5 5h-17a2 2 0 0 0 -2 2v2h12l7 4h39v-7c0-2.038-1.417-3.458-5-4z" fill="#394d5c"/><path d="m3 40h12v4h-12z" fill="#ffd782"/><g fill="#f4f4e6"><path d="m22 39h2v2h-2z"/><path d="m26 39h2v2h-2z"/><path d="m28 30.172h2v5.657h-2z" transform="matrix(.707 -.707 .707 .707 -14.841 30.172)"/><path d="m34.375 29.781-4.3-3.441-1.367 1.367-1.414-1.414 2-2a1 1 0 0 1 1.332-.074l5 4z"/><path d="m48 39h2v2h-2z"/><path d="m52 39h2v2h-2z"/><path d="m56 39h2v2h-2z"/><path d="m42 39h4v2h-4z"/><path d="m30 39h5v2h-5z"/></g><path d="m44 31-13 13h7l12-12z" fill="#ffd782"/></svg>