<svg height="512" viewBox="0 0 64 64" width="512" xmlns="http://www.w3.org/2000/svg"><g id="Filled_outline" data-name="Filled outline"><path d="m56 33-12-2-13-10c-.8-.625-1.284-.716-2 0l-5 5a1.415 1.415 0 0 0 0 2l3 3-5 5h-17a2 2 0 0 0 -2 2v2h12l7 4h39v-7c0-2.038-1.417-3.458-5-4z" fill="#394d5c"/><path d="m3 40h12v4h-12z" fill="#ffd782"/><g fill="#f4f4e6"><path d="m22 39h2v2h-2z"/><path d="m26 39h2v2h-2z"/><path d="m28 30.172h2v5.657h-2z" transform="matrix(.707 -.707 .707 .707 -14.841 30.172)"/><path d="m34.375 29.781-4.3-3.441-1.367 1.367-1.414-1.414 2-2a1 1 0 0 1 1.332-.074l5 4z"/><path d="m48 39h2v2h-2z"/><path d="m52 39h2v2h-2z"/><path d="m56 39h2v2h-2z"/><path d="m42 39h4v2h-4z"/><path d="m30 39h5v2h-5z"/></g><path d="m44 31-13 13h7l12-12z" fill="#ffd782"/><path d="m56.157 32.012-11.746-1.957-12.793-9.841a2.232 2.232 0 0 0 -3.325.079l-5 5a2.415 2.415 0 0 0 0 3.415l2.293 2.292-4 4h-16.586a3 3 0 0 0 -3 3v6a1 1 0 0 0 1 1h12a1 1 0 0 0 1-1v-2.277l5.5 3.145a.993.993 0 0 0 .5.132h39a1 1 0 0 0 1-1v-7c0-2.722-1.966-4.4-5.843-4.988zm-42.157 10.988h-10v-2h10zm1.5-3.868c-.022-.013-.124-.052-.152-.063a1.014 1.014 0 0 0 -.348-.069h-11v-1a1 1 0 0 1 1-1h17a1 1 0 0 0 .707-.293l4.293-4.293 3.293 3.293 1.414-1.414-7-7a.414.414 0 0 1 0-.585s5.226-5.194 5.23-5.207c.042.014 12.551 9.6 12.551 9.6l-7.9 7.9h-4.588v2h2.586l-2 2h-8.32zm17.914 3.868 10.929-10.929 3.576.6-10.333 10.329zm26.586 0h-19.586l2-2h3.586v-2h-1.586l5.929-5.929 5.508.918c4.149.627 4.149 2.359 4.149 3.011z"/><path d="m22 39h2v2h-2z"/><path d="m26 39h2v2h-2z"/><path d="m35.625 28.219-5-4a1 1 0 0 0 -1.332.074l-2 2 1.414 1.414 1.367-1.367 4.3 3.441z"/><path d="m48 39h2v2h-2z"/><path d="m52 39h2v2h-2z"/><path d="m56 39h2v2h-2z"/></g></svg>