<svg height="512" viewBox="0 0 64 64" width="512" xmlns="http://www.w3.org/2000/svg"><g id="Filled_outline" data-name="Filled outline"><path d="m3 41h19l10 4h29v-6.364a6 6 0 0 0 -4.485-5.806l-24.515-4.83-9-9h-20z" fill="#d3843d"/><path d="m3 41h19l6.205 2.482 10.795-8.482-7-7-9-9h-20z" fill="#ad6327"/><g fill="#66342e"><path d="m32 45-10-4h-19v4 4h16v-4l10 4h32v-4z"/><path d="m19.298 22h6.403v2.001h-6.403z" transform="matrix(.781 -.625 .625 .781 -9.438 19.096)"/><path d="m22.298 25h6.403v2.001h-6.403z" transform="matrix(.781 -.625 .625 .781 -10.654 21.627)"/><path d="m25.298 28h6.403v2.001h-6.403z" transform="matrix(.781 -.625 .625 .781 -11.871 24.159)"/></g><path d="m8 28h-2v-6h5v2h-3z" fill="#f4f4e6"/><path d="m6 45h2v4h-2z" fill="#301a12"/><path d="m10 45h2v4h-2z" fill="#301a12"/><path d="m14 45h2v4h-2z" fill="#301a12"/><path d="m3 31h2a8 8 0 0 1 8 8v2a0 0 0 0 1 0 0h-10a0 0 0 0 1 0 0v-10a0 0 0 0 1 0 0z" fill="#d3843d"/><path d="m31 34h2v2h-2z" fill="#66342e"/><path d="m27 37h2v2h-2z" fill="#66342e"/><path d="m58 42h-2v-4c0-.29-.612-.852-1.2-1.019l-6.943-.991.284-1.98 7 1a.843.843 0 0 1 .1.02c1.327.331 2.759 1.561 2.759 2.97z" fill="#f4f4e6"/><path d="m8 24h3v-2h-5v6h2z"/><path d="m56.708 31.849-24.216-4.771-2.58-2.58a19.249 19.249 0 0 0 5.279 1.031 3.379 3.379 0 0 0 2.2-.6 2.038 2.038 0 0 0 .574-2.173 3.28 3.28 0 0 0 -1.619-2.08 7.1 7.1 0 0 0 -3.18-.743c1.32-.876 2.312-1.89 2.4-2.994.094-1.129-.622-2.083-2.127-2.836a4.063 4.063 0 0 0 -3.652-.12c-2.263 1.064-3.621 4.143-4.283 6.113l-1.8-1.8a1 1 0 0 0 -.704-.296h-20a1 1 0 0 0 -1 1v30a1 1 0 0 0 1 1h16a1 1 0 0 0 1-1v-2.523l8.629 3.452a1 1 0 0 0 .371.071h32a1 1 0 0 0 1-1v-10.364a7.016 7.016 0 0 0 -5.292-6.787zm-20.678-8.607c.028.11.031.175.039.19-.6.422-3.4-.121-6.61-1.2 2.256-.379 4.7-.5 5.9.186a1.275 1.275 0 0 1 .671.824zm-5.383-7.448a1.9 1.9 0 0 1 .818-.19 2.423 2.423 0 0 1 1.088.291c.835.417 1.039.751 1.028.881-.07.856-2.739 2.425-6.063 3.655.631-1.757 1.711-3.971 3.129-4.637zm-8.061 4.206.917.917-4.128 3.3 1.25 1.562 4.3-3.441 1.575 1.579-4.128 3.3 1.25 1.562 4.3-3.441 1.578 1.579-4.128 3.3 1.25 1.562 4.3-3.441 6.57 6.57-9.455 7.429-5.67-2.268a1 1 0 0 0 -.367-.069h-8v-1a9.01 9.01 0 0 0 -9-9h-1v-10zm-18.586 12h1a7.009 7.009 0 0 1 7 7v1h-8zm56 16h-30.808l-9.821-3.929a1 1 0 0 0 -1.371.929v3h-2v-3h-2v3h-2v-3h-2v3h-2v-3h-2v3h-2v-6h17.808l9.821 3.929a1 1 0 0 0 .371.071h28zm0-4h-27.808l-2.006-.8 9.432-7.412a1 1 0 0 0 .089-1.493l-4.677-4.679 21.232 4.184a5 5 0 0 1 3.738 4.836z"/><path d="m31 34h2v2h-2z"/><path d="m27 37h2v2h-2z"/><path d="m55.242 35.03c-.033-.009-7.1-1.02-7.1-1.02l-.284 1.98 6.943.991c.587.167 1.2.729 1.2 1.019v4h2v-4c-.001-1.409-1.433-2.639-2.759-2.97z"/></g></svg>