<svg height="512" viewBox="0 0 64 64" width="512" xmlns="http://www.w3.org/2000/svg"><path d="m3 41h19l10 4h29v-6.364a6 6 0 0 0 -4.485-5.806l-24.515-4.83-9-9h-20z" fill="#d3843d"/><path d="m39 35-10.8 8.48-6.2-2.48h-19v-22h20l4.29 4.29 1.42 1.42 1.58 1.58 1.42 1.42.29.29z" fill="#ad6327"/><g fill="#66342e"><path d="m32 45-10-4h-19v4 4h16v-4l10 4h32v-4z"/><path d="m28.71 24.71-5.09 4.07-1.24-1.56 4.91-3.93z"/><path d="m31.71 27.71-5.09 4.07-1.24-1.56 4.91-3.93z"/><path d="m37.124 21.7a3.276 3.276 0 0 0 -1.619-2.08 7.08 7.08 0 0 0 -3.18-.742c1.32-.876 2.312-1.891 2.4-2.994.094-1.129-.622-2.083-2.127-2.836a4.063 4.063 0 0 0 -3.652-.12c-2.846 1.337-4.263 5.863-4.661 7.359l-4.914 3.931 1.25 1.562 4.642-3.713c2.3.932 6.347 2.4 9.079 2.4a3.373 3.373 0 0 0 2.205-.6 2.038 2.038 0 0 0 .577-2.167zm-7.324-6.963a1.9 1.9 0 0 1 .817-.189 2.417 2.417 0 0 1 1.088.29c.835.417 1.039.751 1.029.882-.071.855-2.74 2.424-6.064 3.654.63-1.757 1.714-3.974 3.13-4.637zm-1.188 6.438c2.255-.38 4.7-.5 5.9.185a1.278 1.278 0 0 1 .668.825c.027.11.03.175.039.19-.591.425-3.393-.121-6.605-1.2z"/></g><path d="m8 28h-2v-6h5v2h-3z" fill="#f4f4e6"/><path d="m6 45h2v4h-2z" fill="#301a12"/><path d="m10 45h2v4h-2z" fill="#301a12"/><path d="m14 45h2v4h-2z" fill="#301a12"/><path d="m3 31h2a8 8 0 0 1 8 8v2a0 0 0 0 1 0 0h-10a0 0 0 0 1 0 0v-10a0 0 0 0 1 0 0z" fill="#d3843d"/><path d="m31 34h2v2h-2z" fill="#66342e"/><path d="m27 37h2v2h-2z" fill="#66342e"/><path d="m58 42h-2v-4c0-.29-.612-.852-1.2-1.019l-6.943-.991.284-1.98 7 1a.843.843 0 0 1 .1.02c1.327.331 2.759 1.561 2.759 2.97z" fill="#f4f4e6"/></svg>