<svg height="512" viewBox="0 0 64 64" width="512" xmlns="http://www.w3.org/2000/svg"><path d="m55 44v7h-24a58.058 58.058 0 0 1 -6-11c-3.18-7.41-9-7-9-7-.19.58-.38 1.25-.56 2a131.31 131.31 0 0 0 -2.14 16c-.2 2.39-.3 4-.3 4h-4s-.1-1.54-.35-4c-.56-5.45-1.89-15.41-4.65-23-.44-1.05-.68-2.08-1-3 3.32.2 12.37 1.05 19 4 0 0-10.72-9.83-19-17l2-4 33 28s9 7.12 17 8z" fill="#55b56a"/><path d="m59 55h-25l-3-4h30z" fill="#f9bb4b"/><path d="m16 33c-.19.58-.38 1.25-.56 2h-5.44v-2z" fill="#c8d952"/><path d="m13.3 51c-.2 2.39-.3 4-.3 4h-4s-.1-1.54-.35-4z" fill="#f9bb4b"/><path d="m9.388 17.612c1.642 1.461 3.254 2.905 4.749 4.251l3.306-3.306-4.869-4.131z" fill="#195c85"/><path d="m40 48h-7a1 1 0 0 1 -.8-.4 39.3 39.3 0 0 1 -5.149-10.284l1.9-.632a39.066 39.066 0 0 0 4.567 9.316h6.482z" fill="#f4f4e6"/><path d="m42 46h2v2h-2z" fill="#c8d952"/><path d="m46 46h2v2h-2z" fill="#c8d952"/><path d="m26.105 34.447c-.732-1.465-3.645-3.847-4.705-4.647l1.2-1.6c.429.321 4.22 3.2 5.295 5.353z" fill="#f4f4e6"/><path d="m50 46h2v2h-2z" fill="#c8d952"/></svg>