<svg height="512" viewBox="0 0 64 64" width="512" xmlns="http://www.w3.org/2000/svg"><g id="Filled_outline" data-name="Filled outline"><path d="m38 36-33-28-2 4c8.284 7.167 19 17 19 17-6.628-2.946-15.681-3.8-19-4 .32.919.563 1.951 1 3 4 11 5 27 5 27h4s1-16 3-22c0 0 5.824-.41 9 7a58.058 58.058 0 0 0 6 11h24v-7c-8-.881-17-8-17-8z" fill="#55b56a"/><path d="m59 55h-25l-3-4h30z" fill="#f9bb4b"/><path d="m8.651 51c.249 2.456.349 4 .349 4h4s.1-1.612.3-4z" fill="#f9bb4b"/><path d="m9.388 17.612c1.642 1.461 3.254 2.905 4.749 4.251l3.306-3.306-4.869-4.131z" fill="#195c85"/><g fill="#c8d952"><path d="m42 46h2v2h-2z"/><path d="m46 46h2v2h-2z"/><path d="m50 46h2v2h-2z"/></g><path d="m61 50h-5v-6a1 1 0 0 0 -.891-.994c-7.484-.824-16.1-7.485-16.477-7.78l-32.985-27.989a1 1 0 0 0 -1.542.316l-2 4a1 1 0 0 0 .241 1.2c5.211 4.512 11.443 10.129 15.306 13.637a73.479 73.479 0 0 0 -14.59-2.39 1.009 1.009 0 0 0 -.862.4 1 1 0 0 0 -.147.933c.114.329.727 2.351 1 3.013 3.911 10.73 4.939 26.554 4.947 26.716a1 1 0 0 0 1 .938h4a1 1 0 0 0 1-.938c.01-.152.939-14.751 2.732-21.036 1.487.16 5.095 1.1 7.351 6.368a58.574 58.574 0 0 0 6.117 11.206l3 4a1 1 0 0 0 .8.4h25a1 1 0 0 0 .9-.553l2-4a1 1 0 0 0 -.9-1.447zm-45.032-31.382-1.868 1.868c-1.047-.941-2.141-1.922-3.256-2.916l1.785-1.785zm-10.643-9.031 5.774 4.9-1.752 1.752c-1.72-1.526-3.456-3.054-5.1-4.486zm4.606 44.413c-.039-.495-.1-1.182-.174-2h2.458c-.064.809-.115 1.5-.15 2zm6.059-22h-5.99v2h4.669a114.658 114.658 0 0 0 -2.287 16h-2.828c-.61-5.64-1.954-15.018-4.631-22.385-.209-.5-.374-1.011-.527-1.51 3.707.311 11.331 1.232 17.1 3.767 1.121.851 3.9 3.146 4.612 4.575l1.79-.894c-1.049-2.1-4.677-4.887-5.25-5.319-.306-.281-3.213-2.943-7.056-6.408l1.909-1.91 19.852 16.847.026.021c.364.287 8.685 6.81 16.621 8.089v5.127h-22.485a60.873 60.873 0 0 1 -5.6-10.394c-3.303-7.717-9.301-7.638-9.925-7.606zm42.392 22h-23.882l-1.5-2h26.382z"/><path d="m33 48h7v-2h-6.482a39.066 39.066 0 0 1 -4.569-9.316l-1.9.632a39.3 39.3 0 0 0 5.151 10.284 1 1 0 0 0 .8.4z"/><path d="m42 46h2v2h-2z"/><path d="m46 46h2v2h-2z"/><path d="m50 46h2v2h-2z"/></g></svg>