<svg height="512" viewBox="0 0 64 64" width="512" xmlns="http://www.w3.org/2000/svg"><path d="m35.55 37.384-6.21-6.261 1.82-1.283 4.919 5.081z" fill="#2d75bb"/><path d="m26.316 44.684c-1.655-3.642-2.194-4.942-3.216-6.784l1.379-1.657c1.049 1.891 2.782 5.291 4.46 8.983z" fill="#2d75bb"/><path d="m31.16 29.84-8.06 8.06c-3.32-6.51-5.52-8.64-7.1-3.9-1.37 4.1-1.33 12.85-1.17 18 .07 2.39.17 4 .17 4h-6a36.229 36.229 0 0 0 .58-4c.52-5.18.64-14.57-3.58-23-6-12-1-18 4-21z" fill="#87cee9"/><path d="m60.669 52h-30.369c2.368 3.551 3.7 4 3.7 4h24a9.5 9.5 0 0 0 2.669-4z" fill="#195c85"/><path d="m15 56h-6a36.229 36.229 0 0 0 .58-4h5.25c.07 2.39.17 4 .17 4z" fill="#195c85"/><path d="m8.086 25.406c-1.713-3.855-2.086-7.029-1.11-9.433a5.214 5.214 0 0 1 2.652-2.9l.744 1.858-.372-.931.384.923a3.339 3.339 0 0 0 -1.579 1.863c-.722 1.853-.338 4.553 1.109 7.808z" fill="#f4f4e6"/><path d="m9.5 26.882h2v2.236h-2z" fill="#f4f4e6" transform="matrix(.894 -.447 .447 .894 -11.413 7.652)"/><path d="m52 52v-7.119c-8-.881-11-4.881-11-4.881l-4.921-5.079-9.763 9.763a55.219 55.219 0 0 0 3.984 7.316z" fill="#87cee9"/><g fill="#f4f4e6"><path d="m45 47h2v2h-2z"/><path d="m41 47h2v2h-2z"/><path d="m37 47h2v2h-2z"/><path d="m33 47h2v2h-2z"/></g></svg>