<svg height="512" viewBox="0 0 64 64" width="512" xmlns="http://www.w3.org/2000/svg"><g id="Filled_outline" data-name="Filled outline"><path d="m31.159 29.841-21.159-21.841c-5 3-10 9-4 21 6.229 12.458 3 27 3 27h6s-1-16 1-22c1.579-4.737 3.782-2.614 7.1 3.9z" fill="#87cee9"/><path d="m60.669 52h-30.369c2.368 3.551 3.7 4 3.7 4h24a9.5 9.5 0 0 0 2.669-4z" fill="#195c85"/><path d="m9.584 52a37.628 37.628 0 0 1 -.584 4h6s-.1-1.612-.174-4z" fill="#195c85"/><path d="m8.086 25.406c-1.713-3.855-2.086-7.029-1.11-9.433a5.214 5.214 0 0 1 2.652-2.9l.744 1.858-.372-.931.384.923a3.339 3.339 0 0 0 -1.579 1.863c-.722 1.853-.338 4.553 1.109 7.808z" fill="#f4f4e6"/><path d="m9.5 26.882h2v2.236h-2z" fill="#f4f4e6" transform="matrix(.894 -.447 .447 .894 -11.413 7.652)"/><path d="m52 52v-7.119c-8-.881-11-4.881-11-4.881l-4.921-5.079-9.763 9.763a55.219 55.219 0 0 0 3.984 7.316z" fill="#87cee9"/><g fill="#f4f4e6"><path d="m45 47h2v2h-2z"/><path d="m41 47h2v2h-2z"/><path d="m37 47h2v2h-2z"/><path d="m33 47h2v2h-2z"/></g><path d="m60.669 51h-7.669v-6.119a1 1 0 0 0 -.891-.994c-7.409-.816-10.284-4.455-10.309-4.487s-31.082-32.095-31.082-32.095a1 1 0 0 0 -1.233-.162c-5.45 3.27-10.634 9.795-4.38 22.3 5.992 11.982 2.953 26.2 2.921 26.337a1 1 0 0 0 .974 1.22h6a1 1 0 0 0 1-1.062c-.009-.159-.967-15.876.949-21.622.6-1.8 1.072-1.88 1.076-1.881.164.006 1.267.2 4.172 5.9.8 1.579 6.508 13.081 7.269 14.223 2.435 3.651 3.939 4.3 4.215 4.393a1.02 1.02 0 0 0 .319.049h24a1 1 0 0 0 .664-.252 10.447 10.447 0 0 0 2.981-4.526 1 1 0 0 0 -.976-1.222zm-20.423-10.342c.417.521 3.49 4.059 10.754 5.1v5.242h-20.162c-.718-1.117-3.256-5.988-3.314-6.11l8.544-8.543zm-30.038 14.342c.087-.519.187-1.2.283-2h3.368c.03.8.061 1.487.087 2zm7.668-24.56c-1.6.121-2.379 1.909-2.825 3.244-1.331 3.995-1.387 12.034-1.251 17.316h-3.111c.434-5.454.271-14.317-3.794-22.447-4.324-8.647-3.33-15.126 2.951-19.275l19.909 20.553-6.4 6.4c-.132-.247-.262-.486-.389-.714-2.075-3.737-3.566-5.194-5.09-5.077zm6.442 7.66 6.829-6.829 3.529 3.643-8.051 8.051c-.884-1.936-1.639-3.53-2.307-4.865zm33.282 16.9h-23.357a8.767 8.767 0 0 1 -1.993-2h26.931a10.425 10.425 0 0 1 -1.581 2z"/><path d="m8.805 16.786a3.339 3.339 0 0 1 1.579-1.863l-.384-.923-.372-.929a5.214 5.214 0 0 0 -2.652 2.9c-.977 2.4-.6 5.578 1.11 9.433l1.828-.812c-1.447-3.253-1.831-5.953-1.109-7.806z"/><path d="m9.5 26.882h2v2.236h-2z" transform="matrix(.894 -.447 .447 .894 -11.413 7.652)"/><path d="m45 47h2v2h-2z"/><path d="m41 47h2v2h-2z"/><path d="m37 47h2v2h-2z"/><path d="m33 47h2v2h-2z"/></g></svg>