<svg height="512" viewBox="0 0 64 64" width="512" xmlns="http://www.w3.org/2000/svg"><path d="m61 41h-39l-8 2-9-2-2-12 2-14a11.978 11.978 0 0 0 8 3c5 0 7-3 7-3v-3l5 1 2 6 .83.75 1.49 1.35 1.65 1.51 1.49 1.35 1.65 1.51 1.49 1.35 2.4 2.18a.044.044 0 0 0 .03.01.037.037 0 0 1 .03.01h.01c.92.21 10.57 2.42 13.93 2.98a12.123 12.123 0 0 1 6.75 3.01 8.133 8.133 0 0 1 2.25 5.99z" fill="#32b1cc"/><path d="m4.835 40.012 10.165-11.012-11-7-.755 5.283 4.755 2.717-4.143 4.143z" fill="#87cee9"/><path d="m26 22h-22l11 7h14z" fill="#fff69a"/><path d="m23 41 5-6h5l-4 6z" fill="#ffd782"/><path d="m34 41 4-6h5l-3 6z" fill="#ffd782"/><path d="m17 33-8.17 8.851 5.17 1.149 1-.25 9-9.75z" fill="#ffd782"/><path d="m14 22h2v3h-2z" fill="#f9bb4b"/><path d="m18 25h2v4h-2z" fill="#f9bb4b"/><path d="m56.03 41.243-.7-2.812a1 1 0 0 0 -.745-.732l-6.86-1.729.489-1.94 6.84 1.725a2.976 2.976 0 0 1 2.216 2.191l.835 3.3z" fill="#87cee9"/><path d="m38.06 29.01v.01c-.01 0-.02.01-.03.02-3.04 2.56-7.22 2.77-10.03-.04l-7-7 5.25-5.25.75 2.25.83.75 1.49 1.35 1.65 1.51 1.49 1.35 1.65 1.51 1.49 1.35 2.4 2.18a.044.044 0 0 0 .03.01z" fill="#87cee9"/><path d="m29.32 21.1-2.61 2.61-1.42-1.42 2.54-2.54z" fill="#195c85"/><path d="m32.46 23.96-2.75 2.75-1.42-1.42 2.68-2.68z" fill="#195c85"/><path d="m35.6 26.82-2.89 2.89-1.42-1.42 2.82-2.82z" fill="#195c85"/><path d="m57 51h-26l-6-2-7 2h-11a2 2 0 0 1 -2-2v-4l9 2 8-2h39v2a4 4 0 0 1 -4 4z" fill="#ffd782"/><path d="m5 45 9 2 8-2h39v-4h-39l-8 2-9-2z" fill="#fff69a"/><g fill="#d3843d"><path d="m38 48h2v3h-2z"/><path d="m33 48h2v3h-2z"/><path d="m43 48h2v3h-2z"/><path d="m48 48h2v3h-2z"/><path d="m53 48h2v3h-2z"/></g></svg>