<svg height="512" viewBox="0 0 64 64" width="512" xmlns="http://www.w3.org/2000/svg"><g id="Filled_outline" data-name="Filled outline"><path d="m5 41 9 2 8-2h39c0-4.971-3-8-9-9-3.531-.588-14-3-14-3l-11-10-2-6-5-1v3s-2 3-7 3a11.978 11.978 0 0 1 -8-3l-2 14z" fill="#32b1cc"/><path d="m26.25 16.75-5.25 5.25 7 7c2.81 2.81 6.991 2.6 10.031.041a.134.134 0 0 1 .036-.026h-.01l-.057-.015-11-10z" fill="#87cee9"/><path d="m57 51h-26l-6-2-7 2h-11a2 2 0 0 1 -2-2v-4l9 2 8-2h39v2a4 4 0 0 1 -4 4z" fill="#ffd782"/><path d="m5 45 9 2 8-2h39v-4h-39l-8 2-9-2z" fill="#fff69a"/><g fill="#d3843d"><path d="m38 48h2v3h-2z"/><path d="m33 48h2v3h-2z"/><path d="m43 48h2v3h-2z"/><path d="m48 48h2v3h-2z"/><path d="m53 48h2v3h-2z"/></g><path d="m25.379 20.5h4.243v2h-4.243z" fill="#195c85" transform="matrix(.707 -.707 .707 .707 -7.148 25.743)"/><path d="m28.379 23.5h4.243v2h-4.243z" fill="#195c85" transform="matrix(.707 -.707 .707 .707 -8.391 28.743)"/><path d="m31.379 26.5h4.243v2h-4.243z" fill="#195c85" transform="matrix(.707 -.707 .707 .707 -9.634 31.743)"/><path d="m4.835 40.012 10.165-11.012-11-7-.755 5.283 4.755 2.717-4.143 4.143z" fill="#87cee9"/><path d="m21 22h-17l11 7h13z" fill="#fff69a"/><path d="m23 41 5-6h5l-4 6z" fill="#ffd782"/><path d="m34 41 4-6h5l-3 6z" fill="#ffd782"/><path d="m17 33-8.17 8.851 5.17 1.149 1-.25 9-9.75z" fill="#ffd782"/><path d="m14 22h2v3h-2z" fill="#f9bb4b"/><path d="m18 25h2v4h-2z" fill="#f9bb4b"/><path d="m56.03 41.243-.7-2.812a1 1 0 0 0 -.745-.732l-6.86-1.729.489-1.94 6.84 1.725a2.976 2.976 0 0 1 2.216 2.191l.7 2.811z" fill="#87cee9"/><path d="m52.165 31.014c-3.156-.526-12.063-2.558-13.686-2.93l-10.613-9.648-1.917-5.752a1 1 0 0 0 -.753-.664l-5-1a.984.984 0 0 0 -.83.207 1 1 0 0 0 -.366.773v2.657a7.7 7.7 0 0 1 -6 2.343 11.112 11.112 0 0 1 -7.293-2.707 1 1 0 0 0 -1.7.565l-2 14a1.019 1.019 0 0 0 0 .307l1.993 11.918v7.917a3 3 0 0 0 3 3h11a.983.983 0 0 0 .275-.039l6.7-1.915 5.707 1.9a1 1 0 0 0 .318.054h26a5.006 5.006 0 0 0 5-5v-6c0-3.808-1.707-8.631-9.835-9.986zm-34.165-6.014v3h-2.708l-7.858-5h6.566v2h2v-2h4.586l5 5h-5.586v-3zm4.123 17h37.877v2h-38a1 1 0 0 0 -.243.03l-7.771 1.943-7.986-1.773v-1.953l7.783 1.729a1 1 0 0 0 .46-.006zm3.012-2 3.333-4h2.663l-2.666 4zm14.247 0h-3.513l2.666-4h2.847zm-35.37-11.012.015-.106 2.34 1.337-1.843 1.843zm9.974 12.985-3.242-.721 6.694-7.252h4.278l-7.248 7.852zm-8.5-4.14-.558-3.347 3.779-3.779a1 1 0 0 0 -.207-1.575l-4.165-2.38.44-3.076 8.679 5.524zm16.928-15.833 3.4-3.4.238.715a1 1 0 0 0 .276.424l.8.723-1.83 1.83 1.414 1.414 1.9-1.9 1.662 1.51-1.973 1.973 1.414 1.414 2.04-2.04 1.662 1.51-2.116 2.116 1.414 1.414 2.183-2.183 1.562 1.42a6.083 6.083 0 0 1 -7.745-.651zm-16.667-5.158a13.229 13.229 0 0 0 7.253 2.158c5.472 0 7.738-3.3 7.832-3.445a1.006 1.006 0 0 0 .168-.555v-1.78l3.235.647.871 2.613-4.52 4.52h-15.433zm54.253 30.158a3 3 0 0 1 -3 3h-2v-2h-2v2h-3v-2h-2v2h-3v-2h-2v2h-3v-2h-2v2h-3v-2h-2v2h-1.838l-5.846-1.949a1.009 1.009 0 0 0 -.591-.012l-6.865 1.961h-10.86a1 1 0 0 1 -1-1v-2.753l7.783 1.729a1 1 0 0 0 .46-.006l7.88-1.97h37.877zm-2.219-7-.514-2.054a2.976 2.976 0 0 0 -2.216-2.191l-6.84-1.725-.489 1.94 6.86 1.729a1 1 0 0 1 .745.732l.392 1.569h-14.1l2.281-4.553a1 1 0 0 0 -.9-1.447h-5a1 1 0 0 0 -.832.445l-3.703 5.555h-2.6l2.964-4.445a1 1 0 0 0 -.829-1.555h-5a1 1 0 0 0 -.768.36l-4.7 5.64h-.532a1 1 0 0 0 -.243.03l-3.751.938 6.729-7.29a1 1 0 0 0 -.735-1.678h-7a1 1 0 0 0 -.735.322l-7.78 8.428-2.464-.55 9.417-10.2h12.178a7.788 7.788 0 0 0 5.247 2.019 8.994 8.994 0 0 0 5.437-1.919c2.169.5 10.422 2.373 13.534 2.891 5.072.846 7.738 3.144 8.118 7.014z"/></g></svg>