<svg height="512" viewBox="0 0 64 64" width="512" xmlns="http://www.w3.org/2000/svg"><g id="Filled_outline" data-name="Filled outline"><path d="m58 36a132.547 132.547 0 0 1 -15 1h-40v8h42c12 0 16-2 16-2v-4c0-1.792-.25-3.333-3-3z" fill="#394d5c"/><path d="m23 40h7v2h-7z" fill="#aabece"/><path d="m52 42v-2a21.48 21.48 0 0 0 8.554-1.9l.893 1.79a23.155 23.155 0 0 1 -9.447 2.11z" fill="#aabece"/><path d="m19 40h2v2h-2z" fill="#aabece"/><path d="m15 40h2v2h-2z" fill="#aabece"/><path d="m3 40h10v2h-10z" fill="#aabece"/><path d="m39 41h-6l4-14h6z" fill="#32b1cc"/><path d="m49 41h-6l4-14h6z" fill="#32b1cc"/><path d="m6 19h20v6h-20z" fill="#87cee9"/><path d="m22 37h-9l-7-12h9z" fill="#32b1cc"/><g fill="#195c85"><path d="m10 19h2v3h-2z"/><path d="m15 19h2v3h-2z"/><path d="m20 19h2v3h-2z"/><path d="m8 28h4v2h-4z"/><path d="m14 28h3v2h-3z"/><path d="m10.667 32h5.333v2h-5.333z"/></g><path d="m57.879 35.007c-1.479.181-3.694.424-6.307.63l2.389-8.362a1 1 0 0 0 -.961-1.275h-6a1 1 0 0 0 -.961.725l-2.649 9.275h-1.921l2.492-8.725a1 1 0 0 0 -.961-1.275h-6a1 1 0 0 0 -.961.725l-2.65 9.275h-10.815l-5.833-10h9.259a1 1 0 0 0 1-1v-6a1 1 0 0 0 -1-1h-20a1 1 0 0 0 -1 1v6a.982.982 0 0 0 .07.344c.01.028.052.134.066.159l6.123 10.497h-8.259a1 1 0 0 0 -1 1v8a1 1 0 0 0 1 1h42c12.1 0 16.275-2.02 16.447-2.1a1 1 0 0 0 .553-.9v-4a4.186 4.186 0 0 0 -1.044-3.309 3.749 3.749 0 0 0 -3.077-.684zm-10.125-7.007h3.92l-3.428 12h-3.92zm-10 0h3.92l-3.428 12h-3.92zm-30.754-8h3v2h2v-2h3v2h2v-2h3v2h2v-2h3v4h-18zm5.408 14h3.592v-2h-4.759l-1.167-2h1.926v-2h-3.092l-1.167-2h6.685l1.166 2h-1.592v2h2.759l3.5 6h-6.685zm32.592 10h-41v-2h9v-2h-9v-2h28.817l-.778 2.725a1 1 0 0 0 .961 1.275h6a1 1 0 0 0 .961-.725l.939-3.275h1.92l-.778 2.725a1 1 0 0 0 .958 1.275h6a1 1 0 0 0 .961-.725l1.026-3.588c2.97-.22 5.5-.495 7.132-.694a2.1 2.1 0 0 1 1.51.2 1.812 1.812 0 0 1 .35 1.171 21.607 21.607 0 0 1 -7.979 1.636v2a23.324 23.324 0 0 0 8-1.5v1.813c-1.448.501-5.861 1.687-15 1.687z"/><path d="m23 40h7v2h-7z"/><path d="m19 40h2v2h-2z"/><path d="m15 40h2v2h-2z"/></g></svg>