<svg height="512" viewBox="0 0 64 64" width="512" xmlns="http://www.w3.org/2000/svg"><path d="m61 39v4s-4 2-16 2h-42v-8h40a132.466 132.466 0 0 0 15-1c2.18-.26 2.79.65 2.94 1.94a7.205 7.205 0 0 1 .06 1.06z" fill="#394d5c"/><path d="m23 40h7v2h-7z" fill="#aabece"/><path d="m61 39v1.1a23.446 23.446 0 0 1 -9 1.9v-2a23.9 23.9 0 0 0 8.94-2.06 7.205 7.205 0 0 1 .06 1.06z" fill="#aabece"/><path d="m19 40h2v2h-2z" fill="#aabece"/><path d="m15 40h2v2h-2z" fill="#aabece"/><path d="m3 40h10v2h-10z" fill="#aabece"/><path d="m39 41h-6l4-14h6z" fill="#32b1cc"/><path d="m49 41h-6l4-14h6z" fill="#32b1cc"/><path d="m6 19h20v6h-20z" fill="#87cee9"/><path d="m22 37h-9l-1.75-3-1.17-2-1.16-2-1.17-2-1.75-3h9l1.75 3 1.17 2z" fill="#32b1cc"/><g fill="#195c85"><path d="m10 19h2v3h-2z"/><path d="m15 19h2v3h-2z"/><path d="m20 19h2v3h-2z"/><path d="m12 28v2h-3.08l-1.17-2z"/><path d="m17.92 30h-3.92v-2h2.75z"/><path d="m16 32v2h-4.75l-1.17-2z"/></g></svg>