<svg height="512" viewBox="0 0 64 64" width="512" xmlns="http://www.w3.org/2000/svg"><g id="Filled_outline" data-name="Filled outline"><path d="m40 33-11-13s-6 4-12 4-11-4-11-4l-3 13 2 8h19l12 4h25v-2c0-2.536-1.625-4.938-5-6z" fill="#995f5b"/><path d="m40 38v-5l-11-13a29.172 29.172 0 0 1 -6.27 2.974l8.27 11.026v4z" fill="#ceac9a"/><path d="m8.493 29.042 1.143-6.858a20.75 20.75 0 0 1 -3.636-2.184l-3 13 2 8h12v-3a6 6 0 0 0 -6-6 2.54 2.54 0 0 1 -2.507-2.958z" fill="#ceac9a"/><path d="m3 45h20v4h-20z" fill="#ffd782"/><path d="m61 49h-26l-12-4h-20v-4h21l12 4h25z" fill="#f9bb4b"/><g fill="#301a12"><path d="m27.5 23.5h5v2h-5z" transform="matrix(.8 -.6 .6 .8 -8.7 22.908)"/><path d="m30.5 26.5h5v2h-5z" transform="matrix(.8 -.6 .6 .8 -9.9 25.308)"/><path d="m32.5 29.5h5v2h-5z" transform="matrix(.8 -.6 .6 .8 -11.301 27.109)"/></g><path d="m51 39h2v2h-2z"/><path d="m55 40h2v2h-2z"/><path d="m56 37-16-4v5h-16v3l12 4h25v-2c0-2.536-1.625-4.938-5-6z" fill="#66342e"/><path d="m34.5 32.5h5v2h-5z" fill="#301a12" transform="matrix(.8 -.6 .6 .8 -12.701 28.91)"/><path d="m7 36h2v2h-2z" fill="#f4f4e6"/><path d="m11 36h2v2h-2z" fill="#f4f4e6"/><path d="m16 29a14.785 14.785 0 0 1 -7.555-2.168l1.108-1.665a12.962 12.962 0 0 0 6.447 1.833z" fill="#d3843d"/><path d="m18 29v-2c1.277 0 4.9-.312 6.293-1.707l1.414 1.414c-2.228 2.229-7.153 2.293-7.707 2.293z" fill="#d3843d"/><path d="m51 39h2v2h-2z"/><path d="m55 40h2v2h-2z"/><path d="m56.243 36.03-15.688-3.922-10.792-12.754a1 1 0 0 0 -1.318-.186c-.057.038-5.813 3.832-11.445 3.832a18.335 18.335 0 0 1 -9.53-3.184 6.677 6.677 0 0 0 1.53-3.816 3 3 0 0 0 -6 0 7.176 7.176 0 0 0 1.908 4.285l-2.883 12.49a1.014 1.014 0 0 0 0 .468l1.694 6.757h-.719a1 1 0 0 0 -1 1v8a1 1 0 0 0 1 1h20a1 1 0 0 0 1-1v-2.613l10.684 3.562a1 1 0 0 0 .316.051h26a1 1 0 0 0 1-1v-6c0-3.23-2.131-5.83-5.757-6.97zm-27.449-14.725 1.475 1.743-2.869 2.152 1.2 1.6 2.963-2.223 1.424 1.683-2.587 1.94 1.2 1.6 2.681-2.011 1.035 1.224-2.916 2.187 1.2 1.6 3.01-2.258 1.036 1.224-3.246 2.434 1.2 1.6 3.34-2.5.06.071v3.629h-7v-3a1 1 0 0 0 -.2-.6l-7.454-9.938a31 31 0 0 0 4.448-2.157zm-6.435 2.841 1.241 1.654a13.34 13.34 0 0 1 -5.6 1.2v2c.488 0 4.368-.052 6.808-1.589l5.192 6.922v2.667h-6a1 1 0 0 0 -1 1v2h-5v-2a7.009 7.009 0 0 0 -7-7 1.539 1.539 0 0 1 -1.52-1.793l.277-1.658a14.818 14.818 0 0 0 6.243 1.451v-2a13 13 0 0 1 -5.9-1.519l.311-1.864a17.621 17.621 0 0 0 6.589 1.383 18.907 18.907 0 0 0 5.359-.854zm-16.359-9.146a1 1 0 0 1 1 1 4.644 4.644 0 0 1 -1 2.439 4.644 4.644 0 0 1 -1-2.439 1 1 0 0 1 1-1zm-1.972 17.991 2.613-11.321c.5.322 1.141.7 1.886 1.087l-1.02 6.121a3.539 3.539 0 0 0 3.493 4.122 5.006 5.006 0 0 1 5 5v2h-10.219zm17.972 15.009h-18v-2h18zm38 0h-24.838l-11.846-3.949a1 1 0 0 0 -.316-.051h-19v-2h19.838l11.846 3.949a1 1 0 0 0 .316.051h24zm0-4h-23.838l-11.162-3.721v-1.279h15a1 1 0 0 0 1-1v-3.719l14.7 3.673c2.693.846 4.3 2.734 4.3 5.046z"/><path d="m7 36h2v2h-2z"/><path d="m11 36h2v2h-2z"/></g></svg>