<svg height="512" viewBox="0 0 64 64" width="512" xmlns="http://www.w3.org/2000/svg"><path d="m61 43v2h-25l-12-4h-19l-2-8 3-13a20.88 20.88 0 0 0 3.67 2.21 17.547 17.547 0 0 0 7.33 1.79 18.74 18.74 0 0 0 5.8-1.04 28.971 28.971 0 0 0 6.2-2.96l2.07 2.45 1.29 1.53 1.43 1.68 1.29 1.53 1.04 1.22 1.29 1.53 1.04 1.22 1.29 1.54.26.3 16 4c3.38 1.06 5 3.46 5 6z" fill="#995f5b"/><path d="m18 29v-2c1.277 0 5.171-.528 6.567-1.923l1.14 1.63c-2.228 2.229-7.153 2.293-7.707 2.293z" fill="#d3843d"/><path d="m40 33v5h-9v-4l-8.2-11.04a28.971 28.971 0 0 0 6.2-2.96l2.07 2.45 1.29 1.53 1.43 1.68 1.29 1.53 1.04 1.22 1.29 1.53 1.04 1.22 1.29 1.54z" fill="#ceac9a"/><path d="m3 45h20v4h-20z" fill="#ffd782"/><path d="m61 49h-26l-12-4h-20v-4h21l12 4h25z" fill="#f9bb4b"/><g fill="#301a12"><path d="m32.36 23.98-3.76 2.82-1.2-1.6 3.67-2.75z"/><path d="m35.08 27.19-3.48 2.61-1.2-1.6 3.39-2.54z"/><path d="m37.41 29.94-3.81 2.86-1.2-1.6 3.72-2.79z"/></g><path d="m51 39h2v2h-2z"/><path d="m55 40h2v2h-2z"/><path d="m56 37-16-4v5h-16v3l12 4h25v-2c0-2.536-1.625-4.938-5-6z" fill="#66342e"/><path d="m39.74 32.7-4.14 3.1-1.2-1.6 4.05-3.04z" fill="#301a12"/><path d="m16 29a14.785 14.785 0 0 1 -7.555-2.168l.555-1.944a15 15 0 0 0 7 2.112z" fill="#d3843d"/><path d="m17 38v3h-12l-2-8 3-13a20.88 20.88 0 0 0 3.67 2.21l-1.18 6.83a2.984 2.984 0 0 0 -.04.42 2.546 2.546 0 0 0 2.55 2.54 6 6 0 0 1 6 6z" fill="#ceac9a"/><path d="m6 21a1 1 0 0 1 -.707-.293c-.235-.234-2.293-2.36-2.293-4.707a3 3 0 0 1 6 0c0 2.347-2.058 4.473-2.293 4.707a1 1 0 0 1 -.707.293zm0-6a1 1 0 0 0 -1 1 4.644 4.644 0 0 0 1 2.439 4.644 4.644 0 0 0 1-2.439 1 1 0 0 0 -1-1z" fill="#66342e"/><path d="m7 36h2v2h-2z" fill="#f4f4e6"/><path d="m11 36h2v2h-2z" fill="#f4f4e6"/></svg>