<svg height="512" viewBox="0 0 64 64" width="512" xmlns="http://www.w3.org/2000/svg"><path d="m58.36 48h-24.22a9.63 9.63 0 0 1 -7.14-4c-3.84-5.12-10.85-12-12.02-5l-.56 5-.45 4h-3.82s-.25-1.76-.78-4c-.64-2.76-1.7-6.24-3.22-8a11.737 11.737 0 0 1 -1.27-1.78 13.625 13.625 0 0 1 -1.12-2.3 13.206 13.206 0 0 1 -.76-2.92l16 3a33.2 33.2 0 0 0 -16-12v-3h2c12 3 28.28 19.32 34.15 21 7 2 9.92 2 18 4 7.85 2 1.21 6 1.21 6z" fill="#f98c96"/><circle cx="10" cy="21" fill="#87cee9" r="3"/><path d="m13.22 34.02-.44 1.96-7.9-1.76a13.625 13.625 0 0 1 -1.12-2.3z" fill="#db527d"/><path d="m14.42 44-.45 4h-3.82s-.25-1.76-.78-4z" fill="#d9176c"/><path d="m39.016 45.077c-2.909 0-5.87-.2-7.539-1.225a19.369 19.369 0 0 1 -4.467-4.211c-.557-.668-1.082-1.3-1.717-1.934a23.788 23.788 0 0 0 -6.683-4.786l.78-1.842a25.526 25.526 0 0 1 7.317 5.214c.7.7 1.278 1.4 1.839 2.066a17.448 17.448 0 0 0 4.009 3.809c1.69 1.039 6.051.938 9.243.867.8-.018 1.543-.035 2.2-.035v2c-.646 0-1.378.017-2.157.034-.902.021-1.861.043-2.825.043z" fill="#db527d"/></svg>