<svg height="512" viewBox="0 0 64 64" width="512" xmlns="http://www.w3.org/2000/svg"><g id="Filled_outline" data-name="Filled outline"><path d="m57.146 42c-8.073-2-11-2-18-4-5.868-1.677-22.146-18-34.146-21h-2v3a33.2 33.2 0 0 1 16 12l-16-3a14.241 14.241 0 0 0 3.146 7c2.75 3.188 4 12 4 12h3.827l1.007-9c1.166-7 8.178-.122 12.02 5a9.635 9.635 0 0 0 7.144 4h24.219s6.637-4-1.217-6z" fill="#f98c96"/><circle cx="10" cy="21" fill="#87cee9" r="3"/><path d="m7.5 29.39h2.001v9.22h-2.001z" fill="#db527d" transform="matrix(.217 -.976 .976 .217 -26.534 34.922)"/><path d="m9.371 44c.523 2.234.775 4 .775 4h3.827l.448-4z" fill="#d9176c"/><path d="m39.016 45.077c-2.909 0-5.87-.2-7.539-1.225a19.369 19.369 0 0 1 -4.467-4.211c-.557-.668-1.082-1.3-1.717-1.934a23.788 23.788 0 0 0 -6.683-4.786l.78-1.842a25.526 25.526 0 0 1 7.317 5.214c.7.7 1.278 1.4 1.839 2.066a17.448 17.448 0 0 0 4.009 3.809c1.69 1.039 6.051.938 9.243.867.8-.018 1.543-.035 2.2-.035v2c-.646 0-1.378.017-2.157.034-.902.021-1.861.043-2.825.043z" fill="#db527d"/><path d="m61.956 44.378c-.226-1.528-1.717-2.623-4.565-3.349-3.7-.915-6.373-1.424-8.735-1.874a92.741 92.741 0 0 1 -9.23-2.117c-2.19-.626-6.217-3.656-10.88-7.166a144.1 144.1 0 0 0 -14.784-10.18 3.911 3.911 0 0 0 -4.993-2.478 25.631 25.631 0 0 0 -3.529-1.185 1.017 1.017 0 0 0 -.24-.029h-2a1 1 0 0 0 -1 1v3a1 1 0 0 0 .657.939 35.037 35.037 0 0 1 3.648 1.584 4 4 0 0 0 3.695 2.477 3.914 3.914 0 0 0 .408-.041 32.8 32.8 0 0 1 6.217 5.578l-13.44-2.519a1 1 0 0 0 -1.175 1.121 15.078 15.078 0 0 0 3.383 7.514c2.1 2.432 3.43 9.117 3.767 11.488a1 1 0 0 0 .99.859h3.82a1 1 0 0 0 .994-.889l1-8.946c.144-.867.466-1.937 1.17-2.109 1.644-.4 5.538 2.843 9.063 7.544a10.588 10.588 0 0 0 7.943 4.4h24.22a1 1 0 0 0 .516-.144c.352-.211 3.424-2.136 3.08-4.478zm-57.956-26.378h.876c.614.156 1.263.367 1.937.608a3.967 3.967 0 0 0 -.732 1.592c-.681-.321-1.381-.621-2.081-.892zm4 3a2 2 0 1 1 2 2 2 2 0 0 1 -2-2zm3 26c-.085-.5-.213-1.2-.381-2h2.681l-.225 2zm47.065 0h-23.92a8.584 8.584 0 0 1 -6.345-3.6c-1.637-2.181-7.263-9.22-11.136-8.288-1.417.346-2.314 1.6-2.678 3.777l-.461 4.111h-3.361c-.687-2.723-1.754-5.91-3.259-7.656-.216-.249-.415-.531-.615-.81l6.493 1.443.434-1.954-8.242-1.831a13.624 13.624 0 0 1 -.7-1.935l14.424 2.7a24.15 24.15 0 0 1 6.594 4.746c.635.635 1.16 1.266 1.717 1.934a19.369 19.369 0 0 0 4.467 4.211c1.669 1.027 4.63 1.225 7.539 1.225.964.004 4.338-.073 4.984-.073v-2c-.659 0-1.406.017-2.2.035-3.192.071-7.553.172-9.243-.867a17.448 17.448 0 0 1 -4.009-3.809c-.561-.671-1.14-1.368-1.839-2.066a26.3 26.3 0 0 0 -7.031-5.084 31.708 31.708 0 0 0 -7.111-7.165 3.979 3.979 0 0 0 1.277-1.992 155.121 155.121 0 0 1 13.5 9.419c5.02 3.778 8.986 6.762 11.533 7.491a96.331 96.331 0 0 0 9.406 2.158c2.45.467 4.985.949 8.621 1.849 2.162.551 3.005 1.239 3.075 1.7.095.652-.986 1.713-1.91 2.331z"/></g></svg>