<svg height="512" viewBox="0 0 64 64" width="512" xmlns="http://www.w3.org/2000/svg"><path d="m3 39h58v8h-58z" fill="#f4f4e6"/><path d="m31 23a38.911 38.911 0 0 1 -12 2 89.6 89.6 0 0 1 -16-2v4s10 2 16 2c8.61 0 13.29-2.375 15.683-2.931z" fill="#cfdfe8"/><path d="m37 28-2.317-1.931c-2.393.556-7.073 2.931-15.683 2.931-6 0-16-2-16-2v12h23l10-7c2.021-1.521 1.98-3.142 1-4z" fill="#aabece"/><path d="m3 39h6v5h-6z" fill="#ddddce"/><path d="m3 31a8 8 0 0 1 8 8 0 0 0 0 1 0 0h-8a0 0 0 0 1 0 0v-8a0 0 0 0 1 0 0z" fill="#cfdfe8"/><path d="m29.474 37.488-3.474-3.488 4-3 3.838 3.553z" fill="#cfdfe8"/><path d="m13 32h2v2h-2z" fill="#f4f4e6"/><path d="m17 34h2v2h-2z" fill="#f4f4e6"/><g fill="#394d5c"><path d="m9 42h32v2h-32z"/><path d="m43 42h2v2h-2z"/><path d="m47 42h14v2h-14z"/><path d="m26 39 10-7c2.021-1.521 1.98-3.142 1-4l-6-5c-1.832-1.5-1.548-3.452.125-5.125l.875-.875 7 6 17.579 6a6 6 0 0 1 4.421 5.789v4.211z"/></g><path d="m58 39h-2v-4c0-.96-.2-1.017-.274-1.038l-6.042-2.014.632-1.9 6 2c1.684.483 1.684 2.342 1.684 2.952z" fill="#7d8d9c"/></svg>