<svg height="512" viewBox="0 0 64 64" width="512" xmlns="http://www.w3.org/2000/svg"><g id="Filled_outline" data-name="Filled outline"><path d="m3 39h58v8h-58z" fill="#f4f4e6"/><path d="m26 39 10-7c2.021-1.521 1.98-3.142 1-4l-6-5c-1.832-1.5-1.548-3.452.125-5.125l.875-.875 7 6 17.579 6a6 6 0 0 1 4.421 5.789v4.211z" fill="#394d5c"/><path d="m31 23a38.911 38.911 0 0 1 -12 2 89.6 89.6 0 0 1 -16-2v4s10 2 16 2c8.61 0 13.29-2.375 15.683-2.931z" fill="#cfdfe8"/><path d="m37 28-2.317-1.931c-2.393.556-7.073 2.931-15.683 2.931-6 0-16-2-16-2v12h23l10-7c2.021-1.521 1.98-3.142 1-4z" fill="#aabece"/><path d="m3 39h6v4h-6z" fill="#ddddce"/><path d="m3 31a8 8 0 0 1 8 8 0 0 0 0 1 0 0h-8a0 0 0 0 1 0 0v-8a0 0 0 0 1 0 0z" fill="#cfdfe8"/><path d="m28.941 36.953-2.941-2.953 4-3 3.071 3.059z" fill="#cfdfe8"/><path d="m58 39h-2v-4c0-.96-.2-1.017-.274-1.038l-6.042-2.014.632-1.9 6 2c1.684.483 1.684 2.342 1.684 2.952z" fill="#7d8d9c"/><path d="m13 32h2v2h-2z" fill="#f4f4e6"/><path d="m17 34h2v2h-2z" fill="#f4f4e6"/><g fill="#394d5c"><path d="m9 42h32v2h-32z"/><path d="m43 42h2v2h-2z"/><path d="m47 42h14v2h-14z"/></g><path d="m56.9 28.054-17.4-5.939-6.85-5.874a1 1 0 0 0 -1.357.052l-.875.875a4.923 4.923 0 0 0 -1.67 3.668 3.627 3.627 0 0 0 .514 1.661 37.664 37.664 0 0 1 -10.262 1.503 89.014 89.014 0 0 1 -15.783-1.977 1 1 0 0 0 -1.217.977v24a1 1 0 0 0 1 1h58a1 1 0 0 0 1-1v-12.211a6.993 6.993 0 0 0 -5.1-6.735zm-37.9-2.054a39.872 39.872 0 0 0 11.785-1.877l1.831 1.526-.218.071a38.988 38.988 0 0 1 -13.398 2.28c-4.86 0-12.523-1.361-15-1.826v-1.944a85.119 85.119 0 0 0 15 1.77zm10.05 9.644-1.529-1.535 2.386-1.79 1.607 1.6zm4.128-2.889-2.472-2.463a1 1 0 0 0 -1.306-.092l-4 3a1 1 0 0 0 -.109 1.506l2.095 2.1-1.701 1.194h-13.744a9.011 9.011 0 0 0 -7.941-7.941v-1.849a98.675 98.675 0 0 0 15 1.79 41.331 41.331 0 0 0 14.028-2.382c.529-.175 1-.332 1.412-.45l1.9 1.585a.846.846 0 0 1 .312.692 2.659 2.659 0 0 1 -1.227 1.736zm-29.178 7.245h4v2h-4zm0-2v-5.929a7.015 7.015 0 0 1 5.929 5.929zm0 8v-2h37v-2h-31v-2h50v2h-13v2h13v2zm56-8h-2v-3c0-.61 0-2.469-1.684-2.948l-6-2-.632 1.9 6.042 2.014c.074.017.274.074.274 1.034v3h-26.828l7.43-5.2a4.362 4.362 0 0 0 2.05-3.28 2.847 2.847 0 0 0 -1.011-2.288l-6.008-5.005a2.1 2.1 0 0 1 -.887-1.49 3.064 3.064 0 0 1 1.086-2.154l.221-.22 6.3 5.4a.977.977 0 0 0 .327.187l17.639 6.019a5.011 5.011 0 0 1 3.681 4.82z"/><path d="m13 32h2v2h-2z"/><path d="m17 34h2v2h-2z"/><path d="m43 42h2v2h-2z"/></g></svg>