<svg height="512" viewBox="0 0 64 64" width="512" xmlns="http://www.w3.org/2000/svg"><g id="Filled_outline" data-name="Filled outline"><path d="m3 41 7 3 5-2 5 2 8-2 6 2h27c0-4.971-3-8-9-9-3.531-.588-11-2-11-2l-12-11v-5h-6l-1 4h-10l-2-4h-5l-2 12 2 6z" fill="#cfdfe8"/><path d="m37 36 4-3-12-11v-2l-7 6 10 10z" fill="#f9bb4b"/><path d="m57 54h-23l-6-2-7 2h-14a4 4 0 0 1 -4-4v-5l7 3 5-2 5 2 8-2 6 2h27v2a4 4 0 0 1 -4 4z" fill="#195c85"/><path d="m3 45 7 3 5-2 5 2 8-2 6 2h27v-4h-27l-6-2-8 2-5-2-5 2-7-3z" fill="#f9bb4b"/><g fill="#2d75bb"><path d="m37 51h2v3h-2z"/><path d="m42 51h2v3h-2z"/><path d="m47 51h2v3h-2z"/><path d="m52 51h2v3h-2z"/><path d="m7 51h2v3h-2z"/><path d="m12 51h2v3h-2z"/><path d="m17 51h2v3h-2z"/></g><path d="m27.379 24.5h4.243v2h-4.243z" fill="#195c85" transform="matrix(.707 -.707 .707 .707 -9.391 28.328)"/><path d="m30.379 27.5h4.243v2h-4.243z" fill="#195c85" transform="matrix(.707 -.707 .707 .707 -10.634 31.328)"/><path d="m57 41h-2c0-.2 0-.8-1.179-1.016l-11.986-2 .33-1.972 12 2a3.041 3.041 0 0 1 2.835 2.988z" fill="#f4f4e6"/><path d="m33.172 30h5.657v2h-5.657z" fill="#195c85" transform="matrix(.707 -.707 .707 .707 -11.376 34.536)"/><path d="m5 35h12l4-4-6-6h-6l-4-8-2 12z" fill="#195c85"/><path d="m7 38h2v2h-2z" fill="#e1462b"/><path d="m11 38h2v2h-2z" fill="#e1462b"/><circle cx="11" cy="30" fill="#e1462b" r="3"/><path d="m19.5 35.5h5v2h-5z" fill="#e1462b" transform="matrix(.8 -.6 .6 .8 -17.503 20.508)"/><path d="m21.5 37.5h5v2h-5z" fill="#e1462b" transform="matrix(.8 -.6 .6 .8 -18.303 22.108)"/><path d="m54.165 38.014-12-2-.33 1.972 11.986 2c1.179.214 1.179.814 1.179 1.014h2a3.041 3.041 0 0 0 -2.835-2.986z"/><path d="m52.165 34.014c-3.095-.516-9.309-1.682-10.7-1.944l-11.465-10.51v-4.56a1 1 0 0 0 -1-1h-6a1 1 0 0 0 -.97.757l-.811 3.243h-8.6l-1.719-3.447a1 1 0 0 0 -.9-.553h-1.944a5.722 5.722 0 0 0 1.944-4c0-2.168-1.374-4-3-4-1.682 0-3 1.757-3 4v4.917l-1.986 11.918a1 1 0 0 0 .037.481l1.895 5.684-1.895 5.684a1.781 1.781 0 0 0 -.051.316v9a5.006 5.006 0 0 0 5 5h14a.983.983 0 0 0 .275-.039l6.7-1.915 5.707 1.9a1 1 0 0 0 .318.054h23a5.006 5.006 0 0 0 5-5v-6c0-3.808-1.707-8.631-9.835-9.986zm-24.134-11.866a.991.991 0 0 0 .293.589l1.317 1.208-2.348 2.348 1.414 1.414 2.41-2.41 1.655 1.517-2.479 2.479 1.414 1.414 2.54-2.54 1.653 1.517-2.609 2.609 1.414 1.414 2.671-2.671 2.058 1.887-2.767 2.077h-4.253l-8.943-8.943zm-22.31 11.852-1.694-5.081 1.454-8.719 2.624 5.249a1 1 0 0 0 .895.551h5.586l5 5-3 3zm54.279 13h-25.838l-5.846-1.949a1 1 0 0 0 -.559-.021l-7.686 1.922-4.7-1.881a1.017 1.017 0 0 0 -.744 0l-4.615 1.846-6.012-2.576v-1.825l5.606 2.4a1 1 0 0 0 .394.084 1.02 1.02 0 0 0 .372-.071l4.628-1.852 4.628 1.852a1.01 1.01 0 0 0 .615.041l7.717-1.929 5.724 1.908a1 1 0 0 0 .316.051h26zm-54-35c0-1.221.592-2 1-2 .3 0 1 .776 1 2a4.528 4.528 0 0 1 -2 3.158zm54 38a3 3 0 0 1 -3 3h-3v-2h-2v2h-3v-2h-2v2h-3v-2h-2v2h-3v-2h-2v2h-2.838l-5.846-1.949a.993.993 0 0 0 -.591-.012l-6.865 1.961h-1.86v-2h-2v2h-3v-2h-2v2h-3v-2h-2v2a3 3 0 0 1 -3-3v-3.483l5.606 2.4a1.006 1.006 0 0 0 .766.01l4.628-1.85 4.628 1.852a1.01 1.01 0 0 0 .615.041l7.717-1.929 5.724 1.908a1 1 0 0 0 .316.051h26zm-25.838-7-5.846-1.949a.986.986 0 0 0 -.559-.021l-7.686 1.922-4.7-1.881a1.017 1.017 0 0 0 -.744 0l-4.615 1.846-5.772-2.474 1.481-4.443h11.279a1 1 0 0 0 .707-.293l4-4a1 1 0 0 0 0-1.414l-6-6a1 1 0 0 0 -.707-.293h-5.382l-3-6h2.764l1.723 3.447a1 1 0 0 0 .895.553h10a1 1 0 0 0 .97-.757l.811-3.243h4.219v1.54l-6.651 5.7a1 1 0 0 0 -.056 1.466l10 10a1 1 0 0 0 .707.294h5a1 1 0 0 0 .6-.2l3.648-2.736c1.632.307 7.57 1.419 10.587 1.922 5.072.846 7.738 3.144 8.118 7.014z"/><path d="m7 38h2v2h-2z"/><path d="m11 38h2v2h-2z"/><path d="m7 30a4 4 0 1 0 4-4 4 4 0 0 0 -4 4zm4-2a2 2 0 1 1 -2 2 2 2 0 0 1 2-2z"/><path d="m19.5 35.5h5v2h-5z" transform="matrix(.8 -.6 .6 .8 -17.5 20.5)"/><path d="m21.5 37.5h5v2h-5z" transform="matrix(.8 -.6 .6 .8 -18.303 22.108)"/></g></svg>