<svg height="512" viewBox="0 0 64 64" width="512" xmlns="http://www.w3.org/2000/svg"><path d="m61 44h-27l-6-2-8 2-5-2-5 2-7-3 2-6-2-6 2-12h5l2 4h10l1-4h6v5l1.35 1.24 1.47 1.35 1.66 1.52 1.47 1.35 1.66 1.51 1.48 1.36 2.91 2.67s7.47 1.41 11 2a12.123 12.123 0 0 1 6.75 3.01 8.133 8.133 0 0 1 2.25 5.99z" fill="#cfdfe8"/><path d="m41 33-4 3h-5l-10-10 7-6v2l1.35 1.24 1.47 1.35 1.66 1.52 1.47 1.35 1.66 1.51 1.48 1.36z" fill="#f9bb4b"/><path d="m57 54h-23l-6-2-7 2h-14a4 4 0 0 1 -4-4v-5l7 3 5-2 5 2 8-2 6 2h27v2a4 4 0 0 1 -4 4z" fill="#195c85"/><path d="m3 45 7 3 5-2 5 2 8-2 6 2h27v-4h-27l-6-2-8 2-5-2-5 2-7-3z" fill="#f9bb4b"/><g fill="#2d75bb"><path d="m37 51h2v3h-2z"/><path d="m42 51h2v3h-2z"/><path d="m47 51h2v3h-2z"/><path d="m52 51h2v3h-2z"/><path d="m7 51h2v3h-2z"/><path d="m12 51h2v3h-2z"/><path d="m17 51h2v3h-2z"/></g><path d="m31.82 24.59-3.11 3.12-1.42-1.42 3.06-3.05z" fill="#195c85"/><path d="m34.95 27.46-3.24 3.25-1.42-1.42 3.19-3.18z" fill="#195c85"/><path d="m57 41h-2c0-.2 0-.8-1.179-1.016l-11.986-2 .33-1.972 12 2a3.041 3.041 0 0 1 2.835 2.988z" fill="#f4f4e6"/><path d="m38.09 30.33-3.38 3.38-1.42-1.42 3.32-3.32z" fill="#195c85"/><path d="m5 35h12l4-4-6-6h-6l-4-8-2 12z" fill="#195c85"/><path d="m7 38h2v2h-2z" fill="#e1462b"/><path d="m11 38h2v2h-2z" fill="#e1462b"/><circle cx="11" cy="30" fill="#e1462b" r="3"/><path d="m19.5 35.5h5v2h-5z" fill="#e1462b" transform="matrix(.8 -.6 .6 .8 -17.503 20.508)"/><path d="m21.5 37.5h5v2h-5z" fill="#e1462b" transform="matrix(.8 -.6 .6 .8 -18.303 22.108)"/><path d="m5 18a1 1 0 0 1 -1-1v-5c0-2.243 1.318-4 3-4 1.626 0 3 1.832 3 4 0 3.577-4.367 5.8-4.553 5.9a1 1 0 0 1 -.447.1zm2-8c-.408 0-1 .779-1 2v3.158a4.528 4.528 0 0 0 2-3.158c0-1.224-.7-2-1-2z" fill="#aabece"/></svg>