<svg height="512" viewBox="0 0 64 64" width="512" xmlns="http://www.w3.org/2000/svg"><g id="Filled_outline" data-name="Filled outline"><path d="m56 33-16-4-14-13a11.6 11.6 0 0 1 -9 4c-7 0-9-4-9-4h-5l1.846 5a44.8 44.8 0 0 0 -1.846 11c0 6 2 9 2 9h56v-2c0-2.536-1.625-4.938-5-6z" fill="#8ec13f"/><path d="m56 33-16-4c-1.451 1.407-3.822 3-9 3-11 0-11 9-11 9h23c0-6 13-8 13-8z" fill="#c8d952"/><path d="m5 41h56a0 0 0 0 1 0 0 4 4 0 0 1 -4 4h-48a4 4 0 0 1 -4-4 0 0 0 0 1 0 0z" fill="#32b1cc"/><path d="m3.019 32.908c.187 5.392 1.981 8.092 1.981 8.092h15a29.256 29.256 0 0 1 -10-6c-2.4-2.4-5.157-2-6.981-2.092z" fill="#c8d952"/><path d="m40 32h2v2h-2z" fill="#f4f4e6"/><path d="m36 34h2v2h-2z" fill="#f4f4e6"/><path d="m31 35h2v2h-2z" fill="#f4f4e6"/><path d="m26 36h2v2h-2z" fill="#f4f4e6"/><g fill="#195c85"><path d="m12 49a2 2 0 0 1 -2-2v-2h4v2a2 2 0 0 1 -2 2z"/><path d="m20 49a2 2 0 0 1 -2-2v-2h4v2a2 2 0 0 1 -2 2z"/><path d="m45 49a2 2 0 0 1 -2-2v-2h4v2a2 2 0 0 1 -2 2z"/><path d="m37 49a2 2 0 0 1 -2-2v-2h4v2a2 2 0 0 1 -2 2z"/><path d="m53 49a2 2 0 0 1 -2-2v-2h4v2a2 2 0 0 1 -2 2z"/></g><path d="m56.3 32.046-.058-.016-15.75-3.938-13.811-12.825a1.016 1.016 0 0 0 -.768-.262 1 1 0 0 0 -.711.392 10.528 10.528 0 0 1 -8.202 3.603c-6.225 0-8.036-3.314-8.1-3.447a1 1 0 0 0 -.9-.553h-5a1 1 0 0 0 -.938 1.346l1.73 4.688a44.442 44.442 0 0 0 -1.792 10.966c0 5.4 1.559 8.511 2.034 9.334a4.99 4.99 0 0 0 4.966 4.666v1a3 3 0 0 0 6 0v-1h2v1a3 3 0 0 0 6 0v-1h11v1a3 3 0 0 0 6 0v-1h2v1a3 3 0 0 0 6 0v-1h2v1a3 3 0 0 0 6 0v-1h1a5.006 5.006 0 0 0 5-5v-2c0-3.23-2.131-5.83-5.7-6.954zm-14.2 7.954h-21c.359-2.152 2.04-7 9.9-7 5.16 0 7.76-1.556 9.28-2.9l11.431 2.858c-.815.236-1.69.519-2.57.857-4.19 1.613-6.541 3.691-7.041 6.185zm-38.016-6.069a6.683 6.683 0 0 1 5.209 1.776 25.45 25.45 0 0 0 5.991 4.293h-9.695a16.933 16.933 0 0 1 -1.505-6.069zm23.676-14.931 2.155 2h-2.4zm4.24 3.936 2.222 2.064h-2.222zm-24.547-5.936c.875 1.217 3.535 4 9.547 4a12.8 12.8 0 0 0 8.926-3.459l-.426 3.459h-2.5v2h2.251l-.243 1.97 1.984.245.274-2.215h2.734v2h-1v2h1v2h2v-2h4.376l2.129 1.976c-1.363 1.049-3.505 2.024-7.505 2.024-9.133 0-11.314 5.865-11.835 8.611a27.023 27.023 0 0 1 -8.458-5.318 8.774 8.774 0 0 0 -6.707-2.364c0-.631.035-1.279.091-1.931 1.729-.076 5.509.11 8.2 2.8 2.918 2.918 5.243 3.324 6.311 3.324a2.906 2.906 0 0 0 .608-.054l-.4-1.959c-.02 0-2.082.3-5.105-2.725a12.76 12.76 0 0 0 -9.379-3.4c.1-.68.213-1.342.335-1.972a12.3 12.3 0 0 1 8.712 2.86l1.25-1.561a14.48 14.48 0 0 0 -9.531-3.324c.373-1.592.7-2.669.708-2.694a1.009 1.009 0 0 0 -.018-.64l-1.346-3.653zm5.547 30a1 1 0 0 1 -2 0v-1h2zm8 0a1 1 0 0 1 -2 0v-1h2zm17 0a1 1 0 0 1 -2 0v-1h2zm8 0a1 1 0 0 1 -2 0v-1h2zm8 0a1 1 0 0 1 -2 0v-1h2zm3-3h-48a3.006 3.006 0 0 1 -2.829-2h53.658a3.006 3.006 0 0 1 -2.829 2zm3-4h-2.041c-.192-2.5-1.06-3.515-1.252-3.707a1 1 0 0 0 -.707-.293h-2v2h1.46a5.76 5.76 0 0 1 .493 2h-11.762c1.211-3.484 8.478-5.431 11.713-5.969 2.565.878 4.096 2.718 4.096 4.969z"/><path d="m19 32.092v-2a5.865 5.865 0 0 1 -3.294-1.708l-1.413 1.416c.234.234 2.36 2.292 4.707 2.292z"/><path d="m40 32h2v2h-2z"/><path d="m36 34h2v2h-2z"/><path d="m31 35h2v2h-2z"/><path d="m26 36h2v2h-2z"/></g></svg>