<svg height="512" viewBox="0 0 64 64" width="512" xmlns="http://www.w3.org/2000/svg"><path d="m61 39v2h-56s-1.79-2.69-1.98-8.07c-.01-.3-.02-.61-.02-.93q0-.99.09-2.01c.05-.67.13-1.34.23-2 .09-.69.2-1.36.32-2 .14-.72.29-1.39.42-2 .42-1.78.79-2.99.79-2.99l-1.85-5h5s2 4 9 4a11.6 11.6 0 0 0 9-4l.1.1 1.81 1.67 3.09 2.87 2.54 2.36 2.15 2 2.16 2 2.15 2 16 4c3.38 1.06 5 3.46 5 6z" fill="#8ec13f"/><path d="m56 33-16-4c-1.451 1.407-3.822 3-9 3-11 0-11 9-11 9h23c0-6 13-8 13-8z" fill="#c8d952"/><path d="m5 41h56a0 0 0 0 1 0 0 4 4 0 0 1 -4 4h-48a4 4 0 0 1 -4-4 0 0 0 0 1 0 0z" fill="#32b1cc"/><path d="m37.85 27h-4.85v2h-2v-2h-2v-2h2v-2h-3.73l-.28 2.21-1.98-.24.24-1.97h-2.25v-2h2.5l.6-4.9 1.81 1.67-.4 3.23h3.49v-.36l2.54 2.36h-.54v2h2.69z" fill="#f4f4e6"/><path d="m20 41h-15s-1.79-2.69-1.98-8.07c1.98.01 4.96.05 6.98 2.07a29.256 29.256 0 0 0 10 6z" fill="#c8d952"/><path d="m18 36.07a3.608 3.608 0 0 1 -.61.05c-1.07 0-3.39-.4-6.31-3.32a10.932 10.932 0 0 0 -7.99-2.81c.05-.67.13-1.34.23-2a12.651 12.651 0 0 1 9.18 3.4c3.02 3.02 5.08 2.72 5.1 2.72z" fill="#f4f4e6"/><path d="m13.41 27.31-1.25 1.56a12.442 12.442 0 0 0 -8.52-2.88c.14-.72.29-1.39.42-2a14.515 14.515 0 0 1 9.35 3.32z" fill="#f4f4e6"/><path d="m17.788 32.092c-2.347 0-4.473-2.058-4.707-2.293l1.413-1.415a5.865 5.865 0 0 0 3.294 1.708z" fill="#f4f4e6"/><path d="m58 41h-2a6.809 6.809 0 0 0 -.54-3h-1.46v-2h2a1 1 0 0 1 .707.293c.216.216 1.293 1.457 1.293 4.707z" fill="#c8d952"/><path d="m40 32h2v2h-2z" fill="#f4f4e6"/><path d="m36 34h2v2h-2z" fill="#f4f4e6"/><path d="m31 35h2v2h-2z" fill="#f4f4e6"/><path d="m26 36h2v2h-2z" fill="#f4f4e6"/><g fill="#195c85"><path d="m12 49a2 2 0 0 1 -2-2v-2h4v2a2 2 0 0 1 -2 2z"/><path d="m20 49a2 2 0 0 1 -2-2v-2h4v2a2 2 0 0 1 -2 2z"/><path d="m45 49a2 2 0 0 1 -2-2v-2h4v2a2 2 0 0 1 -2 2z"/><path d="m37 49a2 2 0 0 1 -2-2v-2h4v2a2 2 0 0 1 -2 2z"/><path d="m53 49a2 2 0 0 1 -2-2v-2h4v2a2 2 0 0 1 -2 2z"/></g></svg>