<svg height="512" viewBox="0 0 64 64" width="512" xmlns="http://www.w3.org/2000/svg"><g id="Filled_outline" data-name="Filled outline"><path d="m40 30-11-13s-6 4-12 4-11-4-11-4l-3 15 2 6h19l12 4h25v-2c0-2.536-1.625-4.938-5-6z" fill="#f4f4e6"/><path d="m3 42h20v4h-20z" fill="#7d8d9c"/><path d="m61 46h-26l-12-4h-20v-4h21l12 4h25z" fill="#5a6470"/><path d="m3.8 28-.8 4 2 6h7v-4a6 6 0 0 0 -6-6z" fill="#394d5c"/><path d="m56 34-16-4c-1.451 1.407-3.822 3-9 3-11 0-11 5-11 5h4l12 4h25v-2c0-2.536-1.625-4.938-5-6z" fill="#394d5c"/><path d="m29 17s-6 4-12 4-11-4-11-4l-.928 4.639a25.832 25.832 0 0 0 11.928 3.361c7 0 10-5 14 1l5.29 6.251a9.456 9.456 0 0 0 3.71-2.251l.063.016z" fill="#7d8d9c"/><path d="m28.5 21.5h5v1.999h-5z" fill="#394d5c" transform="matrix(.8 -.6 .6 .8 -7.3 23.093)"/><path d="m31.5 24.5h5v1.999h-5z" fill="#394d5c" transform="matrix(.8 -.6 .6 .8 -8.5 25.492)"/><path d="m33.5 27.5h5v1.999h-5z" fill="#394d5c" transform="matrix(.8 -.6 .6 .8 -9.9 27.291)"/><g fill="#7d8d9c"><path d="m58 42h-2v-2c0-.8 0-1.562-2.2-2.021l-8.042-2.009.484-1.94 8 2c3.758.782 3.758 2.935 3.758 3.97z"/><path d="m14 28h2v2h-2z"/><path d="m17 31h2v2h-2z"/></g><path d="m56.242 33.03-15.686-3.922-10.792-12.754a1 1 0 0 0 -1.319-.186c-.057.038-5.813 3.832-11.445 3.832-5.563 0-10.329-3.744-10.376-3.782a1 1 0 0 0 -1.6.586l-3 15a.979.979 0 0 0 .032.512l1.557 4.684h-.613a1 1 0 0 0 -1 1v8a1 1 0 0 0 1 1h20a1 1 0 0 0 1-1v-2.613l10.684 3.562a1 1 0 0 0 .316.051h26a1 1 0 0 0 1-1v-6c0-3.23-2.131-5.83-5.758-6.97zm-37.048 3.97h-6.194v-3a7.008 7.008 0 0 0 -7-7h-.98l.771-3.858a25.846 25.846 0 0 0 11.209 2.858 20.393 20.393 0 0 0 6.5-1.23c3.007-.964 4.516-1.446 6.67 1.785.021.031.044.062.068.091l4.262 5.042a18 18 0 0 1 -3.5.312c-8.971 0-11.235 3.289-11.806 5zm14.16-9.766 1.832-1.374 1.036 1.224-1.832 1.374zm-1.293-1.529-.261-.305a11.384 11.384 0 0 0 -1.109-1.416l1.778-1.333 1.424 1.683zm4.539 5.364-.916-1.082 1.832-1.374 1.084 1.287a8.281 8.281 0 0 1 -2 1.169zm-29.919-12.369a19.973 19.973 0 0 0 10.319 3.3c5.024 0 9.943-2.6 11.794-3.695l2.381 2.814-2.089 1.567c-2.043-1.146-4.078-.5-6.2.179a18.439 18.439 0 0 1 -5.886 1.135 24.61 24.61 0 0 1 -10.8-2.892zm-2.649 13.236.587-2.936h1.381a5.006 5.006 0 0 1 5 5v3h-5.279zm17.968 13.064h-18v-2h18zm38 0h-24.838l-11.846-3.949a1 1 0 0 0 -.316-.051h-19v-2h19.838l11.846 3.949a1 1 0 0 0 .316.051h24zm0-4h-2v-1c0-1.035 0-3.188-3.758-3.97l-8-2-.484 1.94 8.042 2.009c2.2.459 2.2 1.221 2.2 2.021v1h-19.838l-11.846-3.949a1 1 0 0 0 -.316-.051h-2.582c.784-1.192 3.044-3 9.582-3 5.16 0 7.76-1.556 9.28-2.9l15.42 3.854c2.693.846 4.3 2.734 4.3 5.046z"/><path d="m14 28h2v2h-2z"/><path d="m17 31h2v2h-2z"/></g></svg>