<svg height="512" viewBox="0 0 64 64" width="512" xmlns="http://www.w3.org/2000/svg"><path d="m40 30-11-13s-6 4-12 4-11-4-11-4l-3 15 2 6h19l12 4h25v-2c0-2.536-1.625-4.938-5-6z" fill="#f4f4e6"/><path d="m3 42h20v4h-20z" fill="#7d8d9c"/><path d="m61 46h-26l-12-4h-20v-4h21l12 4h25z" fill="#5a6470"/><path d="m3.8 28-.8 4 2 6h7v-4a6 6 0 0 0 -6-6z" fill="#394d5c"/><path d="m40 30c-.49.88-1.91 1.7-3.67 2.29l-1.44-1.7-1.3-1.53-1.04-1.23-1.29-1.52-.26-.31a10.665 10.665 0 0 0 -1.11-1.42 5.129 5.129 0 0 0 -1.69-1.23c-2.89-1.22-5.9 1.65-11.2 1.65a25.839 25.839 0 0 1 -11.93-3.36l.93-4.64s5 4 11 4 12-4 12-4l2.98 3.52 1.29 1.53 1.42 1.68 1.3 1.53 1.03 1.22 1.3 1.53z" fill="#7d8d9c"/><g fill="#394d5c"><path d="m33.27 22.05-3.38 2.53a5.129 5.129 0 0 0 -1.69-1.23l3.78-2.83z"/><path d="m35.99 25.26-3.44 2.57-1.29-1.52 3.43-2.58z"/><path d="m38.32 28.01-3.43 2.58-1.3-1.53 3.43-2.58z"/></g><path d="m14 28h2v2h-2z" fill="#7d8d9c"/><path d="m17 31h2v2h-2z" fill="#7d8d9c"/><path d="m56 34-16-4c-1.451 1.407-3.822 3-9 3-11 0-11 5-11 5h4l12 4h25v-2c0-2.536-1.625-4.938-5-6z" fill="#394d5c"/><path d="m58 42h-2v-2c0-.8 0-1.562-2.2-2.021l-8.042-2.009.484-1.94 8 2c3.758.782 3.758 2.935 3.758 3.97z" fill="#7d8d9c"/></svg>