<svg height="512" viewBox="0 0 64 64" width="512" xmlns="http://www.w3.org/2000/svg"><path d="m54 56h-18a2.892 2.892 0 0 1 -.48-.15c-1.22-.46-4.61-2.25-8.16-8.61-.55-.97-1.1-2.05-1.64-3.24-1.66-3.64-3.1-7.18-4.35-10.06-1.42-3.26-2.6-5.67-3.6-6.46-.68-.54-1.28-.33-1.81.89q-.12.285-.24.63c-1.45 4.35-1.32 16.6-1.15 23 .07 2.42.15 4 .15 4h-3.72s-.15-1.5-.54-4a119.511 119.511 0 0 0 -2.82-13.08c-.67-2.43-1.47-4.98-2.41-7.54q-.24-.69-.51-1.38a23.152 23.152 0 0 1 -1.44-5.78 21.2 21.2 0 0 1 -.05-4.63 21.813 21.813 0 0 1 2.17-7.56 18.605 18.605 0 0 1 2.6-4.03h5a11.612 11.612 0 0 1 5.08 3.31 33.352 33.352 0 0 1 3.59 4.47c3.46 5.02 6.77 11.63 10.4 17.47 1.05 1.7 2.14 3.33 3.26 4.84a26.433 26.433 0 0 0 7.52 7.31c.38.22.76.42 1.15.6 2.05.95 3.43 1.83 5.88 2.8a54.353 54.353 0 0 0 7.12 2.2c8 2 2 5-3 5z" fill="#ce285f"/><path d="m15.72 29c-1.45 4.35-1.32 16.6-1.15 23 .07 2.42.15 4 .15 4h-3.72s-.15-1.5-.54-4a119.511 119.511 0 0 0 -2.82-13.08c-.67-2.43-1.47-4.98-2.41-7.54q-.24-.69-.51-1.38a23.152 23.152 0 0 1 -1.44-5.78 35.029 35.029 0 0 1 12.68 4.15q-.12.285-.24.63z" fill="#84183c"/><g fill="#e97424"><path d="m21.67 15.78a2.993 2.993 0 0 1 -5.44-1.73 2.95 2.95 0 0 1 1.85-2.74 33.352 33.352 0 0 1 3.59 4.47z"/><path d="m8.9 15.98a4 4 0 0 1 -4 4 3.732 3.732 0 0 1 -1.67-.39 21.813 21.813 0 0 1 2.17-7.56 3.987 3.987 0 0 1 3.5 3.95z"/><path d="m24.86 30a3.961 3.961 0 0 1 -3.49 3.94c-1.42-3.26-2.6-5.67-3.6-6.46a3.989 3.989 0 0 1 7.09 2.52z"/><path d="m10.87 35a3.993 3.993 0 0 1 -3.23 3.92c-.67-2.43-1.47-4.98-2.41-7.54a3.764 3.764 0 0 1 1.64-.38 4 4 0 0 1 4 4z"/><path d="m36.82 52.13a5.922 5.922 0 0 1 -1.3 3.72c-1.22-.46-4.61-2.25-8.16-8.61a5.923 5.923 0 0 1 3.46-1.11 5.992 5.992 0 0 1 6 6z"/><path d="m35.33 38.09a2.961 2.961 0 0 1 -2.13.91 3 3 0 0 1 -3-3 2.961 2.961 0 0 1 1.87-2.75c1.05 1.7 2.14 3.33 3.26 4.84z"/><path d="m49.88 48.8a4 4 0 0 1 -7.88-.97 3.877 3.877 0 0 1 .85-2.43c.38.22.76.42 1.15.6 2.05.95 3.43 1.83 5.88 2.8z"/></g><path d="m16.031 27.248c-.037-.144-.978-3.55-5.4-5.319l.744-1.858a10.676 10.676 0 0 1 6.6 6.687z" fill="#84183c"/><path d="m14.72 56h-3.72s-.15-1.5-.54-4h4.11c.07 2.42.15 4 .15 4z" fill="#f9bb4b"/><path d="m11 11h2v2h-2z" fill="#f4f4e6"/><path d="m18 21h2v2h-2z" fill="#f4f4e6"/></svg>