<svg height="512" viewBox="0 0 64 64" width="512" xmlns="http://www.w3.org/2000/svg"><g id="Filled_outline" data-name="Filled outline"><path d="m54 56h-18s-5.282-1-10.282-12-8-21-10-15-1 27-1 27h-3.718a112.58 112.58 0 0 0 -6.28-26 21.785 21.785 0 0 1 3.28-22h5c11 3 18 32 31 38 3.457 1.6 5 3 13 5s2 5-3 5z" fill="#ce285f"/><path d="m15.725 28.981a25.714 25.714 0 0 0 -12.471-4.9 23.808 23.808 0 0 0 1.466 5.919 112.58 112.58 0 0 1 6.28 26h3.72s-1-21 1-27z" fill="#84183c"/><g fill="#e97424"><path d="m17.968 11.194a2.994 2.994 0 1 0 3.569 4.393 32.556 32.556 0 0 0 -3.569-4.393z"/><path d="m5.387 12.039a21.926 21.926 0 0 0 -2.163 7.528 3.985 3.985 0 1 0 2.163-7.528z"/><path d="m21 26a3.978 3.978 0 0 0 -3.145 1.555c.985.861 2.144 3.237 3.524 6.407a3.99 3.99 0 0 0 -.379-7.962z"/><path d="m7 31a3.96 3.96 0 0 0 -1.75.419c.932 2.558 1.723 5.1 2.392 7.516a3.993 3.993 0 0 0 -.642-7.935z"/><path d="m35.579 55.872a5.994 5.994 0 0 0 -8.225-8.629c3.615 6.462 7.059 8.205 8.225 8.629z"/><path d="m32.023 33.177a2.991 2.991 0 1 0 3.216 4.8c-1.107-1.499-2.174-3.121-3.216-4.8z"/><path d="m44 46c-.357-.165-.708-.354-1.056-.552a3.959 3.959 0 0 0 -.944 2.552 4 4 0 0 0 7.916.814c-2.468-.981-3.857-1.864-5.916-2.814z"/></g><path d="m11 56h3.72s-.075-1.585-.143-4h-4.117c.391 2.5.54 4 .54 4z" fill="#f9bb4b"/><path d="m11 11h2v2h-2z" fill="#f4f4e6"/><path d="m18 21h2v2h-2z" fill="#f4f4e6"/><path d="m57.243 50.03a41.5 41.5 0 0 1 -10.643-3.86c-.692-.356-1.387-.712-2.18-1.078-6.26-2.892-11.167-11.541-15.913-19.908-4.827-8.512-9.386-16.551-15.244-18.149a1.016 1.016 0 0 0 -.263-.035h-5a1 1 0 0 0 -.736.323 22.6 22.6 0 0 0 -3.477 23.036 112.582 112.582 0 0 1 6.218 25.741 1 1 0 0 0 .995.9h3.72a1 1 0 0 0 1-1.048c-.01-.208-.971-20.881.948-26.636a3.729 3.729 0 0 1 .491-1.062c1.021.693 3.049 5.477 4.691 9.352.882 2.082 1.882 4.44 2.959 6.808 5.155 11.342 10.77 12.524 11.006 12.568a.969.969 0 0 0 .185.018h18c3.008 0 7.593-1.1 7.884-3.464.281-2.275-3.424-3.202-4.641-3.506zm-11.557-2.081c.9.464 1.822.934 2.968 1.426a2.992 2.992 0 0 1 -5.654-1.375 2.832 2.832 0 0 1 .289-1.244c.1.048.193.107.292.152.766.354 1.436.697 2.105 1.041zm-14-13.421q1.068 1.688 2.182 3.261a1.926 1.926 0 0 1 -.868.211 2 2 0 0 1 -2-2 1.966 1.966 0 0 1 .688-1.472zm-11.419-19a1.967 1.967 0 0 1 -1.267.472 1.991 1.991 0 0 1 -1.226-3.567 31.829 31.829 0 0 1 2.495 3.091zm-14.336-2.355a2.967 2.967 0 0 1 2.069 2.827 3 3 0 0 1 -3 3 2.819 2.819 0 0 1 -.714-.1 20.6 20.6 0 0 1 1.645-5.727zm.606 18.883a2.814 2.814 0 0 1 .463-.056 3 3 0 0 1 3 3 2.966 2.966 0 0 1 -1.678 2.672c-.522-1.831-1.122-3.716-1.785-5.616zm2.322 7.562a4.986 4.986 0 0 0 -1.859-9.618 4.746 4.746 0 0 0 -1.16.146c-.063-.169-.122-.337-.187-.505a23.491 23.491 0 0 1 -1.224-4.39 24.639 24.639 0 0 1 10.138 4.132c-1.224 4.723-1.178 15.285-1.02 21.617h-2.242c-.484-2.928-1.261-6.932-2.446-11.382zm3.032 15.382c-.06-.486-.152-1.175-.273-2h1.982c.026.806.052 1.488.072 2zm7.357-27.406a2.938 2.938 0 0 1 1.752-.594 3 3 0 0 1 3 3 2.962 2.962 0 0 1 -2.033 2.812 29.026 29.026 0 0 0 -2.719-5.218zm9.452 19.973a4.934 4.934 0 0 1 2.3-.567 4.981 4.981 0 0 1 4.244 7.619c-1.314-.687-3.829-2.507-6.544-7.052zm25.3 7.433h-16.707a6.979 6.979 0 0 0 -9.567-9.183c-.366-.7-.732-1.426-1.1-2.231-1.066-2.345-2.06-4.69-2.937-6.76-.329-.776-.636-1.5-.93-2.185a4.943 4.943 0 0 0 3.241-4.641 5.006 5.006 0 0 0 -5-5 4.932 4.932 0 0 0 -3.217 1.2 11.008 11.008 0 0 0 -6.411-6.125l-.744 1.858a9.067 9.067 0 0 1 5.22 4.808 3.15 3.15 0 0 0 -.551.718 26.69 26.69 0 0 0 -11.13-4.266 20.692 20.692 0 0 1 -.05-2.28 4.767 4.767 0 0 0 .883.087 5.006 5.006 0 0 0 5-5 4.945 4.945 0 0 0 -3.161-4.61 18 18 0 0 1 1.621-2.39h4.4a9.557 9.557 0 0 1 3.482 2.039 3.985 3.985 0 0 0 5.068 6.144c1.784 2.7 3.551 5.8 5.357 8.987 1.262 2.227 2.537 4.471 3.849 6.633a3.976 3.976 0 0 0 4.44 6.592 27.661 27.661 0 0 0 6.5 6.367 4.858 4.858 0 0 0 -.556 2.238 4.989 4.989 0 0 0 9.514 2.112 62.08 62.08 0 0 0 6.243 1.858c2.753.689 3.12 1.327 3.144 1.311-.212.592-2.835 1.719-5.901 1.719z"/><path d="m11 11h2v2h-2z"/><path d="m18 21h2v2h-2z"/></g></svg>