<svg height="512" viewBox="0 0 64 64" width="512" xmlns="http://www.w3.org/2000/svg"><path d="m59 54h-51v-47h20v26l6.21 6.21 1.79 1.79 1 1 2.05.48 14.95 3.52a5.734 5.734 0 0 1 4.03 3.02 10.9 10.9 0 0 1 .97 4.98z" fill="#995f5b"/><path d="m59 61h-23l-4-2h-6l-3 2h-15v-7h51z" fill="#ceac9a"/><g fill="#66342e"><path d="m11 58h2v3h-2z"/><path d="m15 58h2v3h-2z"/><path d="m19 58h2v3h-2z"/><path d="m38 58h2v3h-2z"/><path d="m42 58h2v3h-2z"/><path d="m46 58h2v3h-2z"/><path d="m50 58h2v3h-2z"/><path d="m54 58h2v3h-2z"/></g><rect fill="#ceac9a" height="4" rx="2" width="24" x="6" y="3"/><path d="m21.24 26.56c1.371 0 2.76-1.223 2.76-3.56 0-2.975-3.5-4.941-5-5.651v-.913a3.053 3.053 0 0 0 2.24 1.124c1.371 0 2.76-1.223 2.76-3.56 0-2.975-3.5-4.941-5-5.651v-1.349h-2v1.349c-1.505.71-5 2.676-5 5.651 0 2.337 1.389 3.56 2.76 3.56a3.053 3.053 0 0 0 2.24-1.124v.913c-1.505.71-5 2.676-5 5.651 0 2.337 1.389 3.56 2.76 3.56a3.053 3.053 0 0 0 2.24-1.124v1.887l-4.371 1.748.742 1.858 3.629-1.452v1.846l-4.371 1.748.742 1.858 3.629-1.452v1.846l-4.371 1.748.742 1.858 3.629-1.452v3.523h2v-3.523l3.629 1.452.742-1.858-4.371-1.748v-1.846l3.629 1.452.742-1.858-4.371-1.748v-1.846l3.629 1.452.742-1.858-4.371-1.748v-1.887a3.053 3.053 0 0 0 2.24 1.124zm.76-3.56c0 .977-.387 1.56-.76 1.56-.3 0-.807-.318-1.272-1.215a9.776 9.776 0 0 1 -.905-3.7c1.343.78 2.937 2.024 2.937 3.355zm0-9c0 .977-.387 1.56-.76 1.56-.3 0-.807-.318-1.272-1.215a9.776 9.776 0 0 1 -.905-3.7c1.343.78 2.937 2.024 2.937 3.355zm-5.968.345c-.465.9-.975 1.215-1.272 1.215-.373 0-.76-.583-.76-1.56 0-1.324 1.594-2.569 2.937-3.353a9.782 9.782 0 0 1 -.905 3.698zm0 9c-.465.9-.975 1.215-1.272 1.215-.373 0-.76-.583-.76-1.56 0-1.324 1.594-2.569 2.937-3.353a9.782 9.782 0 0 1 -.905 3.698z" fill="#66342e"/><path d="m36 41c-3.35 0-8 3.53-8 7h-2c0-4.13 4.21-7.87 8.21-8.79z" fill="#66342e"/><path d="m39.05 42.48c-2.11.68-5.05 2.21-5.05 5.52h-2c0-3.26 2.09-5.35 4.43-6.57l.57.57z" fill="#66342e"/><path d="m8 41 13 13h-13z" fill="#66342e"/><path d="m17 43h2v2h-2z" fill="#fff"/></svg>