<svg height="512" viewBox="0 0 64 64" width="512" xmlns="http://www.w3.org/2000/svg"><g id="Filled_outline" data-name="Filled outline"><path d="m54 46-17-4-9-9v-26h-20v47h51c0-3.594-.906-7.031-5-8z" fill="#995f5b"/><path d="m59 61h-23l-4-2h-6l-3 2h-15v-7h51z" fill="#ceac9a"/><path d="m11 58h2v3h-2z" fill="#66342e"/><path d="m15 58h2v3h-2z" fill="#66342e"/><path d="m19 58h2v3h-2z" fill="#66342e"/><path d="m38 58h2v3h-2z" fill="#66342e"/><path d="m42 58h2v3h-2z" fill="#66342e"/><path d="m46 58h2v3h-2z" fill="#66342e"/><path d="m50 58h2v3h-2z" fill="#66342e"/><path d="m54 58h2v3h-2z" fill="#66342e"/><rect fill="#ceac9a" height="4" rx="2" width="24" x="6" y="3"/><g fill="#66342e"><path d="m14.76 17.56c-1.371 0-2.76-1.223-2.76-3.56 0-3.574 5.053-5.7 5.629-5.929a1 1 0 0 1 1.371.929 13.994 13.994 0 0 1 -1.192 6.265 3.649 3.649 0 0 1 -3.048 2.295zm2.177-6.913c-1.343.784-2.937 2.029-2.937 3.353 0 .977.387 1.56.76 1.56.3 0 .807-.318 1.272-1.215a9.782 9.782 0 0 0 .905-3.698z"/><path d="m21.24 17.56a3.649 3.649 0 0 1 -3.048-2.295 13.994 13.994 0 0 1 -1.192-6.265 1 1 0 0 1 1.371-.929c.576.229 5.629 2.355 5.629 5.929 0 2.337-1.389 3.56-2.76 3.56zm-2.177-6.916a9.776 9.776 0 0 0 .905 3.7c.465.9.975 1.215 1.272 1.215.373 0 .76-.583.76-1.56 0-1.33-1.594-2.574-2.937-3.355z"/><path d="m14.76 26.56c-1.371 0-2.76-1.223-2.76-3.56 0-3.574 5.053-5.7 5.629-5.929a1 1 0 0 1 1.371.929 13.994 13.994 0 0 1 -1.192 6.265 3.649 3.649 0 0 1 -3.048 2.295zm2.177-6.913c-1.343.784-2.937 2.029-2.937 3.353 0 .977.387 1.56.76 1.56.3 0 .807-.318 1.272-1.215a9.782 9.782 0 0 0 .905-3.698z"/><path d="m21.24 26.56a3.649 3.649 0 0 1 -3.048-2.295 13.994 13.994 0 0 1 -1.192-6.265 1 1 0 0 1 1.371-.929c.576.229 5.629 2.355 5.629 5.929 0 2.337-1.389 3.56-2.76 3.56zm-2.177-6.916a9.776 9.776 0 0 0 .905 3.7c.465.9.975 1.215 1.272 1.215.373 0 .76-.583.76-1.56 0-1.33-1.594-2.574-2.937-3.355z"/><path d="m17 7h2v34h-2z"/><path d="m22.629 30.929-4.629-1.852-4.629 1.852-.742-1.858 5-2a1.011 1.011 0 0 1 .742 0l5 2z"/><path d="m22.629 34.929-4.629-1.852-4.629 1.852-.742-1.858 5-2a1.011 1.011 0 0 1 .742 0l5 2z"/><path d="m22.629 38.929-4.629-1.852-4.629 1.852-.742-1.858 5-2a1.011 1.011 0 0 1 .742 0l5 2z"/><path d="m28 50h-2c0-4.763 5.592-9 10-9h1v2h-1c-3.346 0-8 3.527-8 7z"/><path d="m34 50h-2c0-5.444 5.806-7.608 8.876-7.992l.249 1.984c-.29.037-7.125.97-7.125 6.008z"/><path d="m8 41 13 13h-13z"/></g><path d="m17 43h2v2h-2z" fill="#fff"/><path d="m54.23 45.027-16.724-3.935-8.506-8.506v-24.77a2.993 2.993 0 0 0 -1-5.816h-20a2.993 2.993 0 0 0 -1 5.816v53.184a1 1 0 0 0 1 1h15a1.006 1.006 0 0 0 .555-.168l2.745-1.832h5.461l3.789 1.9a1 1 0 0 0 .45.1h23a1 1 0 0 0 1-1v-7c0-1.882 0-7.608-5.77-8.973zm-19.52-3.9c-4.136.698-8.71 4.565-8.71 8.873h2c0-3.473 4.654-7 8-7h.883l.283.067c-2.614 1.163-5.166 3.324-5.166 6.933h2c0-5 6.721-5.955 7.109-6.006l12.662 2.98c2.681.634 4 2.508 4.2 6.026h-36.557l-12.414-12.414v-32.586h8v.349c-1.505.71-5 2.676-5 5.651 0 2.337 1.389 3.56 2.76 3.56a3.053 3.053 0 0 0 2.24-1.124v.913c-1.505.71-5 2.676-5 5.651 0 2.337 1.389 3.56 2.76 3.56a3.053 3.053 0 0 0 2.24-1.124v1.887l-4.371 1.748.742 1.858 3.629-1.452v1.846l-4.371 1.748.742 1.858 3.629-1.452v1.846l-4.371 1.748.742 1.858 3.629-1.452v3.523h2v-3.523l3.629 1.452.742-1.858-4.371-1.748v-1.846l3.629 1.452.742-1.858-4.371-1.748v-1.846l3.629 1.452.742-1.858-4.371-1.748v-1.887a3.053 3.053 0 0 0 2.24 1.124c1.371 0 2.76-1.223 2.76-3.56 0-2.975-3.5-4.941-5-5.651v-.913a3.053 3.053 0 0 0 2.24 1.124c1.371 0 2.76-1.223 2.76-3.56 0-2.975-3.5-4.941-5-5.651v-.349h8v25a1 1 0 0 0 .293.707zm-25.71 2.287 9.586 9.586h-9.586zm7.937-32.767a9.782 9.782 0 0 1 -.905 3.7c-.465.9-.975 1.215-1.272 1.215-.373 0-.76-.583-.76-1.56 0-1.326 1.594-2.571 2.937-3.355zm0 9a9.782 9.782 0 0 1 -.905 3.7c-.465.9-.975 1.215-1.272 1.215-.373 0-.76-.583-.76-1.56 0-1.326 1.594-2.571 2.937-3.355zm2.126 0c1.343.778 2.937 2.022 2.937 3.353 0 .977-.387 1.56-.76 1.56-.3 0-.807-.318-1.272-1.215a9.776 9.776 0 0 1 -.905-3.701zm0-9c1.343.778 2.937 2.022 2.937 3.353 0 .977-.387 1.56-.76 1.56-.3 0-.807-.318-1.272-1.215a9.776 9.776 0 0 1 -.905-3.701zm-11.063-6.647h20a1 1 0 0 1 0 2h-20a1 1 0 0 1 0-2zm50 56h-2v-2h-2v2h-2v-2h-2v2h-2v-2h-2v2h-2v-2h-2v2h-2v-2h-2v2h-1.764l-3.789-1.9a1 1 0 0 0 -.447-.1h-6a1.006 1.006 0 0 0 -.555.168l-2.745 1.832h-1.7v-2h-2v2h-2v-2h-2v2h-2v-2h-2v2h-2v-5h49z"/><path d="m17 43h2v2h-2z"/></g></svg>