<svg height="512" viewBox="0 0 64 64" width="512" xmlns="http://www.w3.org/2000/svg"><g id="Filled_outline" data-name="Filled outline"><path d="m59 49h-54a2 2 0 0 1 -2-2v-14h16a6.279 6.279 0 0 1 4 1l11 6a6.043 6.043 0 0 0 4 1h23v6a2 2 0 0 1 -2 2z" fill="#ad6327"/><path d="m3 21h2a10 10 0 0 1 10 10v2a0 0 0 0 1 0 0h-12a0 0 0 0 1 0 0v-12a0 0 0 0 1 0 0z" fill="#d9176c"/><path d="m3 15h22v6h-22z" fill="#db527d"/><path d="m37 25-8.5 11.5 5.5 3.5a6.043 6.043 0 0 0 4 1h19v-10h-12z" fill="#db527d"/><g fill="#9b1e5a"><path d="m42 38h-5a1.006 1.006 0 0 1 -.555-.168l-6-4 1.11-1.664 5.745 3.832h4.7z"/><path d="m44 36h2v2h-2z"/><path d="m48 36h2v2h-2z"/><path d="m52 36h2v2h-2z"/><path d="m15 15h4v6h-4z"/></g><path d="m6 36h2v2h-2z" fill="#f9bb4b"/><path d="m49 46h-15a.993.993 0 0 1 -.5-.132l-13.766-7.868h-9.734v-2h10a.993.993 0 0 1 .5.132l13.766 7.868h14.734z" fill="#f9bb4b"/><path d="m55 44h6v2h-6z" fill="#f9bb4b"/><path d="m51 44h2v2h-2z" fill="#f9bb4b"/><path d="m32.5 49.868-13.766-7.868h-15.734v-2h16a.993.993 0 0 1 .5.132l14 8z" fill="#f9bb4b"/><path d="m6 44h2v2h-2z" fill="#66342e"/><path d="m10 44h2v2h-2z" fill="#66342e"/><path d="m14 44h2v2h-2z" fill="#66342e"/><path d="m18 44h2v2h-2z" fill="#66342e"/><path d="m10 15h2v3h-2z" fill="#f4f4e6"/><path d="m6 15h2v3h-2z" fill="#f4f4e6"/><path d="m61 40h-3v-9a1 1 0 0 0 -1-1h-11.667l-7.733-5.8a1 1 0 0 0 -1.4.206l-8.25 11.156-4.426-2.414a7.274 7.274 0 0 0 -4.524-1.148h-3v-2a9.505 9.505 0 0 0 -4.173-8h13.173a1 1 0 0 0 1-1v-6a1 1 0 0 0 -1-1h-22a1 1 0 0 0 -1 1v32a3 3 0 0 0 3 3h54a3 3 0 0 0 3-3v-6a1 1 0 0 0 -1-1zm-29.7-5.6 5.149 3.433a1.006 1.006 0 0 0 .551.167h5v-2h-4.7l-4.817-3.211 4.72-6.385 7.197 5.396a1 1 0 0 0 .6.2h11v8h-18a5.137 5.137 0 0 1 -3.521-.878l-4.757-2.594zm-17.3-4.4v2h-10v-10h1c5.3 0 9 3.29 9 8zm10-10h-4v-4h4zm-6-4v4h-2v-4zm-14 0h2v2h2v-2h2v2h2v-2h2v4h-10zm0 31v-5h14.734l10.5 6h-24.234a1 1 0 0 1 -1-1zm55 1h-25.735l-13.765-7.868a.993.993 0 0 0 -.5-.132h-15v-6h15a5.336 5.336 0 0 1 3.521.878l10.964 5.979a7 7 0 0 0 4.515 1.143h22v2h-5v2h5v1a1 1 0 0 1 -1 1z"/><path d="m44 36h2v2h-2z"/><path d="m48 36h2v2h-2z"/><path d="m52 36h2v2h-2z"/><path d="m6 36h2v2h-2z"/><path d="m20.5 36.132a.993.993 0 0 0 -.5-.132h-10v2h9.734l13.766 7.868a.993.993 0 0 0 .5.132h15v-2h-14.734z"/><path d="m51 44h2v2h-2z"/><path d="m6 44h2v2h-2z"/><path d="m10 44h2v2h-2z"/><path d="m14 44h2v2h-2z"/><path d="m18 44h2v2h-2z"/></g></svg>