<svg height="512" viewBox="0 0 64 64" width="512" xmlns="http://www.w3.org/2000/svg"><path d="m57 31v11h-19a6.051 6.051 0 0 1 -4-1l-6.03-3.78 2.5-3.38 1.18-1.6 5.35-7.24 8 6z" fill="#db527d"/><path d="m42 36v2h-5a.967.967 0 0 1 -.55-.17l-5.98-3.99 1.18-1.6 5.65 3.76z" fill="#9b1e5a"/><path d="m44 36h2v2h-2z" fill="#9b1e5a"/><path d="m48 36h2v2h-2z" fill="#9b1e5a"/><path d="m52 36h2v2h-2z" fill="#9b1e5a"/><path d="m61 41v6a2.006 2.006 0 0 1 -2 2h-54a2.006 2.006 0 0 1 -2-2v-14h16a6.3 6.3 0 0 1 4 1l11 6a6.051 6.051 0 0 0 4 1z" fill="#ad6327"/><path d="m3 21h2a10 10 0 0 1 10 10v2a0 0 0 0 1 0 0h-12a0 0 0 0 1 0 0v-12a0 0 0 0 1 0 0z" fill="#d9176c"/><path d="m3 15h22v6h-22z" fill="#db527d"/><path d="m15 15h4v6h-4z" fill="#9b1e5a"/><g fill="#f9bb4b"><path d="m6 36h2v2h-2z"/><path d="m49 46h-15a.993.993 0 0 1 -.5-.132l-13.766-7.868h-9.734v-2h10a.993.993 0 0 1 .5.132l13.766 7.868h14.734z"/><path d="m55 44h6v2h-6z"/><path d="m51 44h2v2h-2z"/><path d="m35.06 49h-4.08l-12.25-7h-15.73v-2h16a1.128 1.128 0 0 1 .5.13z"/></g><path d="m6 44h2v2h-2z" fill="#66342e"/><path d="m10 44h2v2h-2z" fill="#66342e"/><path d="m14 44h2v2h-2z" fill="#66342e"/><path d="m18 44h2v2h-2z" fill="#66342e"/><path d="m10 15h2v3h-2z" fill="#f4f4e6"/><path d="m6 15h2v3h-2z" fill="#f4f4e6"/></svg>