<svg height="512" viewBox="0 0 64 64" width="512" xmlns="http://www.w3.org/2000/svg"><g id="Filled_outline" data-name="Filled outline"><path d="m58 61h-19l-4-3h-6l-3 3h-16v-7h48z" fill="#195c85"/><g fill="#2d75bb"><path d="m13 58h2v3h-2z"/><path d="m17 58h2v3h-2z"/><path d="m21 58h2v3h-2z"/><path d="m41 58h2v3h-2z"/><path d="m45 58h2v3h-2z"/><path d="m49 58h2v3h-2z"/><path d="m53 58h2v3h-2z"/></g><path d="m52 45h-6l-12-5 1-29h-28l3.093 25-2.093 9 2 9h48v-3a6 6 0 0 0 -6-6z" fill="#f9bb4b"/><path d="m7 3h28v8h-28z" fill="#ffd782"/><path d="m34.5 54.868-6.766-3.868h-13.734a1 1 0 0 1 -.929-.628l-2-5a1 1 0 0 1 -.051-.568l.914-4.571-2.65-3.645 1.616-1.176 2.907 4a1 1 0 0 1 .171.784l-.941 4.709 1.64 4.095h13.323a.993.993 0 0 1 .5.132l7 4z" fill="#d3843d"/><path d="m22 47h-5a1 1 0 0 1 -.895-.553l-1-2a1 1 0 0 1 -.091-.612l.921-5.528-7.419-8.346 1.495-1.329 7.737 8.7a1 1 0 0 1 .238.83l-.946 5.679.578 1.159h4.382z" fill="#d3843d"/><path d="m24 45h2v2h-2z" fill="#d3843d"/><path d="m12 6h18v2h-18z" fill="#d3843d"/><path d="m15 11h12a0 0 0 0 1 0 0v2a2 2 0 0 1 -2 2h-8a2 2 0 0 1 -2-2v-2a0 0 0 0 1 0 0z" fill="#ad6327"/><path d="m55 51h-8v-2h7.586l1.707-1.707 1.414 1.414-2 2a1 1 0 0 1 -.707.293z" fill="#f4f4e6"/><path d="m10 13h2v2h-2z" fill="#f4f4e6"/><path d="m30 13h2v2h-2z" fill="#f4f4e6"/><circle cx="21" cy="24" fill="#fff69a" r="5"/><path d="m36 3a1 1 0 0 0 -1-1h-28a1 1 0 0 0 -1 1v8c0 .023 0 .1.008.123l3.071 24.823-2.053 8.827a.993.993 0 0 0 0 .444l1.974 8.892v6.891a1 1 0 0 0 1 1h16a1 1 0 0 0 .707-.293l2.707-2.707h5.253l3.733 2.8a1 1 0 0 0 .6.2h19a1 1 0 0 0 1-1v-10a7.008 7.008 0 0 0 -7-7h-5.8l-11.177-4.657.977-28.308zm-28 1h26v6h-26zm8 8h10v1a1 1 0 0 1 -1 1h-8a1 1 0 0 1 -1-1zm-5.429 26.359 1.363 1.874-.914 4.567a1 1 0 0 0 .051.568l2 5a1 1 0 0 0 .929.632h13.734l3.5 2h-20.434l-1.775-7.995zm46.429 21.641h-2v-2h-2v2h-2v-2h-2v2h-2v-2h-2v2h-2v-2h-2v2h-1.667l-3.733-2.8a1 1 0 0 0 -.6-.2h-6a1 1 0 0 0 -.707.293l-2.707 2.707h-2.586v-2h-2v2h-2v-2h-2v2h-2v-2h-2v2h-2v-5h46zm-11.385-14.077a1 1 0 0 0 .385.077h6a4.971 4.971 0 0 1 3.8 1.787l-1.214 1.213h-7.586v2h8a1 1 0 0 0 .707-.293l1.078-1.078a4.937 4.937 0 0 1 .215 1.371v2h-21.735l-6.765-3.868a.993.993 0 0 0 -.5-.132h-13.323l-1.638-4.095.941-4.705a1 1 0 0 0 -.171-.784l-2.755-3.796-.4-3.258 5.284 5.945-.921 5.528a1 1 0 0 0 .091.612l1 2a1 1 0 0 0 .892.553h5v-2h-4.382l-.578-1.156.946-5.679a1 1 0 0 0 -.238-.83l-7.53-8.47-2.087-16.865h5.869v1a3 3 0 0 0 3 3h8a3 3 0 0 0 3-3v-1h5.965l-.965 27.965a1 1 0 0 0 .615.958z"/><path d="m24 45h2v2h-2z"/><path d="m12 6h18v2h-18z"/><path d="m10 13h2v2h-2z"/><path d="m30 13h2v2h-2z"/><path d="m21 18a6 6 0 1 0 6 6 6.006 6.006 0 0 0 -6-6zm0 10a4 4 0 1 1 4-4 4 4 0 0 1 -4 4z"/></g></svg>