<svg height="512" viewBox="0 0 64 64" width="512" xmlns="http://www.w3.org/2000/svg"><path d="m58 51v3h-48l-2-9 1.79-7.71.3-1.29-.25-2.04-.36-2.92-.44-3.5-2.04-16.54h28l-1 29 12 5h6a5.992 5.992 0 0 1 4.52 2.06 6.022 6.022 0 0 1 1.48 3.94z" fill="#f9bb4b"/><path d="m7 3h28v8h-28z" fill="#ffd782"/><path d="m37.62 54.38-3.12.49-1.52-.87-5.25-3h-13.73a1 1 0 0 1 -.93-.63l-2-5a1.009 1.009 0 0 1 -.05-.57l.91-4.57-2.14-2.94.3-1.29-.25-2.04 3.97 5.45a1.007 1.007 0 0 1 .17.79l-.94 4.7 1.64 4.1h13.32a1.094 1.094 0 0 1 .5.13l8.46 4.87z" fill="#d3843d"/><path d="m22 45v2h-5a.977.977 0 0 1 -.89-.55l-1-2a1 1 0 0 1 -.1-.61l.93-5.53-6.46-7.27-.44-3.5 8.71 9.8a.986.986 0 0 1 .24.82l-.95 5.68.58 1.16z" fill="#d3843d"/><path d="m24 45h2v2h-2z" fill="#d3843d"/><path d="m12 6h18v2h-18z" fill="#d3843d"/><path d="m15 11h12a0 0 0 0 1 0 0v2a2 2 0 0 1 -2 2h-8a2 2 0 0 1 -2-2v-2a0 0 0 0 1 0 0z" fill="#ad6327"/><path d="m57.59 48.83-1.88 1.88a1.033 1.033 0 0 1 -.71.29h-8v-2h7.59l1.93-1.94a5.82 5.82 0 0 1 1.07 1.77z" fill="#f4f4e6"/><path d="m10 13h2v2h-2z" fill="#f4f4e6"/><path d="m30 13h2v2h-2z" fill="#f4f4e6"/><circle cx="21" cy="24" fill="#fff69a" r="5"/><path d="m58 61h-19l-4-3h-6l-3 3h-16v-7h48z" fill="#195c85"/><g fill="#2d75bb"><path d="m13 58h2v3h-2z"/><path d="m17 58h2v3h-2z"/><path d="m21 58h2v3h-2z"/><path d="m41 58h2v3h-2z"/><path d="m45 58h2v3h-2z"/><path d="m49 58h2v3h-2z"/><path d="m53 58h2v3h-2z"/></g></svg>