<svg height="512" viewBox="0 0 64 64" width="512" xmlns="http://www.w3.org/2000/svg"><path d="m59.54 55a36.086 36.086 0 0 1 -1.54 4h-17a4.765 4.765 0 0 1 -4-2c-.4-.55-.91-1.21-1.5-2-1.41-1.88-3.31-4.48-5.5-8-6.4-10.25-12-12-12-12l-13.56-3c-.14-1.01-.29-2.01-.44-3-1.72-11 3-16 3-20l12 2v-6h11s3.15 13.08 5 18c1.58 4.2 6.21 14.88 14.85 18.08a14.581 14.581 0 0 0 4.5.91c.22.01.43.01.65.01 7.53 0 6.16 7.97 4.54 13z" fill="#7fcac9"/><path d="m18 35-2 24h-9s-.07-1.51-.23-4c-.05-.61-.09-1.28-.15-2-.04-.63-.09-1.29-.14-2-.05-.64-.11-1.31-.17-2-.05-.65-.11-1.31-.17-2-.05-.65-.12-1.32-.18-2-.06-.66-.13-1.33-.2-2s-.13-1.33-.21-2c-.06-.66-.14-1.33-.21-2s-.16-1.33-.23-2c-.21-1.66-.43-3.33-.67-5 3.14.5 8.77.95 13.56 3z" fill="#ceac9a"/><path d="m19 11-3 4v6h6v-6z" fill="#ffd782"/><path d="m29.071 20.372a60.868 60.868 0 0 1 -2.906-10.372h-4.165v-2h5a1 1 0 0 1 .986.835 61.419 61.419 0 0 0 2.943 10.793z" fill="#f4f4e6"/><path d="m14 37v2h-8.66c-.08-.66-.16-1.33-.23-2z" fill="#995f5b"/><path d="m14 41v2h-8.24c-.06-.66-.13-1.33-.21-2z" fill="#995f5b"/><path d="m14 45v2h-7.86c-.05-.65-.12-1.32-.18-2z" fill="#995f5b"/><path d="m14 49v2h-7.52c-.05-.64-.11-1.31-.17-2z" fill="#995f5b"/><path d="m14 53v2h-7.23c-.05-.61-.09-1.28-.15-2z" fill="#995f5b"/><g fill="#f4f4e6"><path d="m9 14h2v2h-2z"/><path d="m8 18h2v2h-2z"/><path d="m7 22h2v2h-2z"/><path d="m54.35 41.99a21.238 21.238 0 0 0 -7.85 2.88l-1-1.74a29.352 29.352 0 0 1 4.35-2.05 14.581 14.581 0 0 0 4.5.91z"/><path d="m56.97 52.243-1.94-.486 1-4a.526.526 0 0 0 -.126-.434 1.2 1.2 0 0 0 -.904-.323h-4v-2h4a3.145 3.145 0 0 1 2.43 1.03 2.586 2.586 0 0 1 .556 2.135z"/></g><path d="m59.54 55a36.086 36.086 0 0 1 -1.54 4h-17a4.765 4.765 0 0 1 -4-2c-.4-.55-.91-1.21-1.5-2z" fill="#ceac9a"/></svg>