<svg height="512" viewBox="0 0 64 64" width="512" xmlns="http://www.w3.org/2000/svg"><g id="Filled_outline" data-name="Filled outline"><path d="m58 59h-17a4.748 4.748 0 0 1 -4-2c-1.37-1.839-3.877-5-7-10-6.4-10.246-12-12-12-12l-2 24h-9s-.848-16.239-3-30c-1.72-11 3-16 3-20l12 2v-6h11s3.147 13.082 5 18c1.874 4.974 8 19 20 19 11 0 3 17 3 17z" fill="#7fcac9"/><path d="m7 59h9l2-24a61.751 61.751 0 0 0 -13.651-3.669c1.895 13.198 2.651 27.669 2.651 27.669z" fill="#ceac9a"/><path d="m19 11-3 4v6h6v-6z" fill="#ffd782"/><path d="m29.071 20.372a60.868 60.868 0 0 1 -2.906-10.372h-4.165v-2h5a1 1 0 0 1 .986.835 61.419 61.419 0 0 0 2.943 10.793z" fill="#f4f4e6"/><g fill="#995f5b"><path d="m5 37h10v2h-10z"/><path d="m5 41h10v2h-10z"/><path d="m6 45h8v2h-8z"/><path d="m6 49h7v2h-7z"/><path d="m7 53h7v2h-7z"/></g><path d="m9 14h2v2h-2z" fill="#f4f4e6"/><path d="m8 18h2v2h-2z" fill="#f4f4e6"/><path d="m7 22h2v2h-2z" fill="#f4f4e6"/><path d="m35.495 55c.588.785 1.1 1.458 1.505 2a4.748 4.748 0 0 0 4 2h17a37.236 37.236 0 0 0 1.538-4z" fill="#ceac9a"/><path d="m27 8h-5v2h4.165a60.868 60.868 0 0 0 2.906 10.372l1.858-.744a61.419 61.419 0 0 1 -2.943-10.793 1 1 0 0 0 -.986-.835z"/><path d="m9 14h2v2h-2z"/><path d="m8 18h2v2h-2z"/><path d="m7 22h2v2h-2z"/><path d="m55 45h-4v2h4a1.2 1.2 0 0 1 .9.323.526.526 0 0 1 .126.434l-1 4 1.94.486 1.016-4.078a2.586 2.586 0 0 0 -.556-2.135 3.145 3.145 0 0 0 -2.426-1.03z"/><path d="m60.708 43.685c-1.131-1.785-3.051-2.685-5.708-2.685-10.965 0-16.985-12.834-19.064-18.353-1.81-4.804-4.936-17.747-4.964-17.881a1 1 0 0 0 -.972-.766h-11a1 1 0 0 0 -1 1v4.819l-10.835-1.805a.986.986 0 0 0 -.811.223 1 1 0 0 0 -.354.763 13.523 13.523 0 0 1 -1.111 4.208 29.047 29.047 0 0 0 -1.877 15.946c2.119 13.551 2.981 29.736 2.988 29.898a1 1 0 0 0 1 .948h9a1 1 0 0 0 1-.917l1.879-22.558c1.908 1.086 5.9 4 10.276 11.005 2.681 4.289 4.9 7.221 6.364 9.161l.682.907a5.709 5.709 0 0 0 4.799 2.402h17a1 1 0 0 0 .905-.574c.205-.436 4.984-10.726 1.803-15.741zm-41.708-31.018 2 2.666v4.667h-4v-4.667zm-3.92 45.333h-7.136c-.04-.681-.1-1.708-.193-3h6.249v-2h-6.391q-.07-.945-.153-2h5.544v-2h-5.706q-.081-.971-.172-2h6.878v-2h-7.06q-.093-.983-.193-2h8.253v-2h-8.457q-.105-.992-.217-2h8.674v-2h-8.9c-.176-1.481-.365-2.974-.568-4.456a60.308 60.308 0 0 1 11.415 3.1zm42.274 0h-16.354a3.752 3.752 0 0 1 -3.2-1.6l-.3-.4h20.644c-.274.761-.544 1.445-.79 2zm1.446-4h-22.8c-1.363-1.832-3.12-4.285-5.148-7.53-6.309-10.1-11.908-12.207-12.491-12.4a61.676 61.676 0 0 0 -13.125-3.6q-.119-.814-.244-1.618a26.946 26.946 0 0 1 1.78-14.953 21.673 21.673 0 0 0 1.128-3.735l9.315 1.552-2.015 2.684a1 1 0 0 0 -.2.6v6a1 1 0 0 0 1 1h6a1 1 0 0 0 1-1v-6a1 1 0 0 0 -.2-.6l-2.8-3.733v-4.667h9.214c.708 2.9 3.235 13.065 4.85 17.353 1.885 5 6.834 15.621 15.724 18.755a29.121 29.121 0 0 0 -4.288 2.024l.992 1.736a21.463 21.463 0 0 1 7.872-2.89c.21.008.418.022.632.022 1.954 0 3.269.574 4.019 1.755 1.363 2.145.744 6.005-.215 9.245z"/></g></svg>